<svg xmlns="http://www.w3.org/2000/svg" xmlns:xlink="http://www.w3.org/1999/xlink" xmlns:inkscape="http://www.inkscape.org/namespaces/inkscape" version="1.1" width="520" height="246" viewBox="0 0 520 246">
<defs>
<path id="font_1_84" d="M.5049896 .3659973C.5029907 .47999574 .4149933 .548996 .269989 .548996 .1329956 .548996 .04798889 .47999574 .04798889 .36898805 .04798889 .33299256 .05899048 .3019867 .07798767 .2809906 .09700012 .2619934 .11399841 .25299073 .1659851 .23599243L.33299256 .18399048C.36799623 .17298889 .37998963 .1619873 .37998963 .13999939 .37998963 .10699463 .34098817 .08699036 .27598573 .08699036 .23899842 .08699036 .21099854 .09298706 .19299317 .10598755 .17799378 .116989139 .17199707 .12799073 .1659851 .15699768H.0289917C.032989503 .037994386 .11999512-.023010254 .28399659-.023010254 .35899354-.023010254 .41600038-.007003784 .45599366 .024993897 .49598695 .056991579 .519989 .10699463 .519989 .1599884 .519989 .22999573 .4850006 .2749939 .4139862 .29599L.23699951 .34700013C.19799805 .35899354 .18798828 .36698915 .18798828 .3889923 .18798828 .4189911 .21998596 .43899537 .2689972 .43899537 .33599855 .43899537 .36898805 .4149933 .36999513 .3659973H.5049896Z"/>
<path id="font_1_73" d="M.066986087 .72898867V0H.20698548V.32398988C.20698548 .38598634 .2519989 .42999269 .31498719 .42999269 .34599305 .42999269 .36898805 .4189911 .3849945 .39698792 .397995 .3789978 .40098573 .3639984 .40098573 .32998658V0H.54100039V.3619995C.54100039 .42900086 .522995 .47698976 .48599244 .5079956 .45498658 .5339966 .4099884 .548996 .36499024 .548996 .29599 .548996 .24598694 .5219879 .20698548 .46199037V.72898867H.066986087Z"/>
<path id="font_1_70" d="M.5239868 .22599793C.5249939 .23799134 .5249939 .24299622 .5249939 .25 .5249939 .3039856 .5169983 .35398866 .5039978 .3919983 .46798707 .48999024 .3809967 .548996 .27198792 .548996 .116989139 .548996 .021987915 .43699647 .021987915 .2559967 .021987915 .08299255 .115997318-.023010254 .2689972-.023010254 .3899994-.023010254 .48799134 .04499817 .5189972 .1519928H.3809967C.3639984 .10899353 .32499696 .083999637 .27398683 .083999637 .23399353 .083999637 .20199585 .100997928 .18199158 .1309967 .16899109 .15098572 .1639862 .1749878 .1619873 .22599793H.5239868M.1639862 .31900025C.17298889 .4019928 .20799256 .44198609 .269989 .44198609 .33399964 .44198609 .37199403 .39898683 .3789978 .31900025H.1639862Z"/>
<path id="font_1_81" d="M.19799805 .5399933H.057998659V-.21800232H.19799805V.06399536C.23199463 .0039978029 .27999879-.024002076 .34799195-.024002076 .47799684-.024002076 .57398989 .09799194 .57398989 .2619934 .57398989 .33799745 .5519867 .4139862 .5159912 .46398927 .47999574 .5149994 .41299439 .548996 .34799195 .548996 .27999879 .548996 .23199463 .519989 .19799805 .45999146V.5399933M.31599427 .43199159C.3869934 .43199159 .43399049 .3639984 .43399049 .2599945 .43399049 .16099549 .38598634 .09298706 .31599427 .09298706 .24499512 .09298706 .19799805 .16099549 .19799805 .2619934 .19799805 .3639984 .24499512 .43199159 .31599427 .43199159Z"/>
<path id="font_1_83" d="M.06298828 .5399933V0H.20298767V.2869873C.20298767 .36898805 .24398804 .4099884 .32598878 .4099884 .34098817 .4099884 .35099793 .40899659 .36999513 .4059906V.5479889C.3619995 .548996 .35899354 .548996 .35299684 .548996 .2889862 .548996 .23399353 .5069885 .20298767 .43399049V.5399933H.06298828Z"/>
<path id="font_1_69" d="M.40499879 0H.54499819V.72898867H.40499879V.46998597C.36999513 .5239868 .32398988 .548996 .2559967 .548996 .1269989 .548996 .0289917 .4249878 .0289917 .2619934 .0289917 .18899536 .050994874 .114990238 .08699036 .06298828 .12399292 .009994507 .18998719-.023010254 .2559967-.023010254 .32398988-.023010254 .36999513 .0009918213 .40499879 .054992677V0M.2869873 .43199159C.35798646 .43199159 .40499879 .3639984 .40499879 .2599945 .40499879 .1619873 .35699464 .09399414 .2869873 .09399414 .21699524 .09399414 .16899109 .16299439 .16899109 .2619934 .16899109 .36299134 .21699524 .43199159 .2869873 .43199159Z"/>
<path id="font_1_64" d="M.5779877-.120010379H-.022003174V-.18901062H.5779877V-.120010379Z"/>
<path id="font_1_74" d="M.20698548 .5399933H.066986087V0H.20698548V.5399933M.20698548 .72898867H.066986087V.60398867H.20698548V.72898867Z"/>
<path id="font_1_72" d="M.3999939 .5399933V.45700074C.36099244 .519989 .31799317 .548996 .26098634 .548996 .21299744 .548996 .1599884 .5249939 .12298584 .48599244 .068984989 .42999269 .040985109 .35198976 .040985109 .25698854 .040985109 .09098816 .1289978-.023010254 .2579956-.023010254 .31599427-.023010254 .35099793-.0040130617 .3999939 .054992677V-.018005372C.3999939-.08300781 .35398866-.12800598 .28799439-.12800598 .23799134-.12800598 .20698548-.10600281 .19599915-.06500244H.051986696C.052993776-.10700989 .067993167-.13600159 .10499573-.16600037 .147995-.20100403 .20698548-.21800232 .2829895-.21800232 .43899537-.21800232 .5329895-.14300537 .5329895-.018005372V.5399933H.3999939M.2869873 .43199159C.35299684 .43199159 .4019928 .35899354 .4019928 .25898744 .4019928 .16099549 .35499574 .09399414 .2849884 .09399414 .22399903 .09399414 .18099976 .16099549 .18099976 .25898744 .18099976 .36099244 .22399903 .43199159 .2869873 .43199159Z"/>
<path id="font_1_79" d="M.06298828 .5399933V0H.20298767V.32398988C.20298767 .3880005 .24699402 .42999269 .31599427 .42999269 .37599183 .42999269 .4059906 .39698792 .4059906 .33299256V0H.54599V.3619995C.54599 .48199464 .48098756 .548996 .36499024 .548996 .2919922 .548996 .24299622 .522995 .20298767 .46199037V.5399933H.06298828Z"/>
<path id="font_1_66" d="M.5239868 .016998291C.5 .039993287 .49198915 .055999757 .49198915 .08299255V.3829956C.49198915 .49299623 .4169922 .548996 .2709961 .548996 .125 .548996 .04899597 .4869995 .039993287 .3619995H.1749878C.18199158 .41799928 .20498657 .43598939 .27398683 .43598939 .32798768 .43598939 .35499574 .41799928 .35499574 .38198854 .35499574 .3639984 .34599305 .34899903 .33099366 .33999635 .31199647 .32998658 .31199647 .32998658 .24299622 .31900025L.18699646 .30899049C.07998657 .29100038 .027999878 .23599243 .027999878 .13899231 .027999878 .041992189 .09298706-.023010254 .19198609-.023010254 .2519989-.023010254 .30599977 .0019989014 .35598756 .053985597 .35598756 .025985718 .35899354 .015991211 .37199403 0H.5239868V.016998291M.35499574 .21699524C.35499574 .13598633 .31498719 .08999634 .24398804 .08999634 .19699097 .08999634 .16799927 .114990238 .16799927 .15499878 .16799927 .19699097 .18998719 .21699524 .24798584 .22898865L.29599 .23799134C.33299256 .24499512 .33898927 .24699402 .35499574 .25498963V.21699524Z"/>
<path id="font_1_77" d="M.20698548 .72898867H.066986087V0H.20698548V.72898867Z"/>
<path id="font_1_80" d="M.30099488 .548996C.13598633 .548996 .034988405 .43998719 .034988405 .2630005 .034988405 .084991458 .13598633-.023010254 .3019867-.023010254 .46699525-.023010254 .56900027 .084991458 .56900027 .25898744 .56900027 .44198609 .46998597 .548996 .30099488 .548996M.3019867 .43598939C.3789978 .43598939 .42900086 .36698915 .42900086 .26098634 .42900086 .1599884 .3769989 .08999634 .3019867 .08999634 .22599793 .08999634 .1749878 .15899658 .1749878 .2630005 .1749878 .36698915 .22599793 .43598939 .3019867 .43598939Z"/>
<path id="font_1_68" d="M.5219879 .33799745C.5119934 .46998597 .4249878 .548996 .2889862 .548996 .1269989 .548996 .033996583 .44299317 .033996583 .25898744 .033996583 .08099365 .1269989-.023010254 .2869873-.023010254 .41799928-.023010254 .5089874 .057998659 .5219879 .18699646H.3880005C.37098695 .116989139 .34298707 .08999634 .2869873 .08999634 .21598816 .08999634 .17399597 .15299988 .17399597 .25898744 .17399597 .31098939 .18399048 .35798646 .20098877 .3899994 .21699524 .41999818 .24798584 .43598939 .28799439 .43598939 .34498597 .43598939 .37199403 .40899659 .3880005 .33799745H.5219879Z"/>
<path id="font_1_15" d="M.21398926 .1459961H.06399536V0H.21398926V.1459961Z"/>
<path id="font_1_71" d="M.31298829 .5289917H.22999573V.58200076C.22999573 .6100006 .24198914 .6239929 .2679901 .6239929 .2809906 .6239929 .2939911 .6230011 .30799867 .62098696V.7259979C.27799989 .7279968 .24899292 .72898867 .22799683 .72898867 .1349945 .72898867 .08999634 .68499758 .08999634 .59399417V.5289917H.01399231V.43598939H.08999634V0H.22999573V.43598939H.31298829V.5289917Z"/>
<path id="font_1_156" d="M.5269928 .102996829H.055999757V-.01600647H.5269928V.102996829M.5269928 .43199159H.35099793V.60798647H.23199463V.43199159H.055999757V.31298829H.23199463V.13699341H.35099793V.31298829H.5269928V.43199159Z"/>
<path id="font_1_1" d="M0 0Z"/>
<path id="font_1_18" d="M.23799134 .4889984V0H.37799073V.70899966H.2849884C.2630005 .625 .18998719 .58200076 .067993167 .58200076V.4889984H.23799134Z"/>
<path id="font_1_19" d="M.5119934 .125H.21099854C.22999573 .16299439 .2519989 .18399048 .35598756 .25898744 .47898866 .34899903 .5149994 .4019928 .5149994 .49899293 .5149994 .6359863 .41999818 .723999 .27198792 .723999 .125 .723999 .038986207 .6369934 .038986207 .4869995V.46199037H.17399597V.4850006C.17399597 .56399539 .21099854 .6100006 .2749939 .6100006 .33699037 .6100006 .375 .5669861 .375 .49598695 .375 .4169922 .35099793 .3880005 .19299317 .27598573 .07299805 .19400025 .035995485 .13198853 .02999878 0H.5119934V.125Z"/>
<path id="font_1_23" d="M.5069885 .5479889C.5 .59399417 .4909973 .61698916 .47299195 .6429901 .43598939 .69400027 .37098695 .723999 .2939911 .723999 .20599365 .723999 .13398743 .68499758 .09098816 .6139984 .04899597 .54499819 .03199768 .46598817 .03199768 .33699037 .03199768 .21499634 .04699707 .13899231 .08299255 .08198547 .12399292 .015991211 .19799805-.023010254 .28199769-.023010254 .4229889-.023010254 .5189972 .08198547 .5189972 .23699951 .5189972 .37298585 .43499757 .46699525 .31298829 .46699525 .25498963 .46699525 .21598816 .44999696 .17199707 .4039917L.17298889 .4189911C.1749878 .4850006 .17799378 .5059967 .18798828 .5329895 .20698548 .58499148 .24099732 .61099246 .2899933 .61099246 .33499146 .61099246 .35899354 .59298709 .3769989 .5479889H.5069885M.27799989 .35598756C.34399415 .35598756 .38598634 .30599977 .38598634 .22698975 .38598634 .1519928 .33999635 .09700012 .27799989 .09700012 .21398926 .09700012 .16999817 .14898682 .16999817 .22499085 .16999817 .3019867 .21398926 .35598756 .27799989 .35598756Z"/>
<path id="font_1_45" d="M.22999573 .72898867H.07998657V0H.57899478V.125H.22999573V.72898867Z"/>
<path id="font_1_48" d="M.3899994 .7409973C.28799439 .7409973 .20399475 .70700076 .14199829 .6399994 .07699585 .56999209 .039993287 .46798707 .039993287 .35899354 .039993287 .25 .07699585 .14698792 .14199829 .07798767 .20498657 .009994507 .2869873-.023010254 .3909912-.023010254 .49499513-.023010254 .57699587 .009994507 .6399994 .07798767 .7029877 .14498902 .74198916 .25099183 .74198916 .35398866 .74198916 .46798707 .7049866 .57099917 .6399994 .6399994 .57598879 .70899966 .49598695 .7409973 .3899994 .7409973M.3909912 .61299136C.5139923 .61299136 .59199526 .5130005 .59199526 .35499574 .59199526 .20498657 .5109863 .10499573 .3909912 .10499573 .2689972 .10499573 .18998719 .20498657 .18998719 .35899354 .18998719 .5130005 .2689972 .61299136 .3909912 .61299136Z"/>
<path id="font_1_36" d="M.6819916 .48199464C.6769867 .54499819 .6639862 .58499148 .6329956 .6259918 .57699587 .69999697 .4869995 .7409973 .37799073 .7409973 .17199707 .7409973 .04399109 .59399417 .04399109 .35798646 .04399109 .12298584 .17098999-.023010254 .37399293-.023010254 .55599978-.023010254 .6759949 .08198547 .68499758 .24899292H.5389862C.5289917 .1559906 .47099305 .102996829 .37799073 .102996829 .2619934 .102996829 .19400025 .19699097 .19400025 .35598756 .19400025 .5169983 .2649994 .61299136 .3829956 .61299136 .46998597 .61299136 .5189972 .57099917 .5389862 .48199464H.6819916Z"/>
<path id="font_2_14" d="M.049804689 .35351563H.5673828V.2705078H.049804689V.35351563Z"/>
<path id="font_2_1" d="M0 0Z"/>
<path id="font_2_53" d="M.022949219 .7294922H.57910159V.6464844H.35107423V0H.25195313V.6464844H.022949219V.7294922Z"/>
<path id="font_2_73" d="M.5131836 .33921815V0H.42285157V.33921815C.42285157 .38842265 .41422526 .42459107 .39697267 .4477234 .37972007 .4708557 .3527018 .48242188 .31591798 .48242188 .27392579 .48242188 .24161785 .46751405 .21899414 .43769837 .19637044 .4078827 .1850586 .3651174 .1850586 .30940248V0H.095214847V.7597656H.1850586V.46531678C.20100911 .49656678 .22265625 .5202484 .25 .5363617 .27734376 .55248519 .30973307 .5605469 .34716798 .5605469 .40283204 .5605469 .44441734 .54222616 .47192384 .5055847 .49943034 .46894328 .5131836 .41348777 .5131836 .33921815Z"/>
<path id="font_2_74" d="M.15429688 .5449219H.38427735V.0703125H.5625V0H.11621094V.0703125H.2944336V.47460938H.15429688V.5449219M.2944336 .7578125H.38427735V.64453127H.2944336V.7578125Z"/>
<path id="font_2_84" d="M.47509767 .5283203V.4404297C.4493815 .45540367 .4235026 .46663413 .39746095 .4741211 .37141929 .48160807 .3448893 .48535157 .3178711 .48535157 .277181 .48535157 .24682617 .4787445 .22680664 .4655304 .20678711 .45231629 .19677735 .43217469 .19677735 .4051056 .19677735 .38064067 .20426433 .36237083 .21923828 .35029603 .23421224 .33822123 .27148438 .32647706 .3310547 .31506349L.3671875 .30819703C.41178385 .2997233 .44555665 .28276573 .46850587 .25732423 .49145509 .2318929 .5029297 .1987915 .5029297 .15802002 .5029297 .103892009 .48372398 .061579389 .4453125 .031082154 .40690104 .0005950928 .35351563-.0146484379 .28515626-.0146484379 .25813804-.0146484379 .2298177-.01180013 .20019531-.0061035158 .17057292-.00040690104 .13850911 .0081380209 .104003909 .01953125V.11230469C.13753255 .095052089 .16959636 .08211263 .20019531 .07348633 .23079427 .06486002 .25976563 .060546876 .28710938 .060546876 .3268229 .060546876 .35758464 .068618778 .37939454 .08476257 .40120445 .10091654 .41210938 .12350973 .41210938 .15254212 .41210938 .19430034 .37223307 .22316997 .29248048 .239151L.28857423 .24012757 .2548828 .24697876C.203125 .25709025 .16536458 .27412925 .14160156 .2980957 .11783854 .32207237 .10595703 .35476686 .10595703 .3961792 .10595703 .4486898 .123697917 .48921205 .15917969 .517746 .19466146 .5462799 .24527996 .5605469 .31103517 .5605469 .34033204 .5605469 .3684896 .5578613 .3955078 .55249026 .42252604 .54711917 .449056 .5390625 .47509767 .5283203Z"/>
<path id="font_2_66" d="M.34277345 .27539063H.31298829C.26057945 .27539063 .22111003 .2661489 .19458008 .2476654 .16805013 .2291921 .15478516 .2016449 .15478516 .1650238 .15478516 .1319936 .16471355 .10632324 .18457031 .088012699 .20442708 .06970215 .2319336 .060546876 .26708985 .060546876 .316569 .060546876 .35546876 .077794399 .38378907 .11228943 .41210938 .14679463 .42643229 .19445801 .4267578 .25527955V.27539063H.34277345M.51708987 .3125V0H.4267578V.08065796C.4075521 .04807536 .38338218 .024042765 .35424806 .008560181 .32511393-.0069122316 .28971354-.0146484379 .24804688-.0146484379 .19238281-.0146484379 .14794922 .0010986328 .114746097 .032592775 .08154297 .064097087 .064941409 .106287639 .064941409 .15916443 .064941409 .22019959 .085367839 .26654563 .1262207 .2982025 .16707357 .3298696 .22705078 .34570313 .30615235 .34570313H.4267578V.35986329C.42643229 .40348307 .4153646 .43513999 .3935547 .45483399 .37174479 .47452799 .33691407 .484375 .2890625 .484375 .25846354 .484375 .22753906 .47998048 .19628906 .4711914 .16503906 .46240235 .13460286 .44954429 .10498047 .4326172V.52246096C.1381836 .53515627 .17000325 .54467776 .20043946 .5510254 .23087566 .55737307 .26041667 .5605469 .2890625 .5605469 .3343099 .5605469 .37296549 .5538737 .4050293 .54052737 .4370931 .52718099 .46305339 .50716146 .48291017 .48046876 .49527995 .46419273 .50406906 .4440918 .50927737 .42016603 .51448568 .39624024 .51708987 .36035157 .51708987 .3125Z"/>
<path id="font_2_77" d="M.35107423 .19815064C.35107423 .15781658 .35847984 .12740071 .37329103 .106903079 .3881022 .08641561 .4099935 .076171878 .43896485 .076171878H.5439453V0H.43017579C.37646485 0 .33487956 .017171225 .30541993 .051513673 .2759603 .08585612 .26123048 .13460286 .26123048 .1977539V.6923828H.1171875V.7626953H.35107423V.19815064Z"/>
<path id="font_2_72" d="M.4189453 .2783203C.4189453 .34570313 .40795899 .39689128 .38598634 .43188478 .36401368 .46687828 .33203126 .484375 .29003907 .484375 .24609375 .484375 .21256511 .46687828 .18945313 .43188478 .16634114 .39689128 .15478516 .34570313 .15478516 .2783203 .15478516 .2109375 .16642253 .1595866 .18969727 .12426758 .212972 .08894857 .2467448 .07128906 .29101563 .07128906 .33235679 .07128906 .36401368 .089029949 .38598634 .12451172 .40795899 .15999349 .4189453 .21126302 .4189453 .2783203M.50878909 .03541565C.50878909-.04669698 .48942057-.108932498 .4506836-.1512909 .41194663-.19365947 .35498048-.21484375 .27978517-.21484375 .25504557-.21484375 .22916667-.21252442 .20214844-.20788574 .1751302-.20324707 .14811199-.19645183 .12109375-.1875V-.09863281C.1529948-.11360677 .18196614-.12467448 .20800781-.13183594 .23404949-.13899739 .25797526-.14257813 .27978517-.14257813 .32828776-.14257813 .36360679-.12941997 .3857422-.10310364 .4078776-.076787319 .4189453-.035039266 .4189453 .022140503V.026062012 .087402347C.4046224 .056640626 .38509117 .033732099 .36035157 .018676758 .33561198 .0036214193 .3055013-.00390625 .27001954-.00390625 .20621746-.00390625 .15527344 .02166748 .1171875 .07281494 .07910156 .12397257 .060058595 .19239299 .060058595 .27807618 .060058595 .36408488 .07910156 .43266297 .1171875 .48381043 .15527344 .5349681 .20621746 .5605469 .27001954 .5605469 .30517579 .5605469 .33496095 .55354818 .359375 .5395508 .38378907 .5255534 .40364585 .50390627 .4189453 .47460938V.5449219H.50878909V.03541565Z"/>
<path id="font_2_80" d="M.30078126 .484375C.25520835 .484375 .22070313 .4665934 .19726563 .43103028 .17382813 .39546714 .16210938 .34277345 .16210938 .27294923 .16210938 .20345052 .17382813 .15083821 .19726563 .115112308 .22070313 .07938639 .25520835 .061523439 .30078126 .061523439 .3466797 .061523439 .38134767 .07938639 .40478517 .115112308 .42822267 .15083821 .4399414 .20345052 .4399414 .27294923 .4399414 .34277345 .42822267 .39546714 .40478517 .43103028 .38134767 .4665934 .3466797 .484375 .30078126 .484375M.30078126 .5605469C.3766276 .5605469 .4346517 .5359294 .47485353 .48669435 .51505538 .43745933 .53515627 .36621095 .53515627 .27294923 .53515627 .17936199 .5151367 .10803223 .47509767 .05895996 .4350586 .009887695 .37695313-.0146484379 .30078126-.0146484379 .22493489-.0146484379 .16699219 .009887695 .12695313 .05895996 .08691406 .10803223 .06689453 .17936199 .06689453 .27294923 .06689453 .36621095 .08691406 .43745933 .12695313 .48669435 .16699219 .5359294 .22493489 .5605469 .30078126 .5605469Z"/>
<path id="font_2_83" d="M.56396487 .4345703C.5447591 .44954429 .52522787 .46044923 .5053711 .46728517 .4855143 .4741211 .46370445 .47753907 .4399414 .47753907 .3839518 .47753907 .34114585 .45994569 .31152345 .4247589 .28190104 .38957215 .26708985 .33874513 .26708985 .27227784V0H.17675781V.546875H.26708985V.4404297C.2820638 .47916667 .3050944 .5088704 .33618165 .529541 .3672689 .5502116 .40413413 .5605469 .44677735 .5605469 .46891276 .5605469 .48958335 .55777999 .50878909 .5522461 .5279948 .5467122 .5463867 .53808596 .56396487 .5263672V.4345703Z"/>
<path id="font_2_85" d="M.2998047 .70214846V.546875H.50390627V.4765625H.2998047V.18040467C.2998047 .14013164 .30745445 .1120402 .3227539 .09613037 .33805339 .08022054 .3647461 .072265628 .40283204 .072265628H.50390627V0H.39404298C.32666017 0 .27913413 .013524373 .25146485 .04057312 .22379558 .06763204 .20996094 .11424255 .20996094 .18040467V.4765625H.063964847V.546875H.20996094V.70214846H.2998047Z"/>
<path id="font_2_78" d="M.33007813 .49165345C.34114585 .51511129 .3552246 .53245547 .37231446 .5436859 .3894043 .5549266 .4099935 .5605469 .43408204 .5605469 .47802735 .5605469 .5090332 .54352316 .5270996 .5094757 .545166 .47543846 .5541992 .41135154 .5541992 .31721498V0H.47216798V.31330873C.47216798 .39052836 .46785484 .43850709 .45922853 .45724488 .4506022 .47598268 .43489585 .48535157 .41210938 .48535157 .38606773 .48535157 .36824546 .47533164 .35864259 .45529176 .3490397 .43525187 .34423829 .3879242 .34423829 .31330873V0H.26220704V.31330873C.26220704 .3915151 .25756837 .43973796 .24829102 .4579773 .23901367 .4762268 .22233074 .48535157 .19824219 .48535157 .17447917 .48535157 .15795899 .47533164 .14868164 .45529176 .1394043 .43525187 .13476563 .3879242 .13476563 .31330873V0H.053222658V.546875H.13476563V.5003662C.14550781 .5199382 .15893555 .53486129 .17504883 .5451355 .19116211 .5554097 .20947266 .5605469 .22998047 .5605469 .25472007 .5605469 .27530924 .55484518 .29174806 .5434418 .30818687 .5320485 .32096354 .51478579 .33007813 .49165345Z"/>
<path id="font_2_81" d="M.18310547 .068374637V-.20800781H.09277344V.546875H.18310547V.4775238C.19807942 .50454208 .21801758 .5251312 .24291992 .5392914 .26782228 .55346176 .29654948 .5605469 .32910157 .5605469 .39518229 .5605469 .44702149 .5349477 .48461915 .4837494 .5222168 .43256126 .5410156 .36164347 .5410156 .2709961 .5410156 .18197632 .52213546 .11211141 .484375 .061401369 .4466146 .010701497 .39485679-.0146484379 .32910157-.0146484379 .29589845-.0146484379 .2668457-.0075683596 .24194336 .006591797 .21704102 .020762125 .19742839 .041356405 .18310547 .068374637M.44677735 .27294923C.44677735 .34277345 .43579103 .39546714 .41381837 .43103028 .3918457 .4665934 .35921226 .484375 .31591798 .484375 .2722982 .484375 .23925781 .46651206 .21679688 .43078614 .19433594 .3950602 .18310547 .3424479 .18310547 .27294923 .18310547 .20377605 .19433594 .15124512 .21679688 .115356449 .23925781 .07946777 .2722982 .061523439 .31591798 .061523439 .35921226 .061523439 .3918457 .079305019 .41381837 .114868167 .43579103 .15043132 .44677735 .203125 .44677735 .27294923Z"/>
<path id="font_2_70" d="M.546875 .31843568V.27441407H.15771485V.27148438C.15511067 .19676717 .16935222 .14309184 .20043946 .110458377 .23152669 .07783508 .27539063 .061523439 .33203126 .061523439 .3606771 .061523439 .390625 .06608073 .421875 .07519531 .453125 .0843099 .48649089 .09814453 .52197268 .11669922V.02734375C.48779298 .0133463549 .45483399 .0028483074 .4230957-.0041503908 .39135743-.011149089 .3606771-.0146484379 .3310547-.0146484379 .24609375-.0146484379 .1796875 .010864258 .13183594 .06188965 .083984378 .11292521 .060058595 .1832784 .060058595 .27294923 .060058595 .3603414 .083496097 .43011985 .1303711 .48228456 .1772461 .5344594 .2397461 .5605469 .3178711 .5605469 .38753257 .5605469 .4424642 .53690597 .48266603 .48962403 .52286788 .44234214 .5442708 .38527934 .546875 .31843568M.45703126 .34521485C.453125 .38297526 .43937174 .41560874 .41577149 .44311524 .39217124 .47062174 .3582357 .484375 .31396485 .484375 .27067057 .484375 .23502605 .4700521 .20703125 .44140626 .17903646 .4127604 .16373699 .38053385 .16113281 .34472657L.45703126 .34521485Z"/>
<path id="font_2_79" d="M.5131836 .33921815V0H.42285157V.33921815C.42285157 .38842265 .41422526 .42459107 .39697267 .4477234 .37972007 .4708557 .3527018 .48242188 .31591798 .48242188 .27392579 .48242188 .24161785 .46751405 .21899414 .43769837 .19637044 .4078827 .1850586 .3651174 .1850586 .30940248V0H.095214847V.546875H.1850586V.46531678C.20100911 .49656678 .22265625 .5202484 .25 .5363617 .27734376 .55248519 .30973307 .5605469 .34716798 .5605469 .40283204 .5605469 .44441734 .54222616 .47192384 .5055847 .49943034 .46894328 .5131836 .41348777 .5131836 .33921815Z"/>
<path id="font_2_69" d="M.4189453 .4775238V.7597656H.50878909V0H.4189453V.068374637C.40397135 .041356405 .3840332 .020762125 .35913087 .006591797 .33422853-.0075683596 .3055013-.0146484379 .27294923-.0146484379 .20686849-.0146484379 .15486653 .011027019 .11694336 .06237793 .07902018 .11373901 .060058595 .18458049 .060058595 .27490235 .060058595 .36392213 .07910156 .43378196 .1171875 .4844818 .15527344 .53519186 .20719402 .5605469 .27294923 .5605469 .3058268 .5605469 .3347982 .55346176 .35986329 .5392914 .38492839 .5251312 .4046224 .50454208 .4189453 .4775238M.15478516 .27294923C.15478516 .203125 .16585286 .15043132 .18798828 .114868167 .2101237 .079305019 .24283855 .061523439 .2861328 .061523439 .3294271 .061523439 .36238609 .07946777 .38500978 .115356449 .40763346 .15124512 .4189453 .20377605 .4189453 .27294923 .4189453 .3424479 .40763346 .3950602 .38500978 .43078614 .36238609 .46651206 .3294271 .484375 .2861328 .484375 .24283855 .484375 .2101237 .4665934 .18798828 .43103028 .16585286 .39546714 .15478516 .34277345 .15478516 .27294923Z"/>
<path id="font_2_88" d="M0 .546875H.08886719L.18408203 .10484314 .26220704 .38671876H.3388672L.41796876 .10484314 .5131836 .546875H.6020508L.4741211 0H.3881836L.30078126 .29942323 .21386719 0H.12792969L0 .546875Z"/>
<path id="font_2_68" d="M.5180664 .02734375C.49397788 .0133463549 .4691569 .0028483074 .44360353-.0041503908 .41805015-.011149089 .3919271-.0146484379 .36523438-.0146484379 .28059898-.0146484379 .21443685 .010782878 .16674805 .061645509 .11905924 .11251831 .095214847 .18295288 .095214847 .27294923 .095214847 .36294557 .11905924 .43337504 .16674805 .48423768 .21443685 .5351105 .28059898 .5605469 .36523438 .5605469 .39160157 .5605469 .41731773 .5571289 .4423828 .55029299 .4674479 .54345706 .49267579 .5328776 .5180664 .5185547V.42382813C.49430339 .4451599 .47045899 .46058146 .4465332 .47009278 .42260743 .47961427 .3955078 .484375 .36523438 .484375 .30891929 .484375 .265625 .46610008 .23535156 .42955018 .20507813 .39301048 .1899414 .34081016 .1899414 .27294923 .1899414 .20541382 .2051595 .1532898 .2355957 .11657715 .2660319 .07987467 .30924479 .061523439 .36523438 .061523439 .39648438 .061523439 .42447917 .06636556 .44921876 .076049808 .47395835 .08573405 .49690757 .100748699 .5180664 .12109375V.02734375Z"/>
<path id="font_2_71" d="M.51904299 .7597656V.6845703H.4169922C.38476563 .6845703 .36238609 .67799887 .34985353 .66485598 .33732096 .6517232 .3310547 .62845358 .3310547 .595047V.546875H.51904299V.4765625H.3310547V0H.24121094V.4765625H.095214847V.546875H.24121094V.5848236C.24121094 .6447703 .2549642 .688914 .2824707 .71725466 .3099772 .7455953 .3528646 .7597656 .4111328 .7597656H.51904299Z"/>
<path id="font_2_87" d="M.048828126 .546875H.14208985L.30078126 .087890628 .45996095 .546875H.55322268L.35888673 0H.24316406L.048828126 .546875Z"/>
<path id="font_2_13" d="M.21582031 .17675781H.36816407V.047180177L.25976563-.16357422 .16210938-.1640625 .21582031 .047180177V.17675781Z"/>
<path id="font_2_90" d="M.4189453 .17578125C.40397135 .13769531 .38492839 .0875651 .3618164 .025390625 .32958985-.060546876 .30794273-.11295573 .296875-.13183594 .28190104-.15722656 .2631836-.17626953 .24072266-.18896485 .21826172-.20166016 .1920573-.20800781 .16210938-.20800781H.08984375V-.1328125H.1430664C.1694336-.1328125 .19010417-.12516277 .20507813-.10986328 .22005208-.094563808 .23909505-.05501302 .26220704 .0087890629L.05078125 .546875H.1459961L.30810548 .119140628 .46777345 .546875H.5629883L.4189453 .17578125Z"/>
<path id="font_2_91" d="M.110839847 .54785159H.5078125V.4658203L.19384766 .07324219H.5078125V0H.099121097V.08291626L.41308595 .47558595H.110839847V.54785159Z"/>
<path id="font_2_15" d="M.1899414 .19726563H.3618164V0H.1899414V.19726563Z"/>
<path id="font_2_12" d="M.3515625 .5751953V.359375H.56884768V.2763672H.3515625V.060546876H.26953126V.2763672H.052734376V.359375H.26953126V.5751953H.3515625Z"/>
<path id="font_2_86" d="M.095214847 .2066803V.54589846H.1850586V.2066803C.1850586 .15747579 .19376628 .12130737 .21118164 .09817505 .228597 .075042728 .25553385 .06347656 .2919922 .06347656 .3343099 .06347656 .36669923 .0783844 .38916017 .10820007 .4116211 .13801575 .42285157 .18078105 .42285157 .23649597V.54589846H.5131836V0H.42285157V.08155823C.40690104 .049982709 .38517253 .02605184 .35766603 .009765625 .33015953-.0065104167 .2980143-.0146484379 .26123048-.0146484379 .20524089-.0146484379 .16357422 .003672282 .13623047 .04031372 .10888672 .07695516 .095214847 .13241069 .095214847 .2066803Z"/>
<path id="font_2_67" d="M.4482422 .27294923C.4482422 .34277345 .43717448 .39546714 .41503907 .43103028 .39290367 .4665934 .3601888 .484375 .31689454 .484375 .27327476 .484375 .24023438 .46651206 .21777344 .43078614 .1953125 .3950602 .18408203 .3424479 .18408203 .27294923 .18408203 .20377605 .1953125 .15124512 .21777344 .115356449 .24023438 .07946777 .27327476 .061523439 .31689454 .061523439 .3601888 .061523439 .39290367 .079305019 .41503907 .114868167 .43717448 .15043132 .4482422 .203125 .4482422 .27294923M.18408203 .4775238C.19840496 .5042165 .21818035 .5247243 .2434082 .53904727 .26863609 .5533803 .29785157 .5605469 .3310547 .5605469 .3968099 .5605469 .44856773 .53519186 .48632813 .4844818 .52408859 .43378196 .54296877 .36392213 .54296877 .27490235 .54296877 .18458049 .52400717 .11373901 .48608399 .06237793 .4481608 .011027019 .39615885-.0146484379 .33007813-.0146484379 .29752604-.0146484379 .26879884-.0075683596 .24389649 .006591797 .21899414 .020762125 .19905599 .041356405 .18408203 .068374637V0H.09423828V.7597656H.18408203V.4775238Z"/>
<path id="font_2_89" d="M.54589846 .546875 .35009767 .28515626 .5649414 0H.4609375L.30078126 .21923828 .14111328 0H.037109376L.25195313 .28515626 .056152345 .546875H.15576172L.30078126 .3491211 .44482423 .546875H.54589846Z"/>
<path id="font_2_9" d="M.41748048 .8076172C.3741862 .73339846 .34187828 .6594238 .32055665 .58569338 .29923503 .5119629 .28857423 .43766276 .28857423 .36279298 .28857423 .2882487 .29923503 .21402996 .32055665 .14013672 .34187828 .06624349 .3741862-.0081380209 .41748048-.08300781H.33935548C.2902018-.005533854 .25358073 .0699056 .22949219 .14331055 .20540364 .2167155 .19335938 .2898763 .19335938 .36279298 .19335938 .43538413 .20540364 .50846359 .22949219 .58203127 .25358073 .65559896 .2902018 .73079428 .33935548 .8076172H.41748048Z"/>
<path id="font_2_41" d="M.06689453 .7294922H.16601563V.4501953H.43603517V.7294922H.53515627V0H.43603517V.3671875H.16601563V0H.06689453V.7294922Z"/>
<path id="font_2_8" d="M.3623047 .7607422V.45703126H.2529297V.7607422H.3623047Z"/>
<path id="font_2_10" d="M.16992188 .8076172H.24804688C.29720054 .73079428 .33382163 .65559896 .35791017 .58203127 .3819987 .50846359 .39404298 .43538413 .39404298 .36279298 .39404298 .28955079 .3819987 .21614583 .35791017 .14257813 .33382163 .069010417 .29720054-.006184896 .24804688-.08300781H.16992188C.21321614-.007486979 .2455241 .067220058 .2668457 .14111328 .28816734 .21500652 .29882813 .28889976 .29882813 .36279298 .29882813 .43701173 .28816734 .5110677 .2668457 .58496096 .2455241 .6588542 .21321614 .73307296 .16992188 .8076172Z"/>
<path id="font_2_76" d="M.115234378 .7597656H.20800781V.31982423L.44384767 .546875H.55322268L.33789063 .3408203 .58691409 0H.47705079L.27490235 .28222657 .20800781 .21923828V0H.115234378V.7597656Z"/>
<path id="font_2_4" d="M.33398438 .7158203 .29003907 .54296877H.40966798L.45410157 .7158203H.53222659L.48779298 .54296877H.6069336V.46777345H.46972657L.421875 .2763672H.5439453V.20117188H.40283204L.35205079 0H.27392579L.3251953 .20117188H.20507813L.1538086 0H.076171878L.12695313 .20117188H.0009765625V.2763672H.1459961L.19384766 .46777345H.063964847V.54296877H.21191406L.25585938 .7158203H.33398438M.39160157 .46777345H.27197267L.2241211 .2763672H.34423829L.39160157 .46777345Z"/>
<path id="font_2_56" d="M0 .7294922H.096191409L.16601563 .1373291 .24902344 .5292969H.35205079L.43603517 .13635254 .5058594 .7294922H.6020508L.49316407 0H.39990235L.30078126 .4335022 .20214844 0H.10888672L0 .7294922Z"/>
<path id="font_2_60" d="M.27490235 .80859377H.4819336V.73828127H.3647461V-.0126953129H.4819336V-.08300781H.27490235V.80859377Z"/>
<path id="font_2_62" d="M.3515625 .80859377V-.08300781H.14453125V-.0126953129H.26171876V.73828127H.14453125V.80859377H.3515625Z"/>
<path id="font_2_30" d="M.04296875 .24414063H.55908206V.16113281H.04296875V.24414063M.04296875 .47460938H.55908206V.39160157H.04296875V.47460938Z"/>
<path id="font_2_11" d="M.5756836 .42578126 .35888673 .30859376 .5756836 .19091797 .5415039 .13134766 .33740235 .25390626V.026367188H.26757813V.25390626L.06347656 .13134766 .029296875 .19091797 .24658203 .30859376 .029296875 .42578126 .06347656 .48583985 .26757813 .36328126V.5908203H.33740235V.36328126L.5415039 .48583985 .5756836 .42578126Z"/>
<path id="font_2_49" d="M.19482422 .6484375V.37402345H.30908204C.35465495 .37402345 .3902181 .38608805 .41577149 .4102173 .44132487 .43434654 .45410157 .46809898 .45410157 .5114746 .45410157 .5548503 .44140626 .5885213 .41601563 .6124878 .390625 .6364543 .35498048 .6484375 .30908204 .6484375H.19482422M.096191409 .7294922H.30908204C.39046226 .7294922 .45214845 .71099856 .49414063 .67401126 .5361328 .6370239 .5571289 .58284506 .5571289 .5114746 .5571289 .43945313 .5362142 .38503013 .49438478 .34820558 .45255534 .311381 .39078776 .29296876 .30908204 .29296876H.19482422V0H.096191409V.7294922Z"/>
<path id="font_2_19" d="M.1821289 .08300781H.51708987V0H.07421875V.08300781C.13509114 .14713542 .1883138 .20377605 .23388672 .2529297 .27945964 .30208335 .3108724 .3367513 .328125 .3569336 .3606771 .39664714 .38264976 .42879234 .39404298 .45336915 .4054362 .47794596 .4111328 .50309249 .4111328 .5288086 .4111328 .5694987 .39916993 .6013997 .37524415 .6245117 .35131837 .6476237 .31852214 .6591797 .27685548 .6591797 .24723308 .6591797 .21614583 .6537679 .18359375 .64294436 .15104167 .6321208 .11653646 .61572268 .080078128 .59375V.6933594C.11360677 .70947268 .14656575 .721639 .17895508 .7298584 .2113444 .7380778 .24332683 .7421875 .27490235 .7421875 .3461914 .7421875 .40356446 .7232259 .44702149 .68530276 .49047853 .6473796 .51220706 .59765627 .51220706 .5361328 .51220706 .5048828 .5049642 .4736328 .49047853 .4423828 .47599284 .4111328 .45247398 .3766276 .41992188 .3388672 .40169273 .31770835 .37524415 .28841148 .34057618 .25097657 .3059082 .21354167 .25309245 .15755208 .1821289 .08300781Z"/>
<path id="font_2_27" d="M.20947266 .546875H.3618164V.3701172H.20947266V.546875M.20947266 .17773438H.3618164V0H.20947266V.17773438Z"/>
<path id="font_2_37" d="M.21289063 .08105469C.29589845 .08105469 .35384117 .101496379 .38671876 .14237976 .41959635 .18327332 .43603517 .25715129 .43603517 .36401368 .43603517 .47185264 .41967774 .5462138 .3869629 .58709719 .35424806 .6279907 .29622398 .6484375 .21289063 .6484375H.16601563V.08105469H.21289063M.21484375 .7294922C.32617188 .7294922 .40820313 .6998494 .4609375 .64056399 .5136719 .5812785 .54003909 .48909507 .54003909 .36401368 .54003909 .23958333 .5136719 .14780681 .4609375 .08868408 .40820313 .029561362 .32617188 0 .21484375 0H.06689453V.7294922H.21484375Z"/>
<path id="font_2_20" d="M.37890626 .390625C.4267578 .37789918 .4633789 .3553009 .48876954 .3228302 .51416018 .29036967 .52685549 .24982707 .52685549 .2012024 .52685549 .13398235 .5043132 .08120219 .45922853 .04286194 .4141439 .004521688 .35172526-.0146484379 .27197267-.0146484379 .23844402-.0146484379 .20426433-.011555989 .1694336-.0053710939 .13460286 .00081380209 .10042318 .009765625 .06689453 .021484375V.12011719C.100097659 .10270182 .1328125 .08972168 .16503906 .08117676 .19726563 .072631839 .22932942 .068359378 .26123048 .068359378 .31526695 .068359378 .35677085 .080607097 .3857422 .10510254 .41471354 .12960816 .42919923 .16488648 .42919923 .2109375 .42919923 .2534078 .41471354 .2871348 .3857422 .31211854 .35677085 .33711244 .31754557 .34960938 .2680664 .34960938H.1928711V.43066407H.2680664C.3133138 .43066407 .3486328 .4405721 .37402345 .46038819 .39941407 .48020426 .41210938 .5078125 .41210938 .5432129 .41210938 .5805664 .40030924 .6092326 .37670899 .6292114 .35310874 .64919027 .3194987 .6591797 .2758789 .6591797 .24690755 .6591797 .21695964 .6559245 .18603516 .64941409 .15511067 .6429036 .12272135 .633138 .08886719 .6201172V.7109375C.1282552 .7213542 .16333008 .7291667 .1940918 .734375 .22485352 .7395833 .25211589 .7421875 .2758789 .7421875 .34684245 .7421875 .40356446 .7243907 .44604493 .688797 .4885254 .6532033 .5097656 .60598757 .5097656 .54714968 .5097656 .50716146 .49861656 .47383628 .47631837 .44717408 .45402018 .42052207 .42154948 .40167237 .37890626 .390625Z"/>
</defs>
<path transform="matrix(1,0,0,-1,0,246)" d="M0 0H520V246H0Z" fill="#ffffff" fill-rule="evenodd"/>
<path transform="matrix(1,0,0,-1,0,246)" d="M1 1H519V245H1Z" fill="#fbfbfb" fill-rule="evenodd"/>
<path transform="matrix(1,0,0,-1,0,246)" d="M1 217H519V245H1Z" fill="#a9cdeb" fill-rule="evenodd"/>
<path transform="matrix(1,0,0,-1,0,246)" d="M18 231C18 233.7614 15.76142 236 13 236 10.23858 236 8 233.7614 8 231 8 228.2386 10.23858 226 13 226 15.76142 226 18 228.2386 18 231" fill="#ff5f57" fill-rule="evenodd"/>
<path transform="matrix(1,0,0,-1,0,246)" d="M33 231C33 233.7614 30.76142 236 28 236 25.23858 236 23 233.7614 23 231 23 228.2386 25.23858 226 28 226 30.76142 226 33 228.2386 33 231" fill="#febc2e" fill-rule="evenodd"/>
<path transform="matrix(1,0,0,-1,0,246)" d="M48 231C48 233.7614 45.76142 236 43 236 40.23858 236 38 233.7614 38 231 38 228.2386 40.23858 226 43 226 45.76142 226 48 228.2386 48 231" fill="#28c840" fill-rule="evenodd"/>
<use data-text="s" xlink:href="#font_1_84" transform="matrix(16,0,0,-16,59,20)"/>
<use data-text="h" xlink:href="#font_1_73" transform="matrix(16,0,0,-16,67.896,20)"/>
<use data-text="e" xlink:href="#font_1_70" transform="matrix(16,0,0,-16,77.672008,20)"/>
<use data-text="p" xlink:href="#font_1_81" transform="matrix(16,0,0,-16,86.56801,20)"/>
<use data-text="h" xlink:href="#font_1_73" transform="matrix(16,0,0,-16,96.34401,20)"/>
<use data-text="e" xlink:href="#font_1_70" transform="matrix(16,0,0,-16,106.12001,20)"/>
<use data-text="r" xlink:href="#font_1_83" transform="matrix(16,0,0,-16,115.016017,20)"/>
<use data-text="d" xlink:href="#font_1_69" transform="matrix(16,0,0,-16,121.24001,20)"/>
<use data-text="_" xlink:href="#font_1_64" transform="matrix(16,0,0,-16,131.016,20)"/>
<use data-text="s" xlink:href="#font_1_84" transform="matrix(16,0,0,-16,139.912,20)"/>
<use data-text="i" xlink:href="#font_1_74" transform="matrix(16,0,0,-16,148.808,20)"/>
<use data-text="g" xlink:href="#font_1_72" transform="matrix(16,0,0,-16,153.256,20)"/>
<use data-text="n" xlink:href="#font_1_79" transform="matrix(16,0,0,-16,163.032,20)"/>
<use data-text="a" xlink:href="#font_1_66" transform="matrix(16,0,0,-16,172.808,20)"/>
<use data-text="l" xlink:href="#font_1_77" transform="matrix(16,0,0,-16,181.704,20)"/>
<use data-text="_" xlink:href="#font_1_64" transform="matrix(16,0,0,-16,186.152,20)"/>
<use data-text="p" xlink:href="#font_1_81" transform="matrix(16,0,0,-16,195.04799,20)"/>
<use data-text="r" xlink:href="#font_1_83" transform="matrix(16,0,0,-16,204.82399,20)"/>
<use data-text="o" xlink:href="#font_1_80" transform="matrix(16,0,0,-16,211.04799,20)"/>
<use data-text="c" xlink:href="#font_1_68" transform="matrix(16,0,0,-16,220.82399,20)"/>
<use data-text="e" xlink:href="#font_1_70" transform="matrix(16,0,0,-16,229.71999,20)"/>
<use data-text="s" xlink:href="#font_1_84" transform="matrix(16,0,0,-16,238.61598,20)"/>
<use data-text="s" xlink:href="#font_1_84" transform="matrix(16,0,0,-16,247.51198,20)"/>
<use data-text="i" xlink:href="#font_1_74" transform="matrix(16,0,0,-16,256.408,20)"/>
<use data-text="n" xlink:href="#font_1_79" transform="matrix(16,0,0,-16,260.856,20)"/>
<use data-text="g" xlink:href="#font_1_72" transform="matrix(16,0,0,-16,270.632,20)"/>
<use data-text="." xlink:href="#font_1_15" transform="matrix(16,0,0,-16,280.408,20)"/>
<use data-text="d" xlink:href="#font_1_69" transform="matrix(16,0,0,-16,284.856,20)"/>
<use data-text="i" xlink:href="#font_1_74" transform="matrix(16,0,0,-16,294.632,20)"/>
<use data-text="f" xlink:href="#font_1_71" transform="matrix(16,0,0,-16,299.08,20)"/>
<use data-text="f" xlink:href="#font_1_71" transform="matrix(16,0,0,-16,304.408,20)"/>
<path transform="matrix(1,0,0,-1,0,246)" d="M414 221H509V241H414Z" fill="#e6eef5" fill-rule="evenodd"/>
<use data-text="&#x00b1;" xlink:href="#font_1_156" transform="matrix(12,0,0,-12,431.986,19)" fill="#121212"/>
<use data-text=" " xlink:href="#font_1_1" transform="matrix(12,0,0,-12,438.994,19)" fill="#121212"/>
<use data-text="1" xlink:href="#font_1_18" transform="matrix(12,0,0,-12,442.33,19)" fill="#121212"/>
<use data-text="2" xlink:href="#font_1_19" transform="matrix(12,0,0,-12,449.00199,19)" fill="#121212"/>
<use data-text="6" xlink:href="#font_1_23" transform="matrix(12,0,0,-12,455.67399,19)" fill="#121212"/>
<use data-text=" " xlink:href="#font_1_1" transform="matrix(12,0,0,-12,462.34599,19)" fill="#121212"/>
<use data-text="L" xlink:href="#font_1_45" transform="matrix(12,0,0,-12,465.68199,19)" fill="#121212"/>
<use data-text="O" xlink:href="#font_1_48" transform="matrix(12,0,0,-12,473.01399,19)" fill="#121212"/>
<use data-text="C" xlink:href="#font_1_36" transform="matrix(12,0,0,-12,482.34999,19)" fill="#121212"/>
<path transform="matrix(1,0,0,-1,0,246)" d="M1 190H519V208H1Z" fill="#fff0f0" fill-rule="evenodd"/>
<use data-text="-" xlink:href="#font_2_14" transform="matrix(11,0,0,-11,11,52)" fill="#b9474d"/>
<use data-text=" " xlink:href="#font_2_1" transform="matrix(11,0,0,-11,17.622002,52)" fill="#b9474d"/>
<use data-text=" " xlink:href="#font_2_1" transform="matrix(11,0,0,-11,24.244004,52)" fill="#b9474d"/>
<use data-text=" " xlink:href="#font_2_1" transform="matrix(11,0,0,-11,30.866005,52)" fill="#b9474d"/>
<use data-text=" " xlink:href="#font_2_1" transform="matrix(11,0,0,-11,37.488008,52)" fill="#b9474d"/>
<use data-text="T" xlink:href="#font_2_53" transform="matrix(11,0,0,-11,44.11001,52)" fill="#b9474d"/>
<use data-text="h" xlink:href="#font_2_73" transform="matrix(11,0,0,-11,50.73201,52)" fill="#b9474d"/>
<use data-text="i" xlink:href="#font_2_74" transform="matrix(11,0,0,-11,57.35401,52)" fill="#b9474d"/>
<use data-text="s" xlink:href="#font_2_84" transform="matrix(11,0,0,-11,63.976015,52)" fill="#b9474d"/>
<use data-text=" " xlink:href="#font_2_1" transform="matrix(11,0,0,-11,70.598018,52)" fill="#b9474d"/>
<use data-text="a" xlink:href="#font_2_66" transform="matrix(11,0,0,-11,77.22002,52)" fill="#b9474d"/>
<use data-text="l" xlink:href="#font_2_77" transform="matrix(11,0,0,-11,83.84202,52)" fill="#b9474d"/>
<use data-text="g" xlink:href="#font_2_72" transform="matrix(11,0,0,-11,90.46402,52)" fill="#b9474d"/>
<use data-text="o" xlink:href="#font_2_80" transform="matrix(11,0,0,-11,97.08602,52)" fill="#b9474d"/>
<use data-text="r" xlink:href="#font_2_83" transform="matrix(11,0,0,-11,103.70802,52)" fill="#b9474d"/>
<use data-text="i" xlink:href="#font_2_74" transform="matrix(11,0,0,-11,110.330028,52)" fill="#b9474d"/>
<use data-text="t" xlink:href="#font_2_85" transform="matrix(11,0,0,-11,116.95203,52)" fill="#b9474d"/>
<use data-text="h" xlink:href="#font_2_73" transform="matrix(11,0,0,-11,123.57403,52)" fill="#b9474d"/>
<use data-text="m" xlink:href="#font_2_78" transform="matrix(11,0,0,-11,130.19603,52)" fill="#b9474d"/>
<use data-text=" " xlink:href="#font_2_1" transform="matrix(11,0,0,-11,136.81803,52)" fill="#b9474d"/>
<use data-text="i" xlink:href="#font_2_74" transform="matrix(11,0,0,-11,143.44002,52)" fill="#b9474d"/>
<use data-text="m" xlink:href="#font_2_78" transform="matrix(11,0,0,-11,150.06201,52)" fill="#b9474d"/>
<use data-text="p" xlink:href="#font_2_81" transform="matrix(11,0,0,-11,156.684,52)" fill="#b9474d"/>
<use data-text="l" xlink:href="#font_2_77" transform="matrix(11,0,0,-11,163.306,52)" fill="#b9474d"/>
<use data-text="e" xlink:href="#font_2_70" transform="matrix(11,0,0,-11,169.928,52)" fill="#b9474d"/>
<use data-text="m" xlink:href="#font_2_78" transform="matrix(11,0,0,-11,176.54999,52)" fill="#b9474d"/>
<use data-text="e" xlink:href="#font_2_70" transform="matrix(11,0,0,-11,183.17198,52)" fill="#b9474d"/>
<use data-text="n" xlink:href="#font_2_79" transform="matrix(11,0,0,-11,189.79398,52)" fill="#b9474d"/>
<use data-text="t" xlink:href="#font_2_85" transform="matrix(11,0,0,-11,196.41597,52)" fill="#b9474d"/>
<use data-text="s" xlink:href="#font_2_84" transform="matrix(11,0,0,-11,203.03797,52)" fill="#b9474d"/>
<use data-text=" " xlink:href="#font_2_1" transform="matrix(11,0,0,-11,209.65996,52)" fill="#b9474d"/>
<use data-text="a" xlink:href="#font_2_66" transform="matrix(11,0,0,-11,216.28195,52)" fill="#b9474d"/>
<use data-text=" " xlink:href="#font_2_1" transform="matrix(11,0,0,-11,222.90395,52)" fill="#b9474d"/>
<use data-text="s" xlink:href="#font_2_84" transform="matrix(11,0,0,-11,229.52594,52)" fill="#b9474d"/>
<use data-text="l" xlink:href="#font_2_77" transform="matrix(11,0,0,-11,236.14794,52)" fill="#b9474d"/>
<use data-text="i" xlink:href="#font_2_74" transform="matrix(11,0,0,-11,242.76993,52)" fill="#b9474d"/>
<use data-text="d" xlink:href="#font_2_69" transform="matrix(11,0,0,-11,249.39192,52)" fill="#b9474d"/>
<use data-text="i" xlink:href="#font_2_74" transform="matrix(11,0,0,-11,256.01393,52)" fill="#b9474d"/>
<use data-text="n" xlink:href="#font_2_79" transform="matrix(11,0,0,-11,262.63594,52)" fill="#b9474d"/>
<use data-text="g" xlink:href="#font_2_72" transform="matrix(11,0,0,-11,269.25794,52)" fill="#b9474d"/>
<use data-text=" " xlink:href="#font_2_1" transform="matrix(11,0,0,-11,275.87995,52)" fill="#b9474d"/>
<use data-text="w" xlink:href="#font_2_88" transform="matrix(11,0,0,-11,282.50196,52)" fill="#b9474d"/>
<use data-text="i" xlink:href="#font_2_74" transform="matrix(11,0,0,-11,289.12397,52)" fill="#b9474d"/>
<use data-text="n" xlink:href="#font_2_79" transform="matrix(11,0,0,-11,295.74598,52)" fill="#b9474d"/>
<use data-text="d" xlink:href="#font_2_69" transform="matrix(11,0,0,-11,302.36799,52)" fill="#b9474d"/>
<use data-text="o" xlink:href="#font_2_80" transform="matrix(11,0,0,-11,308.99,52)" fill="#b9474d"/>
<use data-text="w" xlink:href="#font_2_88" transform="matrix(11,0,0,-11,315.612,52)" fill="#b9474d"/>
<use data-text=" " xlink:href="#font_2_1" transform="matrix(11,0,0,-11,322.234,52)" fill="#b9474d"/>
<use data-text="a" xlink:href="#font_2_66" transform="matrix(11,0,0,-11,328.85603,52)" fill="#b9474d"/>
<use data-text="p" xlink:href="#font_2_81" transform="matrix(11,0,0,-11,335.47804,52)" fill="#b9474d"/>
<use data-text="p" xlink:href="#font_2_81" transform="matrix(11,0,0,-11,342.10005,52)" fill="#b9474d"/>
<use data-text="r" xlink:href="#font_2_83" transform="matrix(11,0,0,-11,348.72206,52)" fill="#b9474d"/>
<use data-text="o" xlink:href="#font_2_80" transform="matrix(11,0,0,-11,355.34407,52)" fill="#b9474d"/>
<use data-text="a" xlink:href="#font_2_66" transform="matrix(11,0,0,-11,361.96607,52)" fill="#b9474d"/>
<use data-text="c" xlink:href="#font_2_68" transform="matrix(11,0,0,-11,368.58808,52)" fill="#b9474d"/>
<use data-text="h" xlink:href="#font_2_73" transform="matrix(11,0,0,-11,375.21009,52)" fill="#b9474d"/>
<use data-text=" " xlink:href="#font_2_1" transform="matrix(11,0,0,-11,381.8321,52)" fill="#b9474d"/>
<use data-text="t" xlink:href="#font_2_85" transform="matrix(11,0,0,-11,388.4541,52)" fill="#b9474d"/>
<use data-text="o" xlink:href="#font_2_80" transform="matrix(11,0,0,-11,395.0761,52)" fill="#b9474d"/>
<use data-text=" " xlink:href="#font_2_1" transform="matrix(11,0,0,-11,401.69813,52)" fill="#b9474d"/>
<use data-text="f" xlink:href="#font_2_71" transform="matrix(11,0,0,-11,408.32014,52)" fill="#b9474d"/>
<use data-text="i" xlink:href="#font_2_74" transform="matrix(11,0,0,-11,414.94215,52)" fill="#b9474d"/>
<use data-text="l" xlink:href="#font_2_77" transform="matrix(11,0,0,-11,421.56416,52)" fill="#b9474d"/>
<use data-text="t" xlink:href="#font_2_85" transform="matrix(11,0,0,-11,428.18617,52)" fill="#b9474d"/>
<use data-text="e" xlink:href="#font_2_70" transform="matrix(11,0,0,-11,434.80818,52)" fill="#b9474d"/>
<use data-text="r" xlink:href="#font_2_83" transform="matrix(11,0,0,-11,441.43019,52)" fill="#b9474d"/>
<use data-text=" " xlink:href="#font_2_1" transform="matrix(11,0,0,-11,448.0522,52)" fill="#b9474d"/>
<use data-text="v" xlink:href="#font_2_87" transform="matrix(11,0,0,-11,454.6742,52)" fill="#b9474d"/>
<use data-text="o" xlink:href="#font_2_80" transform="matrix(11,0,0,-11,461.2962,52)" fill="#b9474d"/>
<use data-text="l" xlink:href="#font_2_77" transform="matrix(11,0,0,-11,467.9182,52)" fill="#b9474d"/>
<use data-text="a" xlink:href="#font_2_66" transform="matrix(11,0,0,-11,474.54023,52)" fill="#b9474d"/>
<use data-text="t" xlink:href="#font_2_85" transform="matrix(11,0,0,-11,481.16224,52)" fill="#b9474d"/>
<use data-text="i" xlink:href="#font_2_74" transform="matrix(11,0,0,-11,487.78425,52)" fill="#b9474d"/>
<use data-text="l" xlink:href="#font_2_77" transform="matrix(11,0,0,-11,494.40626,52)" fill="#b9474d"/>
<use data-text="e" xlink:href="#font_2_70" transform="matrix(11,0,0,-11,501.02827,52)" fill="#b9474d"/>
<use data-text="," xlink:href="#font_2_13" transform="matrix(11,0,0,-11,507.65028,52)" fill="#b9474d"/>
<path transform="matrix(1,0,0,-1,0,246)" d="M1 172H519V190H1Z" fill="#fff0f0" fill-rule="evenodd"/>
<use data-text="-" xlink:href="#font_2_14" transform="matrix(11,0,0,-11,11,70)" fill="#b9474d"/>
<use data-text=" " xlink:href="#font_2_1" transform="matrix(11,0,0,-11,17.622002,70)" fill="#b9474d"/>
<use data-text=" " xlink:href="#font_2_1" transform="matrix(11,0,0,-11,24.244004,70)" fill="#b9474d"/>
<use data-text=" " xlink:href="#font_2_1" transform="matrix(11,0,0,-11,30.866005,70)" fill="#b9474d"/>
<use data-text=" " xlink:href="#font_2_1" transform="matrix(11,0,0,-11,37.488008,70)" fill="#b9474d"/>
<use data-text="n" xlink:href="#font_2_79" transform="matrix(11,0,0,-11,44.11001,70)" fill="#b9474d"/>
<use data-text="o" xlink:href="#font_2_80" transform="matrix(11,0,0,-11,50.73201,70)" fill="#b9474d"/>
<use data-text="n" xlink:href="#font_2_79" transform="matrix(11,0,0,-11,57.35401,70)" fill="#b9474d"/>
<use data-text="-" xlink:href="#font_2_14" transform="matrix(11,0,0,-11,63.976015,70)" fill="#b9474d"/>
<use data-text="s" xlink:href="#font_2_84" transform="matrix(11,0,0,-11,70.598018,70)" fill="#b9474d"/>
<use data-text="t" xlink:href="#font_2_85" transform="matrix(11,0,0,-11,77.22002,70)" fill="#b9474d"/>
<use data-text="a" xlink:href="#font_2_66" transform="matrix(11,0,0,-11,83.84202,70)" fill="#b9474d"/>
<use data-text="t" xlink:href="#font_2_85" transform="matrix(11,0,0,-11,90.46402,70)" fill="#b9474d"/>
<use data-text="i" xlink:href="#font_2_74" transform="matrix(11,0,0,-11,97.08602,70)" fill="#b9474d"/>
<use data-text="o" xlink:href="#font_2_80" transform="matrix(11,0,0,-11,103.70802,70)" fill="#b9474d"/>
<use data-text="n" xlink:href="#font_2_79" transform="matrix(11,0,0,-11,110.330028,70)" fill="#b9474d"/>
<use data-text="a" xlink:href="#font_2_66" transform="matrix(11,0,0,-11,116.95203,70)" fill="#b9474d"/>
<use data-text="r" xlink:href="#font_2_83" transform="matrix(11,0,0,-11,123.57403,70)" fill="#b9474d"/>
<use data-text="y" xlink:href="#font_2_90" transform="matrix(11,0,0,-11,130.19603,70)" fill="#b9474d"/>
<use data-text=" " xlink:href="#font_2_1" transform="matrix(11,0,0,-11,136.81803,70)" fill="#b9474d"/>
<use data-text="t" xlink:href="#font_2_85" transform="matrix(11,0,0,-11,143.44002,70)" fill="#b9474d"/>
<use data-text="i" xlink:href="#font_2_74" transform="matrix(11,0,0,-11,150.06201,70)" fill="#b9474d"/>
<use data-text="m" xlink:href="#font_2_78" transform="matrix(11,0,0,-11,156.684,70)" fill="#b9474d"/>
<use data-text="e" xlink:href="#font_2_70" transform="matrix(11,0,0,-11,163.306,70)" fill="#b9474d"/>
<use data-text=" " xlink:href="#font_2_1" transform="matrix(11,0,0,-11,169.928,70)" fill="#b9474d"/>
<use data-text="s" xlink:href="#font_2_84" transform="matrix(11,0,0,-11,176.54999,70)" fill="#b9474d"/>
<use data-text="e" xlink:href="#font_2_70" transform="matrix(11,0,0,-11,183.17198,70)" fill="#b9474d"/>
<use data-text="r" xlink:href="#font_2_83" transform="matrix(11,0,0,-11,189.79398,70)" fill="#b9474d"/>
<use data-text="i" xlink:href="#font_2_74" transform="matrix(11,0,0,-11,196.41597,70)" fill="#b9474d"/>
<use data-text="e" xlink:href="#font_2_70" transform="matrix(11,0,0,-11,203.03797,70)" fill="#b9474d"/>
<use data-text="s" xlink:href="#font_2_84" transform="matrix(11,0,0,-11,209.65996,70)" fill="#b9474d"/>
<use data-text=" " xlink:href="#font_2_1" transform="matrix(11,0,0,-11,216.28195,70)" fill="#b9474d"/>
<use data-text="d" xlink:href="#font_2_69" transform="matrix(11,0,0,-11,222.90395,70)" fill="#b9474d"/>
<use data-text="a" xlink:href="#font_2_66" transform="matrix(11,0,0,-11,229.52594,70)" fill="#b9474d"/>
<use data-text="t" xlink:href="#font_2_85" transform="matrix(11,0,0,-11,236.14794,70)" fill="#b9474d"/>
<use data-text="a" xlink:href="#font_2_66" transform="matrix(11,0,0,-11,242.76993,70)" fill="#b9474d"/>
<use data-text=" " xlink:href="#font_2_1" transform="matrix(11,0,0,-11,249.39192,70)" fill="#b9474d"/>
<use data-text="w" xlink:href="#font_2_88" transform="matrix(11,0,0,-11,256.01393,70)" fill="#b9474d"/>
<use data-text="h" xlink:href="#font_2_73" transform="matrix(11,0,0,-11,262.63594,70)" fill="#b9474d"/>
<use data-text="i" xlink:href="#font_2_74" transform="matrix(11,0,0,-11,269.25794,70)" fill="#b9474d"/>
<use data-text="l" xlink:href="#font_2_77" transform="matrix(11,0,0,-11,275.87995,70)" fill="#b9474d"/>
<use data-text="e" xlink:href="#font_2_70" transform="matrix(11,0,0,-11,282.50196,70)" fill="#b9474d"/>
<use data-text=" " xlink:href="#font_2_1" transform="matrix(11,0,0,-11,289.12397,70)" fill="#b9474d"/>
<use data-text="m" xlink:href="#font_2_78" transform="matrix(11,0,0,-11,295.74598,70)" fill="#b9474d"/>
<use data-text="i" xlink:href="#font_2_74" transform="matrix(11,0,0,-11,302.36799,70)" fill="#b9474d"/>
<use data-text="n" xlink:href="#font_2_79" transform="matrix(11,0,0,-11,308.99,70)" fill="#b9474d"/>
<use data-text="i" xlink:href="#font_2_74" transform="matrix(11,0,0,-11,315.612,70)" fill="#b9474d"/>
<use data-text="m" xlink:href="#font_2_78" transform="matrix(11,0,0,-11,322.234,70)" fill="#b9474d"/>
<use data-text="i" xlink:href="#font_2_74" transform="matrix(11,0,0,-11,328.85603,70)" fill="#b9474d"/>
<use data-text="z" xlink:href="#font_2_91" transform="matrix(11,0,0,-11,335.47804,70)" fill="#b9474d"/>
<use data-text="i" xlink:href="#font_2_74" transform="matrix(11,0,0,-11,342.10005,70)" fill="#b9474d"/>
<use data-text="n" xlink:href="#font_2_79" transform="matrix(11,0,0,-11,348.72206,70)" fill="#b9474d"/>
<use data-text="g" xlink:href="#font_2_72" transform="matrix(11,0,0,-11,355.34407,70)" fill="#b9474d"/>
<use data-text=" " xlink:href="#font_2_1" transform="matrix(11,0,0,-11,361.96607,70)" fill="#b9474d"/>
<use data-text="n" xlink:href="#font_2_79" transform="matrix(11,0,0,-11,368.58808,70)" fill="#b9474d"/>
<use data-text="o" xlink:href="#font_2_80" transform="matrix(11,0,0,-11,375.21009,70)" fill="#b9474d"/>
<use data-text="i" xlink:href="#font_2_74" transform="matrix(11,0,0,-11,381.8321,70)" fill="#b9474d"/>
<use data-text="s" xlink:href="#font_2_84" transform="matrix(11,0,0,-11,388.4541,70)" fill="#b9474d"/>
<use data-text="e" xlink:href="#font_2_70" transform="matrix(11,0,0,-11,395.0761,70)" fill="#b9474d"/>
<path transform="matrix(1,0,0,-1,0,246)" d="M1 154H519V172H1Z" fill="#fff0f0" fill-rule="evenodd"/>
<use data-text="-" xlink:href="#font_2_14" transform="matrix(11,0,0,-11,11,88)" fill="#b9474d"/>
<use data-text=" " xlink:href="#font_2_1" transform="matrix(11,0,0,-11,17.622002,88)" fill="#b9474d"/>
<use data-text=" " xlink:href="#font_2_1" transform="matrix(11,0,0,-11,24.244004,88)" fill="#b9474d"/>
<use data-text=" " xlink:href="#font_2_1" transform="matrix(11,0,0,-11,30.866005,88)" fill="#b9474d"/>
<use data-text=" " xlink:href="#font_2_1" transform="matrix(11,0,0,-11,37.488008,88)" fill="#b9474d"/>
<use data-text="a" xlink:href="#font_2_66" transform="matrix(11,0,0,-11,44.11001,88)" fill="#b9474d"/>
<use data-text="n" xlink:href="#font_2_79" transform="matrix(11,0,0,-11,50.73201,88)" fill="#b9474d"/>
<use data-text="d" xlink:href="#font_2_69" transform="matrix(11,0,0,-11,57.35401,88)" fill="#b9474d"/>
<use data-text=" " xlink:href="#font_2_1" transform="matrix(11,0,0,-11,63.976015,88)" fill="#b9474d"/>
<use data-text="p" xlink:href="#font_2_81" transform="matrix(11,0,0,-11,70.598018,88)" fill="#b9474d"/>
<use data-text="r" xlink:href="#font_2_83" transform="matrix(11,0,0,-11,77.22002,88)" fill="#b9474d"/>
<use data-text="e" xlink:href="#font_2_70" transform="matrix(11,0,0,-11,83.84202,88)" fill="#b9474d"/>
<use data-text="s" xlink:href="#font_2_84" transform="matrix(11,0,0,-11,90.46402,88)" fill="#b9474d"/>
<use data-text="e" xlink:href="#font_2_70" transform="matrix(11,0,0,-11,97.08602,88)" fill="#b9474d"/>
<use data-text="r" xlink:href="#font_2_83" transform="matrix(11,0,0,-11,103.70802,88)" fill="#b9474d"/>
<use data-text="v" xlink:href="#font_2_87" transform="matrix(11,0,0,-11,110.330028,88)" fill="#b9474d"/>
<use data-text="i" xlink:href="#font_2_74" transform="matrix(11,0,0,-11,116.95203,88)" fill="#b9474d"/>
<use data-text="n" xlink:href="#font_2_79" transform="matrix(11,0,0,-11,123.57403,88)" fill="#b9474d"/>
<use data-text="g" xlink:href="#font_2_72" transform="matrix(11,0,0,-11,130.19603,88)" fill="#b9474d"/>
<use data-text=" " xlink:href="#font_2_1" transform="matrix(11,0,0,-11,136.81803,88)" fill="#b9474d"/>
<use data-text="s" xlink:href="#font_2_84" transform="matrix(11,0,0,-11,143.44002,88)" fill="#b9474d"/>
<use data-text="i" xlink:href="#font_2_74" transform="matrix(11,0,0,-11,150.06201,88)" fill="#b9474d"/>
<use data-text="g" xlink:href="#font_2_72" transform="matrix(11,0,0,-11,156.684,88)" fill="#b9474d"/>
<use data-text="n" xlink:href="#font_2_79" transform="matrix(11,0,0,-11,163.306,88)" fill="#b9474d"/>
<use data-text="a" xlink:href="#font_2_66" transform="matrix(11,0,0,-11,169.928,88)" fill="#b9474d"/>
<use data-text="l" xlink:href="#font_2_77" transform="matrix(11,0,0,-11,176.54999,88)" fill="#b9474d"/>
<use data-text=" " xlink:href="#font_2_1" transform="matrix(11,0,0,-11,183.17198,88)" fill="#b9474d"/>
<use data-text="d" xlink:href="#font_2_69" transform="matrix(11,0,0,-11,189.79398,88)" fill="#b9474d"/>
<use data-text="y" xlink:href="#font_2_90" transform="matrix(11,0,0,-11,196.41597,88)" fill="#b9474d"/>
<use data-text="n" xlink:href="#font_2_79" transform="matrix(11,0,0,-11,203.03797,88)" fill="#b9474d"/>
<use data-text="a" xlink:href="#font_2_66" transform="matrix(11,0,0,-11,209.65996,88)" fill="#b9474d"/>
<use data-text="m" xlink:href="#font_2_78" transform="matrix(11,0,0,-11,216.28195,88)" fill="#b9474d"/>
<use data-text="i" xlink:href="#font_2_74" transform="matrix(11,0,0,-11,222.90395,88)" fill="#b9474d"/>
<use data-text="c" xlink:href="#font_2_68" transform="matrix(11,0,0,-11,229.52594,88)" fill="#b9474d"/>
<use data-text="s" xlink:href="#font_2_84" transform="matrix(11,0,0,-11,236.14794,88)" fill="#b9474d"/>
<use data-text="." xlink:href="#font_2_15" transform="matrix(11,0,0,-11,242.76993,88)" fill="#b9474d"/>
<path transform="matrix(1,0,0,-1,0,246)" d="M1 136H519V154H1Z" fill="#edf9f1" fill-rule="evenodd"/>
<use data-text="+" xlink:href="#font_2_12" transform="matrix(11,0,0,-11,11,106)" fill="#23824a"/>
<use data-text=" " xlink:href="#font_2_1" transform="matrix(11,0,0,-11,17.622002,106)" fill="#23824a"/>
<use data-text=" " xlink:href="#font_2_1" transform="matrix(11,0,0,-11,24.244004,106)" fill="#23824a"/>
<use data-text=" " xlink:href="#font_2_1" transform="matrix(11,0,0,-11,30.866005,106)" fill="#23824a"/>
<use data-text=" " xlink:href="#font_2_1" transform="matrix(11,0,0,-11,37.488008,106)" fill="#23824a"/>
<use data-text="T" xlink:href="#font_2_53" transform="matrix(11,0,0,-11,44.11001,106)" fill="#23824a"/>
<use data-text="h" xlink:href="#font_2_73" transform="matrix(11,0,0,-11,50.73201,106)" fill="#23824a"/>
<use data-text="i" xlink:href="#font_2_74" transform="matrix(11,0,0,-11,57.35401,106)" fill="#23824a"/>
<use data-text="s" xlink:href="#font_2_84" transform="matrix(11,0,0,-11,63.976015,106)" fill="#23824a"/>
<use data-text=" " xlink:href="#font_2_1" transform="matrix(11,0,0,-11,70.598018,106)" fill="#23824a"/>
<use data-text="a" xlink:href="#font_2_66" transform="matrix(11,0,0,-11,77.22002,106)" fill="#23824a"/>
<use data-text="l" xlink:href="#font_2_77" transform="matrix(11,0,0,-11,83.84202,106)" fill="#23824a"/>
<use data-text="g" xlink:href="#font_2_72" transform="matrix(11,0,0,-11,90.46402,106)" fill="#23824a"/>
<use data-text="o" xlink:href="#font_2_80" transform="matrix(11,0,0,-11,97.08602,106)" fill="#23824a"/>
<use data-text="r" xlink:href="#font_2_83" transform="matrix(11,0,0,-11,103.70802,106)" fill="#23824a"/>
<use data-text="i" xlink:href="#font_2_74" transform="matrix(11,0,0,-11,110.330028,106)" fill="#23824a"/>
<use data-text="t" xlink:href="#font_2_85" transform="matrix(11,0,0,-11,116.95203,106)" fill="#23824a"/>
<use data-text="h" xlink:href="#font_2_73" transform="matrix(11,0,0,-11,123.57403,106)" fill="#23824a"/>
<use data-text="m" xlink:href="#font_2_78" transform="matrix(11,0,0,-11,130.19603,106)" fill="#23824a"/>
<use data-text=" " xlink:href="#font_2_1" transform="matrix(11,0,0,-11,136.81803,106)" fill="#23824a"/>
<use data-text="i" xlink:href="#font_2_74" transform="matrix(11,0,0,-11,143.44002,106)" fill="#23824a"/>
<use data-text="m" xlink:href="#font_2_78" transform="matrix(11,0,0,-11,150.06201,106)" fill="#23824a"/>
<use data-text="p" xlink:href="#font_2_81" transform="matrix(11,0,0,-11,156.684,106)" fill="#23824a"/>
<use data-text="l" xlink:href="#font_2_77" transform="matrix(11,0,0,-11,163.306,106)" fill="#23824a"/>
<use data-text="e" xlink:href="#font_2_70" transform="matrix(11,0,0,-11,169.928,106)" fill="#23824a"/>
<use data-text="m" xlink:href="#font_2_78" transform="matrix(11,0,0,-11,176.54999,106)" fill="#23824a"/>
<use data-text="e" xlink:href="#font_2_70" transform="matrix(11,0,0,-11,183.17198,106)" fill="#23824a"/>
<use data-text="n" xlink:href="#font_2_79" transform="matrix(11,0,0,-11,189.79398,106)" fill="#23824a"/>
<use data-text="t" xlink:href="#font_2_85" transform="matrix(11,0,0,-11,196.41597,106)" fill="#23824a"/>
<use data-text="s" xlink:href="#font_2_84" transform="matrix(11,0,0,-11,203.03797,106)" fill="#23824a"/>
<use data-text=" " xlink:href="#font_2_1" transform="matrix(11,0,0,-11,209.65996,106)" fill="#23824a"/>
<use data-text="d" xlink:href="#font_2_69" transform="matrix(11,0,0,-11,216.28195,106)" fill="#23824a"/>
<use data-text="o" xlink:href="#font_2_80" transform="matrix(11,0,0,-11,222.90395,106)" fill="#23824a"/>
<use data-text="u" xlink:href="#font_2_86" transform="matrix(11,0,0,-11,229.52594,106)" fill="#23824a"/>
<use data-text="b" xlink:href="#font_2_67" transform="matrix(11,0,0,-11,236.14794,106)" fill="#23824a"/>
<use data-text="l" xlink:href="#font_2_77" transform="matrix(11,0,0,-11,242.76993,106)" fill="#23824a"/>
<use data-text="e" xlink:href="#font_2_70" transform="matrix(11,0,0,-11,249.39192,106)" fill="#23824a"/>
<use data-text=" " xlink:href="#font_2_1" transform="matrix(11,0,0,-11,256.01393,106)" fill="#23824a"/>
<use data-text="e" xlink:href="#font_2_70" transform="matrix(11,0,0,-11,262.63594,106)" fill="#23824a"/>
<use data-text="x" xlink:href="#font_2_89" transform="matrix(11,0,0,-11,269.25794,106)" fill="#23824a"/>
<use data-text="p" xlink:href="#font_2_81" transform="matrix(11,0,0,-11,275.87995,106)" fill="#23824a"/>
<use data-text="o" xlink:href="#font_2_80" transform="matrix(11,0,0,-11,282.50196,106)" fill="#23824a"/>
<use data-text="n" xlink:href="#font_2_79" transform="matrix(11,0,0,-11,289.12397,106)" fill="#23824a"/>
<use data-text="e" xlink:href="#font_2_70" transform="matrix(11,0,0,-11,295.74598,106)" fill="#23824a"/>
<use data-text="n" xlink:href="#font_2_79" transform="matrix(11,0,0,-11,302.36799,106)" fill="#23824a"/>
<use data-text="t" xlink:href="#font_2_85" transform="matrix(11,0,0,-11,308.99,106)" fill="#23824a"/>
<use data-text="i" xlink:href="#font_2_74" transform="matrix(11,0,0,-11,315.612,106)" fill="#23824a"/>
<use data-text="a" xlink:href="#font_2_66" transform="matrix(11,0,0,-11,322.234,106)" fill="#23824a"/>
<use data-text="l" xlink:href="#font_2_77" transform="matrix(11,0,0,-11,328.85603,106)" fill="#23824a"/>
<use data-text=" " xlink:href="#font_2_1" transform="matrix(11,0,0,-11,335.47804,106)" fill="#23824a"/>
<use data-text="s" xlink:href="#font_2_84" transform="matrix(11,0,0,-11,342.10005,106)" fill="#23824a"/>
<use data-text="m" xlink:href="#font_2_78" transform="matrix(11,0,0,-11,348.72206,106)" fill="#23824a"/>
<use data-text="o" xlink:href="#font_2_80" transform="matrix(11,0,0,-11,355.34407,106)" fill="#23824a"/>
<use data-text="o" xlink:href="#font_2_80" transform="matrix(11,0,0,-11,361.96607,106)" fill="#23824a"/>
<use data-text="t" xlink:href="#font_2_85" transform="matrix(11,0,0,-11,368.58808,106)" fill="#23824a"/>
<use data-text="h" xlink:href="#font_2_73" transform="matrix(11,0,0,-11,375.21009,106)" fill="#23824a"/>
<use data-text="i" xlink:href="#font_2_74" transform="matrix(11,0,0,-11,381.8321,106)" fill="#23824a"/>
<use data-text="n" xlink:href="#font_2_79" transform="matrix(11,0,0,-11,388.4541,106)" fill="#23824a"/>
<use data-text="g" xlink:href="#font_2_72" transform="matrix(11,0,0,-11,395.0761,106)" fill="#23824a"/>
<use data-text=" " xlink:href="#font_2_1" transform="matrix(11,0,0,-11,401.69813,106)" fill="#23824a"/>
<use data-text="(" xlink:href="#font_2_9" transform="matrix(11,0,0,-11,408.32014,106)" fill="#23824a"/>
<use data-text="H" xlink:href="#font_2_41" transform="matrix(11,0,0,-11,414.94215,106)" fill="#23824a"/>
<use data-text="o" xlink:href="#font_2_80" transform="matrix(11,0,0,-11,421.56416,106)" fill="#23824a"/>
<use data-text="l" xlink:href="#font_2_77" transform="matrix(11,0,0,-11,428.18617,106)" fill="#23824a"/>
<use data-text="t" xlink:href="#font_2_85" transform="matrix(11,0,0,-11,434.80818,106)" fill="#23824a"/>
<use data-text="'" xlink:href="#font_2_8" transform="matrix(11,0,0,-11,441.43019,106)" fill="#23824a"/>
<use data-text="s" xlink:href="#font_2_84" transform="matrix(11,0,0,-11,448.0522,106)" fill="#23824a"/>
<use data-text=" " xlink:href="#font_2_1" transform="matrix(11,0,0,-11,454.6742,106)" fill="#23824a"/>
<use data-text="m" xlink:href="#font_2_78" transform="matrix(11,0,0,-11,461.2962,106)" fill="#23824a"/>
<use data-text="e" xlink:href="#font_2_70" transform="matrix(11,0,0,-11,467.9182,106)" fill="#23824a"/>
<use data-text="t" xlink:href="#font_2_85" transform="matrix(11,0,0,-11,474.54023,106)" fill="#23824a"/>
<use data-text="h" xlink:href="#font_2_73" transform="matrix(11,0,0,-11,481.16224,106)" fill="#23824a"/>
<use data-text="o" xlink:href="#font_2_80" transform="matrix(11,0,0,-11,487.78425,106)" fill="#23824a"/>
<use data-text="d" xlink:href="#font_2_69" transform="matrix(11,0,0,-11,494.40626,106)" fill="#23824a"/>
<use data-text=")" xlink:href="#font_2_10" transform="matrix(11,0,0,-11,501.02827,106)" fill="#23824a"/>
<path transform="matrix(1,0,0,-1,0,246)" d="M1 118H519V136H1Z" fill="#edf9f1" fill-rule="evenodd"/>
<use data-text="+" xlink:href="#font_2_12" transform="matrix(11,0,0,-11,11,124)" fill="#23824a"/>
<use data-text=" " xlink:href="#font_2_1" transform="matrix(11,0,0,-11,17.622002,124)" fill="#23824a"/>
<use data-text=" " xlink:href="#font_2_1" transform="matrix(11,0,0,-11,24.244004,124)" fill="#23824a"/>
<use data-text=" " xlink:href="#font_2_1" transform="matrix(11,0,0,-11,30.866005,124)" fill="#23824a"/>
<use data-text=" " xlink:href="#font_2_1" transform="matrix(11,0,0,-11,37.488008,124)" fill="#23824a"/>
<use data-text="w" xlink:href="#font_2_88" transform="matrix(11,0,0,-11,44.11001,124)" fill="#23824a"/>
<use data-text="i" xlink:href="#font_2_74" transform="matrix(11,0,0,-11,50.73201,124)" fill="#23824a"/>
<use data-text="t" xlink:href="#font_2_85" transform="matrix(11,0,0,-11,57.35401,124)" fill="#23824a"/>
<use data-text="h" xlink:href="#font_2_73" transform="matrix(11,0,0,-11,63.976015,124)" fill="#23824a"/>
<use data-text=" " xlink:href="#font_2_1" transform="matrix(11,0,0,-11,70.598018,124)" fill="#23824a"/>
<use data-text="a" xlink:href="#font_2_66" transform="matrix(11,0,0,-11,77.22002,124)" fill="#23824a"/>
<use data-text=" " xlink:href="#font_2_1" transform="matrix(11,0,0,-11,83.84202,124)" fill="#23824a"/>
<use data-text="t" xlink:href="#font_2_85" transform="matrix(11,0,0,-11,90.46402,124)" fill="#23824a"/>
<use data-text="r" xlink:href="#font_2_83" transform="matrix(11,0,0,-11,97.08602,124)" fill="#23824a"/>
<use data-text="e" xlink:href="#font_2_70" transform="matrix(11,0,0,-11,103.70802,124)" fill="#23824a"/>
<use data-text="n" xlink:href="#font_2_79" transform="matrix(11,0,0,-11,110.330028,124)" fill="#23824a"/>
<use data-text="d" xlink:href="#font_2_69" transform="matrix(11,0,0,-11,116.95203,124)" fill="#23824a"/>
<use data-text="-" xlink:href="#font_2_14" transform="matrix(11,0,0,-11,123.57403,124)" fill="#23824a"/>
<use data-text="l" xlink:href="#font_2_77" transform="matrix(11,0,0,-11,130.19603,124)" fill="#23824a"/>
<use data-text="o" xlink:href="#font_2_80" transform="matrix(11,0,0,-11,136.81803,124)" fill="#23824a"/>
<use data-text="c" xlink:href="#font_2_68" transform="matrix(11,0,0,-11,143.44002,124)" fill="#23824a"/>
<use data-text="k" xlink:href="#font_2_76" transform="matrix(11,0,0,-11,150.06201,124)" fill="#23824a"/>
<use data-text="i" xlink:href="#font_2_74" transform="matrix(11,0,0,-11,156.684,124)" fill="#23824a"/>
<use data-text="n" xlink:href="#font_2_79" transform="matrix(11,0,0,-11,163.306,124)" fill="#23824a"/>
<use data-text="g" xlink:href="#font_2_72" transform="matrix(11,0,0,-11,169.928,124)" fill="#23824a"/>
<use data-text=" " xlink:href="#font_2_1" transform="matrix(11,0,0,-11,176.54999,124)" fill="#23824a"/>
<use data-text="h" xlink:href="#font_2_73" transform="matrix(11,0,0,-11,183.17198,124)" fill="#23824a"/>
<use data-text="y" xlink:href="#font_2_90" transform="matrix(11,0,0,-11,189.79398,124)" fill="#23824a"/>
<use data-text="s" xlink:href="#font_2_84" transform="matrix(11,0,0,-11,196.41597,124)" fill="#23824a"/>
<use data-text="t" xlink:href="#font_2_85" transform="matrix(11,0,0,-11,203.03797,124)" fill="#23824a"/>
<use data-text="e" xlink:href="#font_2_70" transform="matrix(11,0,0,-11,209.65996,124)" fill="#23824a"/>
<use data-text="r" xlink:href="#font_2_83" transform="matrix(11,0,0,-11,216.28195,124)" fill="#23824a"/>
<use data-text="e" xlink:href="#font_2_70" transform="matrix(11,0,0,-11,222.90395,124)" fill="#23824a"/>
<use data-text="s" xlink:href="#font_2_84" transform="matrix(11,0,0,-11,229.52594,124)" fill="#23824a"/>
<use data-text="i" xlink:href="#font_2_74" transform="matrix(11,0,0,-11,236.14794,124)" fill="#23824a"/>
<use data-text="s" xlink:href="#font_2_84" transform="matrix(11,0,0,-11,242.76993,124)" fill="#23824a"/>
<use data-text=" " xlink:href="#font_2_1" transform="matrix(11,0,0,-11,249.39192,124)" fill="#23824a"/>
<use data-text="m" xlink:href="#font_2_78" transform="matrix(11,0,0,-11,256.01393,124)" fill="#23824a"/>
<use data-text="e" xlink:href="#font_2_70" transform="matrix(11,0,0,-11,262.63594,124)" fill="#23824a"/>
<use data-text="c" xlink:href="#font_2_68" transform="matrix(11,0,0,-11,269.25794,124)" fill="#23824a"/>
<use data-text="h" xlink:href="#font_2_73" transform="matrix(11,0,0,-11,275.87995,124)" fill="#23824a"/>
<use data-text="a" xlink:href="#font_2_66" transform="matrix(11,0,0,-11,282.50196,124)" fill="#23824a"/>
<use data-text="n" xlink:href="#font_2_79" transform="matrix(11,0,0,-11,289.12397,124)" fill="#23824a"/>
<use data-text="i" xlink:href="#font_2_74" transform="matrix(11,0,0,-11,295.74598,124)" fill="#23824a"/>
<use data-text="s" xlink:href="#font_2_84" transform="matrix(11,0,0,-11,302.36799,124)" fill="#23824a"/>
<use data-text="m" xlink:href="#font_2_78" transform="matrix(11,0,0,-11,308.99,124)" fill="#23824a"/>
<use data-text=" " xlink:href="#font_2_1" transform="matrix(11,0,0,-11,315.612,124)" fill="#23824a"/>
<use data-text="t" xlink:href="#font_2_85" transform="matrix(11,0,0,-11,322.234,124)" fill="#23824a"/>
<use data-text="h" xlink:href="#font_2_73" transform="matrix(11,0,0,-11,328.85603,124)" fill="#23824a"/>
<use data-text="a" xlink:href="#font_2_66" transform="matrix(11,0,0,-11,335.47804,124)" fill="#23824a"/>
<use data-text="t" xlink:href="#font_2_85" transform="matrix(11,0,0,-11,342.10005,124)" fill="#23824a"/>
<use data-text=" " xlink:href="#font_2_1" transform="matrix(11,0,0,-11,348.72206,124)" fill="#23824a"/>
<use data-text="p" xlink:href="#font_2_81" transform="matrix(11,0,0,-11,355.34407,124)" fill="#23824a"/>
<use data-text="r" xlink:href="#font_2_83" transform="matrix(11,0,0,-11,361.96607,124)" fill="#23824a"/>
<use data-text="e" xlink:href="#font_2_70" transform="matrix(11,0,0,-11,368.58808,124)" fill="#23824a"/>
<use data-text="v" xlink:href="#font_2_87" transform="matrix(11,0,0,-11,375.21009,124)" fill="#23824a"/>
<use data-text="e" xlink:href="#font_2_70" transform="matrix(11,0,0,-11,381.8321,124)" fill="#23824a"/>
<use data-text="n" xlink:href="#font_2_79" transform="matrix(11,0,0,-11,388.4541,124)" fill="#23824a"/>
<use data-text="t" xlink:href="#font_2_85" transform="matrix(11,0,0,-11,395.0761,124)" fill="#23824a"/>
<use data-text="s" xlink:href="#font_2_84" transform="matrix(11,0,0,-11,401.69813,124)" fill="#23824a"/>
<use data-text=" " xlink:href="#font_2_1" transform="matrix(11,0,0,-11,408.32014,124)" fill="#23824a"/>
<use data-text="s" xlink:href="#font_2_84" transform="matrix(11,0,0,-11,414.94215,124)" fill="#23824a"/>
<use data-text="p" xlink:href="#font_2_81" transform="matrix(11,0,0,-11,421.56416,124)" fill="#23824a"/>
<use data-text="u" xlink:href="#font_2_86" transform="matrix(11,0,0,-11,428.18617,124)" fill="#23824a"/>
<use data-text="r" xlink:href="#font_2_83" transform="matrix(11,0,0,-11,434.80818,124)" fill="#23824a"/>
<use data-text="i" xlink:href="#font_2_74" transform="matrix(11,0,0,-11,441.43019,124)" fill="#23824a"/>
<use data-text="o" xlink:href="#font_2_80" transform="matrix(11,0,0,-11,448.0522,124)" fill="#23824a"/>
<use data-text="u" xlink:href="#font_2_86" transform="matrix(11,0,0,-11,454.6742,124)" fill="#23824a"/>
<use data-text="s" xlink:href="#font_2_84" transform="matrix(11,0,0,-11,461.2962,124)" fill="#23824a"/>
<path transform="matrix(1,0,0,-1,0,246)" d="M1 100H519V118H1Z" fill="#edf9f1" fill-rule="evenodd"/>
<use data-text="+" xlink:href="#font_2_12" transform="matrix(11,0,0,-11,11,142)" fill="#23824a"/>
<use data-text=" " xlink:href="#font_2_1" transform="matrix(11,0,0,-11,17.622002,142)" fill="#23824a"/>
<use data-text=" " xlink:href="#font_2_1" transform="matrix(11,0,0,-11,24.244004,142)" fill="#23824a"/>
<use data-text=" " xlink:href="#font_2_1" transform="matrix(11,0,0,-11,30.866005,142)" fill="#23824a"/>
<use data-text=" " xlink:href="#font_2_1" transform="matrix(11,0,0,-11,37.488008,142)" fill="#23824a"/>
<use data-text="d" xlink:href="#font_2_69" transform="matrix(11,0,0,-11,44.11001,142)" fill="#23824a"/>
<use data-text="i" xlink:href="#font_2_74" transform="matrix(11,0,0,-11,50.73201,142)" fill="#23824a"/>
<use data-text="r" xlink:href="#font_2_83" transform="matrix(11,0,0,-11,57.35401,142)" fill="#23824a"/>
<use data-text="e" xlink:href="#font_2_70" transform="matrix(11,0,0,-11,63.976015,142)" fill="#23824a"/>
<use data-text="c" xlink:href="#font_2_68" transform="matrix(11,0,0,-11,70.598018,142)" fill="#23824a"/>
<use data-text="t" xlink:href="#font_2_85" transform="matrix(11,0,0,-11,77.22002,142)" fill="#23824a"/>
<use data-text="i" xlink:href="#font_2_74" transform="matrix(11,0,0,-11,83.84202,142)" fill="#23824a"/>
<use data-text="o" xlink:href="#font_2_80" transform="matrix(11,0,0,-11,90.46402,142)" fill="#23824a"/>
<use data-text="n" xlink:href="#font_2_79" transform="matrix(11,0,0,-11,97.08602,142)" fill="#23824a"/>
<use data-text="a" xlink:href="#font_2_66" transform="matrix(11,0,0,-11,103.70802,142)" fill="#23824a"/>
<use data-text="l" xlink:href="#font_2_77" transform="matrix(11,0,0,-11,110.330028,142)" fill="#23824a"/>
<use data-text=" " xlink:href="#font_2_1" transform="matrix(11,0,0,-11,116.95203,142)" fill="#23824a"/>
<use data-text="r" xlink:href="#font_2_83" transform="matrix(11,0,0,-11,123.57403,142)" fill="#23824a"/>
<use data-text="e" xlink:href="#font_2_70" transform="matrix(11,0,0,-11,130.19603,142)" fill="#23824a"/>
<use data-text="v" xlink:href="#font_2_87" transform="matrix(11,0,0,-11,136.81803,142)" fill="#23824a"/>
<use data-text="e" xlink:href="#font_2_70" transform="matrix(11,0,0,-11,143.44002,142)" fill="#23824a"/>
<use data-text="r" xlink:href="#font_2_83" transform="matrix(11,0,0,-11,150.06201,142)" fill="#23824a"/>
<use data-text="s" xlink:href="#font_2_84" transform="matrix(11,0,0,-11,156.684,142)" fill="#23824a"/>
<use data-text="a" xlink:href="#font_2_66" transform="matrix(11,0,0,-11,163.306,142)" fill="#23824a"/>
<use data-text="l" xlink:href="#font_2_77" transform="matrix(11,0,0,-11,169.928,142)" fill="#23824a"/>
<use data-text="s" xlink:href="#font_2_84" transform="matrix(11,0,0,-11,176.54999,142)" fill="#23824a"/>
<use data-text="." xlink:href="#font_2_15" transform="matrix(11,0,0,-11,183.17198,142)" fill="#23824a"/>
<use data-text="." xlink:href="#font_2_15" transform="matrix(11,0,0,-11,11,160)" fill="#111111"/>
<use data-text="." xlink:href="#font_2_15" transform="matrix(11,0,0,-11,17.622002,160)" fill="#111111"/>
<use data-text="." xlink:href="#font_2_15" transform="matrix(11,0,0,-11,24.244004,160)" fill="#111111"/>
<path transform="matrix(1,0,0,-1,0,246)" d="M1 64H519V82H1Z" fill="#fff0f0" fill-rule="evenodd"/>
<use data-text="-" xlink:href="#font_2_14" transform="matrix(11,0,0,-11,11,178)" fill="#b9474d"/>
<use data-text=" " xlink:href="#font_2_1" transform="matrix(11,0,0,-11,17.622002,178)" fill="#b9474d"/>
<use data-text=" " xlink:href="#font_2_1" transform="matrix(11,0,0,-11,24.244004,178)" fill="#b9474d"/>
<use data-text=" " xlink:href="#font_2_1" transform="matrix(11,0,0,-11,30.866005,178)" fill="#b9474d"/>
<use data-text=" " xlink:href="#font_2_1" transform="matrix(11,0,0,-11,37.488008,178)" fill="#b9474d"/>
<use data-text=" " xlink:href="#font_2_1" transform="matrix(11,0,0,-11,44.11001,178)" fill="#b9474d"/>
<use data-text=" " xlink:href="#font_2_1" transform="matrix(11,0,0,-11,50.73201,178)" fill="#b9474d"/>
<use data-text=" " xlink:href="#font_2_1" transform="matrix(11,0,0,-11,57.35401,178)" fill="#b9474d"/>
<use data-text=" " xlink:href="#font_2_1" transform="matrix(11,0,0,-11,63.976015,178)" fill="#b9474d"/>
<use data-text="#" xlink:href="#font_2_4" transform="matrix(11,0,0,-11,70.598018,178)" fill="#b9474d"/>
<use data-text=" " xlink:href="#font_2_1" transform="matrix(11,0,0,-11,77.22002,178)" fill="#b9474d"/>
<use data-text="W" xlink:href="#font_2_56" transform="matrix(11,0,0,-11,83.84202,178)" fill="#b9474d"/>
<use data-text="e" xlink:href="#font_2_70" transform="matrix(11,0,0,-11,90.46402,178)" fill="#b9474d"/>
<use data-text="i" xlink:href="#font_2_74" transform="matrix(11,0,0,-11,97.08602,178)" fill="#b9474d"/>
<use data-text="g" xlink:href="#font_2_72" transform="matrix(11,0,0,-11,103.70802,178)" fill="#b9474d"/>
<use data-text="h" xlink:href="#font_2_73" transform="matrix(11,0,0,-11,110.330028,178)" fill="#b9474d"/>
<use data-text="t" xlink:href="#font_2_85" transform="matrix(11,0,0,-11,116.95203,178)" fill="#b9474d"/>
<use data-text="e" xlink:href="#font_2_70" transform="matrix(11,0,0,-11,123.57403,178)" fill="#b9474d"/>
<use data-text="d" xlink:href="#font_2_69" transform="matrix(11,0,0,-11,130.19603,178)" fill="#b9474d"/>
<use data-text=" " xlink:href="#font_2_1" transform="matrix(11,0,0,-11,136.81803,178)" fill="#b9474d"/>
<use data-text="m" xlink:href="#font_2_78" transform="matrix(11,0,0,-11,143.44002,178)" fill="#b9474d"/>
<use data-text="o" xlink:href="#font_2_80" transform="matrix(11,0,0,-11,150.06201,178)" fill="#b9474d"/>
<use data-text="v" xlink:href="#font_2_87" transform="matrix(11,0,0,-11,156.684,178)" fill="#b9474d"/>
<use data-text="i" xlink:href="#font_2_74" transform="matrix(11,0,0,-11,163.306,178)" fill="#b9474d"/>
<use data-text="n" xlink:href="#font_2_79" transform="matrix(11,0,0,-11,169.928,178)" fill="#b9474d"/>
<use data-text="g" xlink:href="#font_2_72" transform="matrix(11,0,0,-11,176.54999,178)" fill="#b9474d"/>
<use data-text=" " xlink:href="#font_2_1" transform="matrix(11,0,0,-11,183.17198,178)" fill="#b9474d"/>
<use data-text="a" xlink:href="#font_2_66" transform="matrix(11,0,0,-11,189.79398,178)" fill="#b9474d"/>
<use data-text="v" xlink:href="#font_2_87" transform="matrix(11,0,0,-11,196.41597,178)" fill="#b9474d"/>
<use data-text="e" xlink:href="#font_2_70" transform="matrix(11,0,0,-11,203.03797,178)" fill="#b9474d"/>
<use data-text="r" xlink:href="#font_2_83" transform="matrix(11,0,0,-11,209.65996,178)" fill="#b9474d"/>
<use data-text="a" xlink:href="#font_2_66" transform="matrix(11,0,0,-11,216.28195,178)" fill="#b9474d"/>
<use data-text="g" xlink:href="#font_2_72" transform="matrix(11,0,0,-11,222.90395,178)" fill="#b9474d"/>
<use data-text="e" xlink:href="#font_2_70" transform="matrix(11,0,0,-11,229.52594,178)" fill="#b9474d"/>
<use data-text=" " xlink:href="#font_2_1" transform="matrix(11,0,0,-11,236.14794,178)" fill="#b9474d"/>
<use data-text="w" xlink:href="#font_2_88" transform="matrix(11,0,0,-11,242.76993,178)" fill="#b9474d"/>
<use data-text="i" xlink:href="#font_2_74" transform="matrix(11,0,0,-11,249.39192,178)" fill="#b9474d"/>
<use data-text="t" xlink:href="#font_2_85" transform="matrix(11,0,0,-11,256.01393,178)" fill="#b9474d"/>
<use data-text="h" xlink:href="#font_2_73" transform="matrix(11,0,0,-11,262.63594,178)" fill="#b9474d"/>
<use data-text=" " xlink:href="#font_2_1" transform="matrix(11,0,0,-11,269.25794,178)" fill="#b9474d"/>
<use data-text="e" xlink:href="#font_2_70" transform="matrix(11,0,0,-11,275.87995,178)" fill="#b9474d"/>
<use data-text="x" xlink:href="#font_2_89" transform="matrix(11,0,0,-11,282.50196,178)" fill="#b9474d"/>
<use data-text="p" xlink:href="#font_2_81" transform="matrix(11,0,0,-11,289.12397,178)" fill="#b9474d"/>
<use data-text="o" xlink:href="#font_2_80" transform="matrix(11,0,0,-11,295.74598,178)" fill="#b9474d"/>
<use data-text="n" xlink:href="#font_2_79" transform="matrix(11,0,0,-11,302.36799,178)" fill="#b9474d"/>
<use data-text="e" xlink:href="#font_2_70" transform="matrix(11,0,0,-11,308.99,178)" fill="#b9474d"/>
<use data-text="n" xlink:href="#font_2_79" transform="matrix(11,0,0,-11,315.612,178)" fill="#b9474d"/>
<use data-text="t" xlink:href="#font_2_85" transform="matrix(11,0,0,-11,322.234,178)" fill="#b9474d"/>
<use data-text="i" xlink:href="#font_2_74" transform="matrix(11,0,0,-11,328.85603,178)" fill="#b9474d"/>
<use data-text="a" xlink:href="#font_2_66" transform="matrix(11,0,0,-11,335.47804,178)" fill="#b9474d"/>
<use data-text="l" xlink:href="#font_2_77" transform="matrix(11,0,0,-11,342.10005,178)" fill="#b9474d"/>
<use data-text=" " xlink:href="#font_2_1" transform="matrix(11,0,0,-11,348.72206,178)" fill="#b9474d"/>
<use data-text="w" xlink:href="#font_2_88" transform="matrix(11,0,0,-11,355.34407,178)" fill="#b9474d"/>
<use data-text="e" xlink:href="#font_2_70" transform="matrix(11,0,0,-11,361.96607,178)" fill="#b9474d"/>
<use data-text="i" xlink:href="#font_2_74" transform="matrix(11,0,0,-11,368.58808,178)" fill="#b9474d"/>
<use data-text="g" xlink:href="#font_2_72" transform="matrix(11,0,0,-11,375.21009,178)" fill="#b9474d"/>
<use data-text="h" xlink:href="#font_2_73" transform="matrix(11,0,0,-11,381.8321,178)" fill="#b9474d"/>
<use data-text="t" xlink:href="#font_2_85" transform="matrix(11,0,0,-11,388.4541,178)" fill="#b9474d"/>
<use data-text="s" xlink:href="#font_2_84" transform="matrix(11,0,0,-11,395.0761,178)" fill="#b9474d"/>
<path transform="matrix(1,0,0,-1,0,246)" d="M1 46H519V64H1Z" fill="#fff0f0" fill-rule="evenodd"/>
<use data-text="-" xlink:href="#font_2_14" transform="matrix(11,0,0,-11,11,196)" fill="#b9474d"/>
<use data-text=" " xlink:href="#font_2_1" transform="matrix(11,0,0,-11,17.622002,196)" fill="#b9474d"/>
<use data-text=" " xlink:href="#font_2_1" transform="matrix(11,0,0,-11,24.244004,196)" fill="#b9474d"/>
<use data-text=" " xlink:href="#font_2_1" transform="matrix(11,0,0,-11,30.866005,196)" fill="#b9474d"/>
<use data-text=" " xlink:href="#font_2_1" transform="matrix(11,0,0,-11,37.488008,196)" fill="#b9474d"/>
<use data-text=" " xlink:href="#font_2_1" transform="matrix(11,0,0,-11,44.11001,196)" fill="#b9474d"/>
<use data-text=" " xlink:href="#font_2_1" transform="matrix(11,0,0,-11,50.73201,196)" fill="#b9474d"/>
<use data-text=" " xlink:href="#font_2_1" transform="matrix(11,0,0,-11,57.35401,196)" fill="#b9474d"/>
<use data-text=" " xlink:href="#font_2_1" transform="matrix(11,0,0,-11,63.976015,196)" fill="#b9474d"/>
<use data-text="y" xlink:href="#font_2_90" transform="matrix(11,0,0,-11,70.598018,196)" fill="#b9474d"/>
<use data-text="[" xlink:href="#font_2_60" transform="matrix(11,0,0,-11,77.22002,196)" fill="#b9474d"/>
<use data-text="i" xlink:href="#font_2_74" transform="matrix(11,0,0,-11,83.84202,196)" fill="#b9474d"/>
<use data-text="]" xlink:href="#font_2_62" transform="matrix(11,0,0,-11,90.46402,196)" fill="#b9474d"/>
<use data-text=" " xlink:href="#font_2_1" transform="matrix(11,0,0,-11,97.08602,196)" fill="#b9474d"/>
<use data-text="=" xlink:href="#font_2_30" transform="matrix(11,0,0,-11,103.70802,196)" fill="#b9474d"/>
<use data-text=" " xlink:href="#font_2_1" transform="matrix(11,0,0,-11,110.330028,196)" fill="#b9474d"/>
<use data-text="n" xlink:href="#font_2_79" transform="matrix(11,0,0,-11,116.95203,196)" fill="#b9474d"/>
<use data-text="p" xlink:href="#font_2_81" transform="matrix(11,0,0,-11,123.57403,196)" fill="#b9474d"/>
<use data-text="." xlink:href="#font_2_15" transform="matrix(11,0,0,-11,130.19603,196)" fill="#b9474d"/>
<use data-text="s" xlink:href="#font_2_84" transform="matrix(11,0,0,-11,136.81803,196)" fill="#b9474d"/>
<use data-text="u" xlink:href="#font_2_86" transform="matrix(11,0,0,-11,143.44002,196)" fill="#b9474d"/>
<use data-text="m" xlink:href="#font_2_78" transform="matrix(11,0,0,-11,150.06201,196)" fill="#b9474d"/>
<use data-text="(" xlink:href="#font_2_9" transform="matrix(11,0,0,-11,156.684,196)" fill="#b9474d"/>
<use data-text="w" xlink:href="#font_2_88" transform="matrix(11,0,0,-11,163.306,196)" fill="#b9474d"/>
<use data-text="i" xlink:href="#font_2_74" transform="matrix(11,0,0,-11,169.928,196)" fill="#b9474d"/>
<use data-text="n" xlink:href="#font_2_79" transform="matrix(11,0,0,-11,176.54999,196)" fill="#b9474d"/>
<use data-text="d" xlink:href="#font_2_69" transform="matrix(11,0,0,-11,183.17198,196)" fill="#b9474d"/>
<use data-text="o" xlink:href="#font_2_80" transform="matrix(11,0,0,-11,189.79398,196)" fill="#b9474d"/>
<use data-text="w" xlink:href="#font_2_88" transform="matrix(11,0,0,-11,196.41597,196)" fill="#b9474d"/>
<use data-text=" " xlink:href="#font_2_1" transform="matrix(11,0,0,-11,203.03797,196)" fill="#b9474d"/>
<use data-text="*" xlink:href="#font_2_11" transform="matrix(11,0,0,-11,209.65996,196)" fill="#b9474d"/>
<use data-text=" " xlink:href="#font_2_1" transform="matrix(11,0,0,-11,216.28195,196)" fill="#b9474d"/>
<use data-text="w" xlink:href="#font_2_88" transform="matrix(11,0,0,-11,222.90395,196)" fill="#b9474d"/>
<use data-text="e" xlink:href="#font_2_70" transform="matrix(11,0,0,-11,229.52594,196)" fill="#b9474d"/>
<use data-text="i" xlink:href="#font_2_74" transform="matrix(11,0,0,-11,236.14794,196)" fill="#b9474d"/>
<use data-text="g" xlink:href="#font_2_72" transform="matrix(11,0,0,-11,242.76993,196)" fill="#b9474d"/>
<use data-text="h" xlink:href="#font_2_73" transform="matrix(11,0,0,-11,249.39192,196)" fill="#b9474d"/>
<use data-text="t" xlink:href="#font_2_85" transform="matrix(11,0,0,-11,256.01393,196)" fill="#b9474d"/>
<use data-text="s" xlink:href="#font_2_84" transform="matrix(11,0,0,-11,262.63594,196)" fill="#b9474d"/>
<use data-text=")" xlink:href="#font_2_10" transform="matrix(11,0,0,-11,269.25794,196)" fill="#b9474d"/>
<path transform="matrix(1,0,0,-1,0,246)" d="M1 28H519V46H1Z" fill="#edf9f1" fill-rule="evenodd"/>
<use data-text="+" xlink:href="#font_2_12" transform="matrix(11,0,0,-11,11,214)" fill="#23824a"/>
<use data-text=" " xlink:href="#font_2_1" transform="matrix(11,0,0,-11,17.622002,214)" fill="#23824a"/>
<use data-text=" " xlink:href="#font_2_1" transform="matrix(11,0,0,-11,24.244004,214)" fill="#23824a"/>
<use data-text=" " xlink:href="#font_2_1" transform="matrix(11,0,0,-11,30.866005,214)" fill="#23824a"/>
<use data-text=" " xlink:href="#font_2_1" transform="matrix(11,0,0,-11,37.488008,214)" fill="#23824a"/>
<use data-text="#" xlink:href="#font_2_4" transform="matrix(11,0,0,-11,44.11001,214)" fill="#23824a"/>
<use data-text=" " xlink:href="#font_2_1" transform="matrix(11,0,0,-11,50.73201,214)" fill="#23824a"/>
<use data-text="P" xlink:href="#font_2_49" transform="matrix(11,0,0,-11,57.35401,214)" fill="#23824a"/>
<use data-text="h" xlink:href="#font_2_73" transform="matrix(11,0,0,-11,63.976015,214)" fill="#23824a"/>
<use data-text="a" xlink:href="#font_2_66" transform="matrix(11,0,0,-11,70.598018,214)" fill="#23824a"/>
<use data-text="s" xlink:href="#font_2_84" transform="matrix(11,0,0,-11,77.22002,214)" fill="#23824a"/>
<use data-text="e" xlink:href="#font_2_70" transform="matrix(11,0,0,-11,83.84202,214)" fill="#23824a"/>
<use data-text=" " xlink:href="#font_2_1" transform="matrix(11,0,0,-11,90.46402,214)" fill="#23824a"/>
<use data-text="2" xlink:href="#font_2_19" transform="matrix(11,0,0,-11,97.08602,214)" fill="#23824a"/>
<use data-text=":" xlink:href="#font_2_27" transform="matrix(11,0,0,-11,103.70802,214)" fill="#23824a"/>
<use data-text=" " xlink:href="#font_2_1" transform="matrix(11,0,0,-11,110.330028,214)" fill="#23824a"/>
<use data-text="D" xlink:href="#font_2_37" transform="matrix(11,0,0,-11,116.95203,214)" fill="#23824a"/>
<use data-text="o" xlink:href="#font_2_80" transform="matrix(11,0,0,-11,123.57403,214)" fill="#23824a"/>
<use data-text="u" xlink:href="#font_2_86" transform="matrix(11,0,0,-11,130.19603,214)" fill="#23824a"/>
<use data-text="b" xlink:href="#font_2_67" transform="matrix(11,0,0,-11,136.81803,214)" fill="#23824a"/>
<use data-text="l" xlink:href="#font_2_77" transform="matrix(11,0,0,-11,143.44002,214)" fill="#23824a"/>
<use data-text="e" xlink:href="#font_2_70" transform="matrix(11,0,0,-11,150.06201,214)" fill="#23824a"/>
<use data-text=" " xlink:href="#font_2_1" transform="matrix(11,0,0,-11,156.684,214)" fill="#23824a"/>
<use data-text="e" xlink:href="#font_2_70" transform="matrix(11,0,0,-11,163.306,214)" fill="#23824a"/>
<use data-text="x" xlink:href="#font_2_89" transform="matrix(11,0,0,-11,169.928,214)" fill="#23824a"/>
<use data-text="p" xlink:href="#font_2_81" transform="matrix(11,0,0,-11,176.54999,214)" fill="#23824a"/>
<use data-text="o" xlink:href="#font_2_80" transform="matrix(11,0,0,-11,183.17198,214)" fill="#23824a"/>
<use data-text="n" xlink:href="#font_2_79" transform="matrix(11,0,0,-11,189.79398,214)" fill="#23824a"/>
<use data-text="e" xlink:href="#font_2_70" transform="matrix(11,0,0,-11,196.41597,214)" fill="#23824a"/>
<use data-text="n" xlink:href="#font_2_79" transform="matrix(11,0,0,-11,203.03797,214)" fill="#23824a"/>
<use data-text="t" xlink:href="#font_2_85" transform="matrix(11,0,0,-11,209.65996,214)" fill="#23824a"/>
<use data-text="i" xlink:href="#font_2_74" transform="matrix(11,0,0,-11,216.28195,214)" fill="#23824a"/>
<use data-text="a" xlink:href="#font_2_66" transform="matrix(11,0,0,-11,222.90395,214)" fill="#23824a"/>
<use data-text="l" xlink:href="#font_2_77" transform="matrix(11,0,0,-11,229.52594,214)" fill="#23824a"/>
<use data-text=" " xlink:href="#font_2_1" transform="matrix(11,0,0,-11,236.14794,214)" fill="#23824a"/>
<use data-text="s" xlink:href="#font_2_84" transform="matrix(11,0,0,-11,242.76993,214)" fill="#23824a"/>
<use data-text="m" xlink:href="#font_2_78" transform="matrix(11,0,0,-11,249.39192,214)" fill="#23824a"/>
<use data-text="o" xlink:href="#font_2_80" transform="matrix(11,0,0,-11,256.01393,214)" fill="#23824a"/>
<use data-text="o" xlink:href="#font_2_80" transform="matrix(11,0,0,-11,262.63594,214)" fill="#23824a"/>
<use data-text="t" xlink:href="#font_2_85" transform="matrix(11,0,0,-11,269.25794,214)" fill="#23824a"/>
<use data-text="h" xlink:href="#font_2_73" transform="matrix(11,0,0,-11,275.87995,214)" fill="#23824a"/>
<use data-text="i" xlink:href="#font_2_74" transform="matrix(11,0,0,-11,282.50196,214)" fill="#23824a"/>
<use data-text="n" xlink:href="#font_2_79" transform="matrix(11,0,0,-11,289.12397,214)" fill="#23824a"/>
<use data-text="g" xlink:href="#font_2_72" transform="matrix(11,0,0,-11,295.74598,214)" fill="#23824a"/>
<path transform="matrix(1,0,0,-1,0,246)" d="M1 10H519V28H1Z" fill="#edf9f1" fill-rule="evenodd"/>
<use data-text="+" xlink:href="#font_2_12" transform="matrix(11,0,0,-11,11,232)" fill="#23824a"/>
<use data-text=" " xlink:href="#font_2_1" transform="matrix(11,0,0,-11,17.622002,232)" fill="#23824a"/>
<use data-text=" " xlink:href="#font_2_1" transform="matrix(11,0,0,-11,24.244004,232)" fill="#23824a"/>
<use data-text=" " xlink:href="#font_2_1" transform="matrix(11,0,0,-11,30.866005,232)" fill="#23824a"/>
<use data-text=" " xlink:href="#font_2_1" transform="matrix(11,0,0,-11,37.488008,232)" fill="#23824a"/>
<use data-text="#" xlink:href="#font_2_4" transform="matrix(11,0,0,-11,44.11001,232)" fill="#23824a"/>
<use data-text=" " xlink:href="#font_2_1" transform="matrix(11,0,0,-11,50.73201,232)" fill="#23824a"/>
<use data-text="P" xlink:href="#font_2_49" transform="matrix(11,0,0,-11,57.35401,232)" fill="#23824a"/>
<use data-text="h" xlink:href="#font_2_73" transform="matrix(11,0,0,-11,63.976015,232)" fill="#23824a"/>
<use data-text="a" xlink:href="#font_2_66" transform="matrix(11,0,0,-11,70.598018,232)" fill="#23824a"/>
<use data-text="s" xlink:href="#font_2_84" transform="matrix(11,0,0,-11,77.22002,232)" fill="#23824a"/>
<use data-text="e" xlink:href="#font_2_70" transform="matrix(11,0,0,-11,83.84202,232)" fill="#23824a"/>
<use data-text=" " xlink:href="#font_2_1" transform="matrix(11,0,0,-11,90.46402,232)" fill="#23824a"/>
<use data-text="3" xlink:href="#font_2_20" transform="matrix(11,0,0,-11,97.08602,232)" fill="#23824a"/>
<use data-text=":" xlink:href="#font_2_27" transform="matrix(11,0,0,-11,103.70802,232)" fill="#23824a"/>
<use data-text=" " xlink:href="#font_2_1" transform="matrix(11,0,0,-11,110.330028,232)" fill="#23824a"/>
<use data-text="T" xlink:href="#font_2_53" transform="matrix(11,0,0,-11,116.95203,232)" fill="#23824a"/>
<use data-text="r" xlink:href="#font_2_83" transform="matrix(11,0,0,-11,123.57403,232)" fill="#23824a"/>
<use data-text="e" xlink:href="#font_2_70" transform="matrix(11,0,0,-11,130.19603,232)" fill="#23824a"/>
<use data-text="n" xlink:href="#font_2_79" transform="matrix(11,0,0,-11,136.81803,232)" fill="#23824a"/>
<use data-text="d" xlink:href="#font_2_69" transform="matrix(11,0,0,-11,143.44002,232)" fill="#23824a"/>
<use data-text="-" xlink:href="#font_2_14" transform="matrix(11,0,0,-11,150.06201,232)" fill="#23824a"/>
<use data-text="l" xlink:href="#font_2_77" transform="matrix(11,0,0,-11,156.684,232)" fill="#23824a"/>
<use data-text="o" xlink:href="#font_2_80" transform="matrix(11,0,0,-11,163.306,232)" fill="#23824a"/>
<use data-text="c" xlink:href="#font_2_68" transform="matrix(11,0,0,-11,169.928,232)" fill="#23824a"/>
<use data-text="k" xlink:href="#font_2_76" transform="matrix(11,0,0,-11,176.54999,232)" fill="#23824a"/>
<use data-text="i" xlink:href="#font_2_74" transform="matrix(11,0,0,-11,183.17198,232)" fill="#23824a"/>
<use data-text="n" xlink:href="#font_2_79" transform="matrix(11,0,0,-11,189.79398,232)" fill="#23824a"/>
<use data-text="g" xlink:href="#font_2_72" transform="matrix(11,0,0,-11,196.41597,232)" fill="#23824a"/>
<use data-text=" " xlink:href="#font_2_1" transform="matrix(11,0,0,-11,203.03797,232)" fill="#23824a"/>
<use data-text="h" xlink:href="#font_2_73" transform="matrix(11,0,0,-11,209.65996,232)" fill="#23824a"/>
<use data-text="y" xlink:href="#font_2_90" transform="matrix(11,0,0,-11,216.28195,232)" fill="#23824a"/>
<use data-text="s" xlink:href="#font_2_84" transform="matrix(11,0,0,-11,222.90395,232)" fill="#23824a"/>
<use data-text="t" xlink:href="#font_2_85" transform="matrix(11,0,0,-11,229.52594,232)" fill="#23824a"/>
<use data-text="e" xlink:href="#font_2_70" transform="matrix(11,0,0,-11,236.14794,232)" fill="#23824a"/>
<use data-text="r" xlink:href="#font_2_83" transform="matrix(11,0,0,-11,242.76993,232)" fill="#23824a"/>
<use data-text="e" xlink:href="#font_2_70" transform="matrix(11,0,0,-11,249.39192,232)" fill="#23824a"/>
<use data-text="s" xlink:href="#font_2_84" transform="matrix(11,0,0,-11,256.01393,232)" fill="#23824a"/>
<use data-text="i" xlink:href="#font_2_74" transform="matrix(11,0,0,-11,262.63594,232)" fill="#23824a"/>
<use data-text="s" xlink:href="#font_2_84" transform="matrix(11,0,0,-11,269.25794,232)" fill="#23824a"/>
<path transform="matrix(1,0,0,-1,0,246)" stroke-width="1.6" stroke-linecap="butt" stroke-miterlimit="10" stroke-linejoin="miter" fill="none" stroke="#79b3e4" d="M.8 .8H519.2V245.2H.8Z"/>
</svg>
