<svg version="1.1" viewBox="0.0 0.0 903.2020997375328 323.59317585301835" fill="none" stroke="none" stroke-linecap="square" stroke-miterlimit="10" xmlns:xlink="http://www.w3.org/1999/xlink" xmlns="http://www.w3.org/2000/svg"><clipPath id="p.0"><path d="m0 0l903.2021 0l0 323.59317l-903.2021 0l0 -323.59317z" clip-rule="nonzero"/></clipPath><g clip-path="url(#p.0)"><path fill="#000000" fill-opacity="0.0" d="m0 0l903.2021 0l0 323.59317l-903.2021 0z" fill-rule="evenodd"/><path fill="#fff2cc" d="m155.71391 418.56955l901.63776 0l0 332.9764l-901.63776 0z" fill-rule="evenodd"/><path stroke="#000000" stroke-width="1.0" stroke-linejoin="round" stroke-linecap="butt" d="m155.71391 418.56955l901.63776 0l0 332.9764l-901.63776 0z" fill-rule="evenodd"/><path fill="#000000" fill-opacity="0.0" d="m201.76115 157.78465c35.15953 13.825363 74.59807 20.920593 113.564316 25.004745c24.520508 2.5700684 50.33087 6.306015 74.19684 1.188736c23.27707 -4.9910126 47.322754 -8.2934265 69.653534 -15.476273c15.465912 -4.974716 23.944733 -22.759766 21.196869 -35.71991c-2.6061707 -12.29184 -12.920776 -29.763824 -28.769043 -29.763824c-14.29361 0 -23.752747 14.478485 -28.769012 25.002686c-9.032135 18.949524 23.75116 35.98024 33.312317 54.768585c5.336426 10.48642 0.7371521 32.14543 -13.627289 32.14543c-11.912048 0 -13.936737 -15.196899 -21.199463 -22.621094c-9.5052185 -9.716522 -30.180176 -21.386185 -22.713928 -32.14749c6.195862 -8.930222 24.378632 -6.841217 36.341217 -10.715134c16.334198 -5.289612 32.973114 -19.476807 31.797882 -33.336235c-1.5652466 -18.459373 -18.561218 -39.39315 -40.881866 -45.24424c-13.960571 -3.6595917 -29.636963 0.76560974 -43.91339 3.572403c-6.193634 1.2176895 -18.170593 -0.2588501 -18.170593 4.761139c0 14.918549 17.018097 26.730598 27.257202 39.290237c22.332458 27.393753 55.62616 52.394028 62.08136 84.53447c1.9825134 9.870834 2.795288 19.867706 4.5433044 29.7659c1.5523071 8.789886 16.428253 22.697021 6.0551147 26.193497c-32.22351 10.861542 -73.66174 -17.64502 -90.85037 -41.671844c-8.060272 -11.266922 -22.493134 -25.345856 -15.141754 -36.908646c9.5217285 -14.976425 33.628845 -29.478256 54.509186 -26.193481c8.515167 1.3395538 12.881958 9.943573 21.199493 11.905945c17.133179 4.0422363 33.883728 9.389496 51.48294 11.905945c63.30249 9.051376 127.96124 13.096741 192.30182 13.096741c25.257324 0 50.482605 1.4368134 75.7113 2.381607c10.282837 0.3850708 27.028076 2.9159546 30.283447 -4.763214c1.3637085 -3.216751 -2.324646 -6.616791 -4.543274 -9.524338c-21.8656 -28.65483 -80.14929 -27.384293 -122.648315 -27.384293c-42.401062 0 -85.61713 -7.731476 -127.194214 -1.1907959c-36.169586 5.6900024 -69.33145 28.206223 -105.99213 25.002686c-3.3648987 -0.29403687 -4.5433044 -4.4806366 -4.5433044 -7.1427307c0 -11.287933 28.128418 -4.7072296 42.3963 -5.95401c7.457428 -0.6516571 14.285278 -6.3083496 16.656189 -11.905945c6.6621094 -15.728897 -22.394379 -42.151146 -42.39633 -36.90863c-12.776215 3.3486404 -10.303467 20.408783 -9.083984 30.95462c1.3900146 12.020737 18.84668 19.713654 31.797882 26.193497c10.517639 5.262253 22.530182 9.10527 34.826782 10.717209c5.076996 0.66552734 10.537659 0.5702362 15.141724 2.3795319c2.0187378 0.7933197 7.891388 1.3500061 6.0551453 2.381607c-27.93869 15.695435 -76.587006 14.902161 -102.96591 -2.381607c-7.075653 -4.6360626 2.3095093 -14.4045105 4.543335 -21.430283c3.1922302 -10.040237 -8.713715 -22.919067 -21.199493 -26.193497c-21.20871 -5.5620117 -9.577454 48.37674 -31.797882 46.435043c-39.2984 -3.434021 -77.06052 -14.079971 -115.07875 -22.623154c-13.138641 -2.952423 -34.768753 -11.990952 -40.881897 -2.3815918c-10.440765 16.412033 41.804337 21.206223 65.110245 20.241547c25.31189 -1.047699 52.18756 -3.2076263 74.194214 -13.096741c14.724548 -6.6167755 24.795288 -19.59491 40.88452 -23.81189c15.0277405 -3.9387665 29.235016 9.599472 43.910767 14.287537c9.031525 2.8850708 24.1745 1.0617218 27.257202 8.333542c3.7226868 8.781464 -6.6783752 21.805176 -18.170593 23.81189c-9.854248 1.7207031 -16.190277 -11.265762 -18.170593 -19.048676c-1.9830017 -7.793457 -4.5520325 -17.456635 1.5144348 -23.813965c7.225525 -7.5719604 26.476318 -6.4956207 30.283447 -15.476273c3.9259033 -9.260803 -7.877594 -19.290901 -16.656158 -26.193497c-6.818756 -5.3615875 -11.743561 -13.9913025 -21.199463 -15.47834c-7.307556 -1.1491928 -8.891418 9.774422 -10.59845 15.47834c-5.8541565 19.56131 -7.5441895 39.757812 -12.112854 59.529724c-1.3564758 5.8704224 -0.44104004 11.953415 -1.5144348 17.85994c-0.38442993 2.1154327 -1.1063538 7.462326 -3.0288696 5.95195c-10.841522 -8.517303 -11.726379 -22.569595 -13.627289 -34.52704c-0.93911743 -5.9073334 -7.3450623 -16.415466 0 -17.85994c5.977173 -1.1754761 10.6267395 5.039093 15.141724 8.335602c9.157074 6.685852 19.448364 12.566925 27.254608 20.239487c16.077484 15.80217 43.45044 36.168167 33.312317 54.768585c-1.7103271 3.1379547 -6.985779 -4.060272 -10.598419 -5.95401c-11.023193 -5.778351 -19.4628 -21.095535 -12.1154785 -29.763824c11.284241 -13.313034 40.222534 -5.95401 60.56955 -5.95401c52.00891 0 103.95172 3.572403 155.96063 3.572403c19.710938 0 39.344177 2.381607 59.055115 2.381607c4.5144043 0 12.8550415 -1.2618408 12.112854 -4.763199c-6.1341553 -28.939789 -60.43805 -37.853607 -96.90814 -44.05345c-71.57611 -12.167786 -146.47183 2.3616486 -219.55905 5.95401c-43.42755 2.1345367 -86.70816 7.142746 -130.22046 7.142746c-25.058975 0 -69.286316 -9.795868 -74.19423 9.526398c-5.6588135 22.278503 48.89145 26.498428 77.2231 30.954636c41.579437 6.539917 85.44998 26.021881 125.677155 15.478348c19.684692 -5.159363 31.602936 -22.316605 40.88452 -36.90863c5.497986 -8.643646 17.102905 -18.552185 12.112854 -27.384293c-10.548828 -18.670815 -47.849884 -17.003166 -68.1391 -29.7659c-11.811096 -7.4296417 26.052887 -17.811577 40.88452 -15.47834c17.879425 2.8126907 36.341187 17.810295 36.341187 32.14749c0 15.154472 -40.88449 16.99302 -40.88449 32.1475c0 28.949783 27.944946 54.984467 52.997375 76.19887c5.590851 4.7343445 10.821533 15.986023 18.170593 13.096741c5.8862915 -2.3141937 -1.5144348 -10.30365 -1.5144348 -15.478348c0 -10.303665 -1.3371277 -22.478516 -10.601044 -29.7659c-5.4344482 -4.274933 -16.194275 -2.553421 -21.196869 -7.1427307c-12.636688 -11.592758 -13.299713 -30.33966 -9.086609 -45.244247c5.609833 -19.845718 49.006714 -19.91571 60.56955 -38.099426c6.953583 -10.93515 -6.3296204 -23.962349 -10.601044 -35.717834c-7.3814087 -20.314636 -16.3591 -43.281128 -37.853027 -55.95938c-8.631958 -5.091584 -26.978088 -2.8271446 -31.800507 4.7632027c-6.351776 9.997471 -8.028168 21.441322 -12.112854 32.145428c-8.37323 21.942421 -25.630249 44.032104 -21.199493 66.67453c5.5143433 28.179718 43.74695 45.578506 68.1391 66.674515c9.846771 8.516144 26.268036 13.935211 30.286102 25.0027c5.9720764 16.449707 11.420166 34.967102 4.54068 51.196182c-2.7919312 6.586334 -5.2509766 20.055359 -13.627289 17.859955c-19.742859 -5.1746216 -26.681854 -25.12915 -39.370087 -38.09944c-9.663025 -9.877869 -35.012238 -18.311478 -28.769012 -29.7659c5.9046936 -10.833389 26.230865 -14.059311 31.797882 -25.002686c4.5066833 -8.858978 -2.9136353 -20.000107 -10.598419 -27.384293c-6.15036 -5.909775 -11.9670105 -15.695923 -13.627289 -15.478348c-9.18042 1.2030945 -14.297943 9.377762 -21.199493 14.287552c-14.673462 10.438736 -30.08374 22.147919 -36.341187 36.90863c-5.047516 11.906555 -7.9345703E-4 31.751038 15.141724 35.719894c29.784454 7.8065033 33.826233 -42.075912 56.026245 -59.531784" fill-rule="evenodd"/><path stroke="#000000" stroke-width="1.0" stroke-linejoin="round" stroke-linecap="butt" d="m201.76115 157.78465c35.15953 13.825363 74.59807 20.920593 113.564316 25.004745c24.520508 2.5700684 50.33087 6.306015 74.19684 1.188736c23.27707 -4.9910126 47.322754 -8.2934265 69.653534 -15.476273c15.465912 -4.974716 23.944733 -22.759766 21.196869 -35.71991c-2.6061707 -12.29184 -12.920776 -29.763824 -28.769043 -29.763824c-14.29361 0 -23.752747 14.478485 -28.769012 25.002686c-9.032135 18.949524 23.75116 35.98024 33.312317 54.768585c5.336426 10.48642 0.7371521 32.14543 -13.627289 32.14543c-11.912048 0 -13.936737 -15.196899 -21.199463 -22.621094c-9.5052185 -9.716522 -30.180176 -21.386185 -22.713928 -32.14749c6.195862 -8.930222 24.378632 -6.841217 36.341217 -10.715134c16.334198 -5.289612 32.973114 -19.476807 31.797882 -33.336235c-1.5652466 -18.459373 -18.561218 -39.39315 -40.881866 -45.24424c-13.960571 -3.6595917 -29.636963 0.76560974 -43.91339 3.572403c-6.193634 1.2176895 -18.170593 -0.2588501 -18.170593 4.761139c0 14.918549 17.018097 26.730598 27.257202 39.290237c22.332458 27.393753 55.62616 52.394028 62.08136 84.53447c1.9825134 9.870834 2.795288 19.867706 4.5433044 29.7659c1.5523071 8.789886 16.428253 22.697021 6.0551147 26.193497c-32.22351 10.861542 -73.66174 -17.64502 -90.85037 -41.671844c-8.060272 -11.266922 -22.493134 -25.345856 -15.141754 -36.908646c9.5217285 -14.976425 33.628845 -29.478256 54.509186 -26.193481c8.515167 1.3395538 12.881958 9.943573 21.199493 11.905945c17.133179 4.0422363 33.883728 9.389496 51.48294 11.905945c63.30249 9.051376 127.96124 13.096741 192.30182 13.096741c25.257324 0 50.482605 1.4368134 75.7113 2.381607c10.282837 0.3850708 27.028076 2.9159546 30.283447 -4.763214c1.3637085 -3.216751 -2.324646 -6.616791 -4.543274 -9.524338c-21.8656 -28.65483 -80.14929 -27.384293 -122.648315 -27.384293c-42.401062 0 -85.61713 -7.731476 -127.194214 -1.1907959c-36.169586 5.6900024 -69.33145 28.206223 -105.99213 25.002686c-3.3648987 -0.29403687 -4.5433044 -4.4806366 -4.5433044 -7.1427307c0 -11.287933 28.128418 -4.7072296 42.3963 -5.95401c7.457428 -0.6516571 14.285278 -6.3083496 16.656189 -11.905945c6.6621094 -15.728897 -22.394379 -42.151146 -42.39633 -36.90863c-12.776215 3.3486404 -10.303467 20.408783 -9.083984 30.95462c1.3900146 12.020737 18.84668 19.713654 31.797882 26.193497c10.517639 5.262253 22.530182 9.10527 34.826782 10.717209c5.076996 0.66552734 10.537659 0.5702362 15.141724 2.3795319c2.0187378 0.7933197 7.891388 1.3500061 6.0551453 2.381607c-27.93869 15.695435 -76.587006 14.902161 -102.96591 -2.381607c-7.075653 -4.6360626 2.3095093 -14.4045105 4.543335 -21.430283c3.1922302 -10.040237 -8.713715 -22.919067 -21.199493 -26.193497c-21.20871 -5.5620117 -9.577454 48.37674 -31.797882 46.435043c-39.2984 -3.434021 -77.06052 -14.079971 -115.07875 -22.623154c-13.138641 -2.952423 -34.768753 -11.990952 -40.881897 -2.3815918c-10.440765 16.412033 41.804337 21.206223 65.110245 20.241547c25.31189 -1.047699 52.18756 -3.2076263 74.194214 -13.096741c14.724548 -6.6167755 24.795288 -19.59491 40.88452 -23.81189c15.0277405 -3.9387665 29.235016 9.599472 43.910767 14.287537c9.031525 2.8850708 24.1745 1.0617218 27.257202 8.333542c3.7226868 8.781464 -6.6783752 21.805176 -18.170593 23.81189c-9.854248 1.7207031 -16.190277 -11.265762 -18.170593 -19.048676c-1.9830017 -7.793457 -4.5520325 -17.456635 1.5144348 -23.813965c7.225525 -7.5719604 26.476318 -6.4956207 30.283447 -15.476273c3.9259033 -9.260803 -7.877594 -19.290901 -16.656158 -26.193497c-6.818756 -5.3615875 -11.743561 -13.9913025 -21.199463 -15.47834c-7.307556 -1.1491928 -8.891418 9.774422 -10.59845 15.47834c-5.8541565 19.56131 -7.5441895 39.757812 -12.112854 59.529724c-1.3564758 5.8704224 -0.44104004 11.953415 -1.5144348 17.85994c-0.38442993 2.1154327 -1.1063538 7.462326 -3.0288696 5.95195c-10.841522 -8.517303 -11.726379 -22.569595 -13.627289 -34.52704c-0.93911743 -5.9073334 -7.3450623 -16.415466 0 -17.85994c5.977173 -1.1754761 10.6267395 5.039093 15.141724 8.335602c9.157074 6.685852 19.448364 12.566925 27.254608 20.239487c16.077484 15.80217 43.45044 36.168167 33.312317 54.768585c-1.7103271 3.1379547 -6.985779 -4.060272 -10.598419 -5.95401c-11.023193 -5.778351 -19.4628 -21.095535 -12.1154785 -29.763824c11.284241 -13.313034 40.222534 -5.95401 60.56955 -5.95401c52.00891 0 103.95172 3.572403 155.96063 3.572403c19.710938 0 39.344177 2.381607 59.055115 2.381607c4.5144043 0 12.8550415 -1.2618408 12.112854 -4.763199c-6.1341553 -28.939789 -60.43805 -37.853607 -96.90814 -44.05345c-71.57611 -12.167786 -146.47183 2.3616486 -219.55905 5.95401c-43.42755 2.1345367 -86.70816 7.142746 -130.22046 7.142746c-25.058975 0 -69.286316 -9.795868 -74.19423 9.526398c-5.6588135 22.278503 48.89145 26.498428 77.2231 30.954636c41.579437 6.539917 85.44998 26.021881 125.677155 15.478348c19.684692 -5.159363 31.602936 -22.316605 40.88452 -36.90863c5.497986 -8.643646 17.102905 -18.552185 12.112854 -27.384293c-10.548828 -18.670815 -47.849884 -17.003166 -68.1391 -29.7659c-11.811096 -7.4296417 26.052887 -17.811577 40.88452 -15.47834c17.879425 2.8126907 36.341187 17.810295 36.341187 32.14749c0 15.154472 -40.88449 16.99302 -40.88449 32.1475c0 28.949783 27.944946 54.984467 52.997375 76.19887c5.590851 4.7343445 10.821533 15.986023 18.170593 13.096741c5.8862915 -2.3141937 -1.5144348 -10.30365 -1.5144348 -15.478348c0 -10.303665 -1.3371277 -22.478516 -10.601044 -29.7659c-5.4344482 -4.274933 -16.194275 -2.553421 -21.196869 -7.1427307c-12.636688 -11.592758 -13.299713 -30.33966 -9.086609 -45.244247c5.609833 -19.845718 49.006714 -19.91571 60.56955 -38.099426c6.953583 -10.93515 -6.3296204 -23.962349 -10.601044 -35.717834c-7.3814087 -20.314636 -16.3591 -43.281128 -37.853027 -55.95938c-8.631958 -5.091584 -26.978088 -2.8271446 -31.800507 4.7632027c-6.351776 9.997471 -8.028168 21.441322 -12.112854 32.145428c-8.37323 21.942421 -25.630249 44.032104 -21.199493 66.67453c5.5143433 28.179718 43.74695 45.578506 68.1391 66.674515c9.846771 8.516144 26.268036 13.935211 30.286102 25.0027c5.9720764 16.449707 11.420166 34.967102 4.54068 51.196182c-2.7919312 6.586334 -5.2509766 20.055359 -13.627289 17.859955c-19.742859 -5.1746216 -26.681854 -25.12915 -39.370087 -38.09944c-9.663025 -9.877869 -35.012238 -18.311478 -28.769012 -29.7659c5.9046936 -10.833389 26.230865 -14.059311 31.797882 -25.002686c4.5066833 -8.858978 -2.9136353 -20.000107 -10.598419 -27.384293c-6.15036 -5.909775 -11.9670105 -15.695923 -13.627289 -15.478348c-9.18042 1.2030945 -14.297943 9.377762 -21.199493 14.287552c-14.673462 10.438736 -30.08374 22.147919 -36.341187 36.90863c-5.047516 11.906555 -7.9345703E-4 31.751038 15.141724 35.719894c29.784454 7.8065033 33.826233 -42.075912 56.026245 -59.531784" fill-rule="evenodd"/><path fill="#ffffff" d="m40.068596 150.33063c-1.6166954 -10.787552 3.6910706 -21.466599 13.671036 -27.505638c9.979961 -6.0390472 22.881866 -6.37899 33.23098 -0.87557983l0 0c3.6657715 -6.272766 10.3754425 -10.603706 18.099365 -11.682724c7.7239227 -1.0790176 15.554855 1.2206268 21.123978 6.2033005l0 0c3.1228638 -5.687195 9.254761 -9.508278 16.219742 -10.1073c6.964966 -0.5990143 13.777298 2.1088028 18.019547 7.162575l0 0c5.642029 -6.0280685 14.618591 -8.566109 23.045486 -6.5158997c8.426895 2.0502014 14.790604 8.320412 16.337524 16.097504l0 0c6.9121246 1.7120285 12.669785 6.064171 15.785385 11.931984c3.1156006 5.8678284 3.2835236 12.67569 0.46038818 18.664719c6.806946 8.043884 8.399338 18.76236 4.1829376 28.155441c-4.2164154 9.393082 -13.608154 16.04953 -24.67035 17.48523c-0.07795715 8.816055 -5.4025574 16.905533 -13.921402 21.150345c-8.51886 4.2448273 -18.901703 3.982132 -27.146454 -0.6868286c-3.5118866 10.558701 -13.396851 18.327713 -25.384155 19.95047c-11.98732 1.6227722 -23.928001 -3.1916046 -30.663162 -12.363129l0 0c-8.255867 4.5205994 -18.162254 5.8228607 -27.484451 3.6130066c-9.322193 -2.2098541 -17.27493 -7.7456665 -22.064201 -15.358658l0 0c-8.436398 0.8964691 -16.593246 -3.0724487 -20.422363 -9.937012c-3.8291168 -6.8645477 -2.5153809 -15.163467 3.2892113 -20.77803l0 0c-7.5258904 -4.0220184 -11.366066 -12.003082 -9.518023 -19.781357c1.8480434 -7.7782745 8.965532 -13.591171 17.640963 -14.407486z" fill-rule="evenodd"/><path fill="#ffffff" d="m36.65486 241.499c0 2.0574188 -1.6678696 3.7252808 -3.7252846 3.7252808c-2.0574188 0 -3.7252865 -1.6678619 -3.7252865 -3.7252808c0 -2.0574188 1.6678677 -3.7252808 3.7252865 -3.7252808c2.057415 0 3.7252846 1.6678619 3.7252846 3.7252808z" fill-rule="evenodd"/><path fill="#ffffff" d="m46.256996 236.99826c0 4.1148224 -3.3357315 7.4505615 -7.450569 7.4505615c-4.114834 0 -7.4505672 -3.3357391 -7.4505672 -7.4505615c0 -4.1148376 3.3357334 -7.450577 7.4505672 -7.450577c4.1148376 0 7.450569 3.3357391 7.450569 7.450577z" fill-rule="evenodd"/><path fill="#ffffff" d="m61.774307 227.96744c0 6.1722565 -5.0035973 11.175842 -11.17585 11.175842c-6.1722565 0 -11.175854 -5.003586 -11.175854 -11.175842c0 -6.1722565 5.0035973 -11.175858 11.175854 -11.175858c6.1722527 0 11.17585 5.003601 11.17585 11.175858z" fill-rule="evenodd"/><path fill="#000000" fill-opacity="0.0" d="m43.74987 186.88126l0 0c-4.1032066 0.29164124 -8.205967 -0.56933594 -11.757429 -2.4673157m22.13101 29.46817c-1.6499825 0.5963745 -3.3795242 0.99342346 -5.144024 1.1809235m49.46842 11.793137l0 0c-1.2409897 -1.6899109 -2.280014 -3.4957275 -3.0993652 -5.3866577m60.41629 -8.0456085c-0.18247986 2.0043793 -0.5973053 3.9855804 -1.2375641 5.910553m25.845291 -42.429886l0 0c9.302643 4.11055 15.173218 12.704285 15.09021 22.090057m20.504364 -45.617462c-1.506546 3.195984 -3.8064728 6.0311127 -6.7194366 8.283081m-9.40477 -39.0178l0 0c0.25671387 1.2906418 0.3755188 2.6006775 0.3547821 3.9119568m-43.26834 -8.475052l0 0c0.8755493 -1.8047409 2.03508 -3.485138 3.442505 -4.988861m-35.638977 7.365959l0 0c0.357193 -1.4914398 0.9172363 -2.9367294 1.6672211 -4.3025665m-39.45346 5.764374l0 0c2.1898575 1.1645126 4.215782 2.5661392 6.033264 4.17408m-51.857315 28.631523l0 0c-0.47803497 -1.4364319 -0.8301163 -2.9049377 -1.0529442 -4.3917847" fill-rule="evenodd"/><path stroke="#efefef" stroke-width="1.0" stroke-linejoin="round" stroke-linecap="butt" d="m40.068596 150.33063c-1.6166954 -10.787552 3.6910706 -21.466599 13.671036 -27.505638c9.979961 -6.0390472 22.881866 -6.37899 33.23098 -0.87557983l0 0c3.6657715 -6.272766 10.3754425 -10.603706 18.099365 -11.682724c7.7239227 -1.0790176 15.554855 1.2206268 21.123978 6.2033005l0 0c3.1228638 -5.687195 9.254761 -9.508278 16.219742 -10.1073c6.964966 -0.5990143 13.777298 2.1088028 18.019547 7.162575l0 0c5.642029 -6.0280685 14.618591 -8.566109 23.045486 -6.5158997c8.426895 2.0502014 14.790604 8.320412 16.337524 16.097504l0 0c6.9121246 1.7120285 12.669785 6.064171 15.785385 11.931984c3.1156006 5.8678284 3.2835236 12.67569 0.46038818 18.664719c6.806946 8.043884 8.399338 18.76236 4.1829376 28.155441c-4.2164154 9.393082 -13.608154 16.04953 -24.67035 17.48523c-0.07795715 8.816055 -5.4025574 16.905533 -13.921402 21.150345c-8.51886 4.2448273 -18.901703 3.982132 -27.146454 -0.6868286c-3.5118866 10.558701 -13.396851 18.327713 -25.384155 19.95047c-11.98732 1.6227722 -23.928001 -3.1916046 -30.663162 -12.363129l0 0c-8.255867 4.5205994 -18.162254 5.8228607 -27.484451 3.6130066c-9.322193 -2.2098541 -17.27493 -7.7456665 -22.064201 -15.358658l0 0c-8.436398 0.8964691 -16.593246 -3.0724487 -20.422363 -9.937012c-3.8291168 -6.8645477 -2.5153809 -15.163467 3.2892113 -20.77803l0 0c-7.5258904 -4.0220184 -11.366066 -12.003082 -9.518023 -19.781357c1.8480434 -7.7782745 8.965532 -13.591171 17.640963 -14.407486z" fill-rule="evenodd"/><path stroke="#efefef" stroke-width="1.0" stroke-linejoin="round" stroke-linecap="butt" d="m36.65486 241.499c0 2.0574188 -1.6678696 3.7252808 -3.7252846 3.7252808c-2.0574188 0 -3.7252865 -1.6678619 -3.7252865 -3.7252808c0 -2.0574188 1.6678677 -3.7252808 3.7252865 -3.7252808c2.057415 0 3.7252846 1.6678619 3.7252846 3.7252808z" fill-rule="evenodd"/><path stroke="#efefef" stroke-width="1.0" stroke-linejoin="round" stroke-linecap="butt" d="m46.256996 236.99826c0 4.1148224 -3.3357315 7.4505615 -7.450569 7.4505615c-4.114834 0 -7.4505672 -3.3357391 -7.4505672 -7.4505615c0 -4.1148376 3.3357334 -7.450577 7.4505672 -7.450577c4.1148376 0 7.450569 3.3357391 7.450569 7.450577z" fill-rule="evenodd"/><path stroke="#efefef" stroke-width="1.0" stroke-linejoin="round" stroke-linecap="butt" d="m61.774307 227.96744c0 6.1722565 -5.0035973 11.175842 -11.17585 11.175842c-6.1722565 0 -11.175854 -5.003586 -11.175854 -11.175842c0 -6.1722565 5.0035973 -11.175858 11.175854 -11.175858c6.1722527 0 11.17585 5.003601 11.17585 11.175858z" fill-rule="evenodd"/><path stroke="#efefef" stroke-width="1.0" stroke-linejoin="round" stroke-linecap="butt" d="m43.74987 186.88126l0 0c-4.1032066 0.29164124 -8.205967 -0.56933594 -11.757429 -2.4673157m22.13101 29.46817c-1.6499825 0.5963745 -3.3795242 0.99342346 -5.144024 1.1809235m49.46842 11.793137l0 0c-1.2409897 -1.6899109 -2.280014 -3.4957275 -3.0993652 -5.3866577m60.41629 -8.0456085c-0.18247986 2.0043793 -0.5973053 3.9855804 -1.2375641 5.910553m25.845291 -42.429886l0 0c9.302643 4.11055 15.173218 12.704285 15.09021 22.090057m20.504364 -45.617462c-1.506546 3.195984 -3.8064728 6.0311127 -6.7194366 8.283081m-9.40477 -39.0178l0 0c0.25671387 1.2906418 0.3755188 2.6006775 0.3547821 3.9119568m-43.26834 -8.475052l0 0c0.8755493 -1.8047409 2.03508 -3.485138 3.442505 -4.988861m-35.638977 7.365959l0 0c0.357193 -1.4914398 0.9172363 -2.9367294 1.6672211 -4.3025665m-39.45346 5.764374l0 0c2.1898575 1.1645126 4.215782 2.5661392 6.033264 4.17408m-51.857315 28.631523l0 0c-0.47803497 -1.4364319 -0.8301163 -2.9049377 -1.0529442 -4.3917847" fill-rule="evenodd"/><path fill="#434343" d="m79.85552 180.45276l0 -21.0l4.25 0l0 21.0l-4.25 0zm22.195175 0l-3.734375 0l0 -2.234375q-0.921875 1.296875 -2.203125 1.9375q-1.265625 0.640625 -2.546875 0.640625q-2.625 0 -4.5 -2.109375q-1.859375 -2.109375 -1.859375 -5.890625q0 -3.875 1.8125 -5.875q1.828125 -2.015625 4.609375 -2.015625q2.546875 0 4.40625 2.109375l0 -7.5625l4.015625 0l0 21.0zm-10.734375 -7.9375q0 2.4375 0.671875 3.53125q0.96875 1.578125 2.71875 1.578125q1.390625 0 2.359375 -1.1875q0.984375 -1.1875 0.984375 -3.53125q0 -2.625 -0.953125 -3.765625q-0.9375 -1.15625 -2.421875 -1.15625q-1.421875 0 -2.390625 1.140625q-0.96875 1.125 -0.96875 3.390625zm23.508537 3.09375l4.015625 0.671875q-0.765625 2.203125 -2.4375 3.359375q-1.671875 1.15625 -4.1718674 1.15625q-3.96875 0 -5.875 -2.59375q-1.5 -2.078125 -1.5 -5.234375q0 -3.78125 1.96875 -5.921875q1.984375 -2.140625 5.0 -2.140625q3.3906174 0 5.3437424 2.25q1.96875 2.234375 1.890625 6.859375l-10.078117 0q0.03125 1.78125 0.953125 2.78125q0.9375 1.0 2.328125 1.0q0.953125 0 1.5937424 -0.515625q0.640625 -0.515625 0.96875 -1.671875zm0.234375 -4.0625q-0.046875 -1.75 -0.90625 -2.65625q-0.8593674 -0.90625 -2.0937424 -0.90625q-1.3125 0 -2.171875 0.953125q-0.859375 0.96875 -0.84375 2.609375l6.0156174 0zm10.279663 -1.65625l-3.65625 -0.671875q0.625 -2.203125 2.125 -3.25q1.5 -1.0625 4.46875 -1.0625q2.6875 0 4.0 0.640625q1.328125 0.625 1.859375 1.609375q0.546875 0.984375 0.546875 3.609375l-0.046875 4.6875q0 2.0 0.1875 2.953125q0.203125 0.953125 0.734375 2.046875l-3.984375 0q-0.15625 -0.40625 -0.390625 -1.1875q-0.09375 -0.359375 -0.140625 -0.46875q-1.03125 1.0 -2.203125 1.5q-1.171875 0.5 -2.515625 0.5q-2.34375 0 -3.703125 -1.265625q-1.34375 -1.28125 -1.34375 -3.234375q0 -1.28125 0.609375 -2.28125q0.625 -1.015625 1.734375 -1.546875q1.109375 -0.546875 3.203125 -0.953125q2.8125 -0.53125 3.90625 -0.984375l0 -0.40625q0 -1.15625 -0.578125 -1.640625q-0.578125 -0.5 -2.15625 -0.5q-1.078125 0 -1.6875 0.421875q-0.59375 0.421875 -0.96875 1.484375zm5.390625 3.265625q-0.78125 0.25 -2.453125 0.609375q-1.671875 0.359375 -2.1875 0.703125q-0.796875 0.5625 -0.796875 1.421875q0 0.84375 0.625 1.46875q0.640625 0.609375 1.609375 0.609375q1.09375 0 2.078125 -0.71875q0.734375 -0.546875 0.96875 -1.34375q0.15625 -0.515625 0.15625 -1.953125l0 -0.796875zm6.498413 2.953125l4.03125 -0.609375q0.265625 1.171875 1.046875 1.78125q0.796875 0.609375 2.203125 0.609375q1.5625 0 2.359375 -0.578125q0.53125 -0.390625 0.53125 -1.0625q0 -0.46875 -0.296875 -0.765625q-0.296875 -0.28125 -1.34375 -0.53125q-4.859375 -1.078125 -6.171875 -1.953125q-1.796875 -1.234375 -1.796875 -3.4375q0 -1.96875 1.5625 -3.3125q1.5625 -1.34375 4.828125 -1.34375q3.125 0 4.640625 1.015625q1.53125 1.015625 2.09375 3.0l-3.796875 0.703125q-0.234375 -0.890625 -0.921875 -1.359375q-0.671875 -0.46875 -1.9375 -0.46875q-1.59375 0 -2.28125 0.4375q-0.453125 0.3125 -0.453125 0.8125q0 0.4375 0.40625 0.734375q0.53125 0.40625 3.75 1.140625q3.21875 0.71875 4.5 1.78125q1.25 1.078125 1.25 3.0q0 2.09375 -1.75 3.59375q-1.734375 1.5 -5.171875 1.5q-3.09375 0 -4.90625 -1.25q-1.8125 -1.265625 -2.375 -3.4375z" fill-rule="nonzero"/><path fill="#434343" d="m709.12335 96.72966l145.7008 0l0 134.11023l-145.7008 0z" fill-rule="evenodd"/><path stroke="#303030" stroke-width="1.0" stroke-linejoin="round" stroke-linecap="butt" d="m709.12335 96.72966l145.7008 0l0 134.11023l-145.7008 0z" fill-rule="evenodd"/><path fill="#000000" fill-opacity="0.0" d="m709.12335 175.52756l200.78741 0l0 32.314957l-200.78741 0z" fill-rule="evenodd"/><path fill="#b7b7b7" d="m720.4202 189.09569l0 1.28125q0.59375 -0.1875 1.078125 -0.1875q0.984375 0 1.625 0.671875q0.65625 0.671875 0.65625 1.71875q0 1.09375 -0.65625 1.71875q-0.65625 0.625 -2.015625 0.625q-1.1875 0 -1.890625 -0.453125q-0.40625 -0.265625 -0.40625 -0.59375q0 -0.21875 0.15625 -0.375q0.15625 -0.15625 0.375 -0.15625q0.1875 0 0.390625 0.171875q0.21875 0.171875 0.453125 0.234375q0.34375 0.109375 0.859375 0.109375q0.96875 0 1.3125 -0.3125q0.359375 -0.3125 0.359375 -0.953125q0 -0.625 -0.34375 -0.984375q-0.34375 -0.359375 -0.875 -0.359375q-0.578125 0 -1.3125 0.375q-0.171875 0.09375 -0.296875 0.09375q-0.21875 0 -0.375 -0.171875q-0.15625 -0.171875 -0.15625 -0.4375l0 -3.078125l3.265625 0q0.375 0 0.53125 0.15625q0.171875 0.140625 0.171875 0.375q0 0.234375 -0.171875 0.390625q-0.15625 0.140625 -0.53125 0.140625l-2.203125 0z" fill-rule="nonzero"/><path fill="#000000" fill-opacity="0.0" d="m709.12335 127.52756l200.78741 0l0 32.314957l-200.78741 0z" fill-rule="evenodd"/><path fill="#b7b7b7" d="m720.3265 145.70506l2.328125 0q0.203125 -0.15625 0.375 -0.15625q0.234375 0 0.375 0.15625q0.15625 0.15625 0.15625 0.546875l0 0.515625l-4.859375 0l0 -1.125q2.875 -2.375 3.46875 -3.0625q0.3125 -0.34375 0.3125 -0.65625q0 -0.390625 -0.34375 -0.6875q-0.34375 -0.3125 -0.90625 -0.3125q-0.578125 0 -0.953125 0.34375q-0.203125 0.171875 -0.3125 0.515625q-0.078125 0.21875 -0.203125 0.3125q-0.125 0.09375 -0.3125 0.09375q-0.21875 0 -0.390625 -0.15625q-0.15625 -0.15625 -0.15625 -0.359375q0 -0.3125 0.28125 -0.78125q0.296875 -0.46875 0.84375 -0.75q0.5625 -0.28125 1.21875 -0.28125q1.0 0 1.640625 0.609375q0.65625 0.609375 0.65625 1.484375q0 0.4375 -0.1875 0.828125q-0.1875 0.375 -0.890625 1.03125q-0.546875 0.53125 -2.140625 1.890625z" fill-rule="nonzero"/><path fill="#000000" fill-opacity="0.0" d="m709.12335 143.52756l200.78741 0l0 32.314957l-200.78741 0z" fill-rule="evenodd"/><path fill="#b7b7b7" d="m722.8421 159.20506q0.46875 0.328125 0.703125 0.75q0.234375 0.421875 0.234375 0.9375q0 0.578125 -0.3125 1.0625q-0.296875 0.46875 -0.890625 0.71875q-0.59375 0.25 -1.546875 0.25q-1.234375 0 -1.859375 -0.390625q-0.34375 -0.21875 -0.34375 -0.515625q0 -0.234375 0.15625 -0.390625q0.15625 -0.15625 0.375 -0.15625q0.140625 0 0.3125 0.109375q0.21875 0.15625 0.421875 0.203125q0.3125 0.078125 0.859375 0.078125q0.9375 0 1.34375 -0.234375q0.421875 -0.25 0.421875 -0.703125q0 -0.328125 -0.25 -0.625q-0.234375 -0.296875 -0.640625 -0.46875q-0.234375 -0.09375 -0.796875 -0.125q-0.25 -0.015625 -0.40625 -0.15625q-0.140625 -0.15625 -0.140625 -0.375q0 -0.234375 0.15625 -0.390625q0.15625 -0.15625 0.390625 -0.15625q0.53125 0 0.578125 0q0.203125 -0.03125 0.40625 -0.140625q0.21875 -0.109375 0.34375 -0.3125q0.125 -0.203125 0.125 -0.421875q0 -0.328125 -0.296875 -0.578125q-0.296875 -0.25 -0.90625 -0.25q-0.765625 0 -1.171875 0.453125q-0.109375 0.125 -0.1875 0.15625q-0.109375 0.0625 -0.25 0.0625q-0.21875 0 -0.375 -0.15625q-0.15625 -0.15625 -0.15625 -0.390625q0 -0.359375 0.484375 -0.6875q0.703125 -0.5 1.734375 -0.5q1.0 0 1.59375 0.5625q0.59375 0.5625 0.59375 1.359375q0 0.40625 -0.171875 0.765625q-0.171875 0.359375 -0.53125 0.65625z" fill-rule="nonzero"/><path fill="#000000" fill-opacity="0.0" d="m709.12335 159.52756l200.78741 0l0 32.314957l-200.78741 0z" fill-rule="evenodd"/><path fill="#b7b7b7" d="m722.889 172.03319l0 4.171875q0.328125 0 0.484375 0.15625q0.171875 0.140625 0.171875 0.375q0 0.234375 -0.171875 0.390625q-0.15625 0.140625 -0.484375 0.140625l0 0.4375q0.328125 0 0.484375 0.15625q0.171875 0.140625 0.171875 0.375q0 0.234375 -0.171875 0.390625q-0.15625 0.140625 -0.546875 0.140625l-1.421875 0q-0.390625 0 -0.5625 -0.140625q-0.15625 -0.15625 -0.15625 -0.390625q0 -0.234375 0.15625 -0.375q0.171875 -0.15625 0.5625 -0.15625l0.40625 0l0 -0.4375l-2.890625 0l0 -0.890625l2.546875 -4.34375l1.421875 0zm-1.078125 4.171875l0 -2.625l-1.53125 2.625l1.53125 0z" fill-rule="nonzero"/><path fill="#000000" fill-opacity="0.0" d="m709.12335 111.52756l200.78741 0l0 32.314957l-200.78741 0z" fill-rule="evenodd"/><path fill="#b7b7b7" d="m721.8577 123.861305l0 5.8437576l1.078125 0q0.390625 0 0.546875 0.15625q0.171875 0.140625 0.171875 0.375q0 0.234375 -0.171875 0.390625q-0.15625 0.140625 -0.546875 0.140625l-3.21875 0q-0.375 0 -0.546875 -0.140625q-0.15625 -0.15625 -0.15625 -0.390625q0 -0.234375 0.15625 -0.375q0.171875 -0.15625 0.546875 -0.15625l1.078125 0l0 -4.4531326l-0.953125 0.25q-0.21875 0.0625 -0.34375 0.0625q-0.203125 0 -0.359375 -0.15625q-0.140625 -0.171875 -0.140625 -0.40625q0 -0.203125 0.109375 -0.328125q0.109375 -0.125 0.46875 -0.21875l2.28125 -0.59375z" fill-rule="nonzero"/><path fill="#000000" fill-opacity="0.0" d="m704.85565 87.70079l200.78741 0l0 45.259842l-200.78741 0z" fill-rule="evenodd"/><path fill="#6aa84f" d="m718.0275 111.10266l6.90625 3.828125q0.515625 0.296875 0.6875 0.53125q0.171875 0.21875 0.171875 0.578125q0 0.4375 -0.328125 0.765625q-0.3125 0.328125 -0.734375 0.328125q-0.28125 0 -0.84375 -0.3125l-10.296875 -5.71875l10.296875 -5.734375q0.5625 -0.296875 0.828125 -0.296875q0.4375 0 0.75 0.328125q0.328125 0.3125 0.328125 0.765625q0 0.34375 -0.171875 0.578125q-0.171875 0.234375 -0.6875 0.515625l-6.90625 3.84375zm17.283325 0l-6.921875 -3.84375q-0.515625 -0.28125 -0.6875 -0.515625q-0.171875 -0.234375 -0.171875 -0.578125q0 -0.453125 0.3125 -0.765625q0.328125 -0.328125 0.765625 -0.328125q0.28125 0 0.84375 0.296875l10.296875 5.734375l-10.296875 5.71875q-0.5625 0.3125 -0.84375 0.3125q-0.4375 0 -0.765625 -0.3125q-0.3125 -0.328125 -0.3125 -0.78125q0 -0.359375 0.171875 -0.578125q0.171875 -0.234375 0.6875 -0.53125l6.921875 -3.828125z" fill-rule="nonzero"/><path fill="#a64d79" d="m730.96326 124.173225l83.02362 0l0 7.023628l-83.02362 0z" fill-rule="evenodd"/><path fill="#6aa84f" d="m764.2257 141.32283l57.763794 0l0 7.0236206l-57.763794 0z" fill-rule="evenodd"/><path fill="#6aa84f" d="m772.1916 157.32283l57.763794 0l0 7.0236206l-57.763794 0z" fill-rule="evenodd"/><path fill="#ffffff" d="m730.96326 173.32283l69.35431 0l0 7.0236206l-69.35431 0z" fill-rule="evenodd"/><path fill="#ffab40" d="m730.96326 189.32283l55.18109 0l0 7.0236206l-55.18109 0z" fill-rule="evenodd"/><path fill="#3c78d8" d="m738.96326 141.62993l19.275574 0l0 7.0236206l-19.275574 0z" fill-rule="evenodd"/><path fill="#3c78d8" d="m738.96326 157.62993l27.968506 0l0 7.0236206l-27.968506 0z" fill-rule="evenodd"/><path fill="#000000" fill-opacity="0.0" d="m525.7769 193.65617l161.51178 0l0 64.62993l-161.51178 0z" fill-rule="evenodd"/><path fill="#000000" d="m536.24567 220.57617l0 -13.359375l5.921875 0q1.78125 0 2.703125 0.359375q0.9375 0.359375 1.484375 1.28125q0.5625 0.90625 0.5625 2.015625q0 1.40625 -0.921875 2.390625q-0.921875 0.96875 -2.84375 1.234375q0.703125 0.34375 1.078125 0.671875q0.765625 0.703125 1.453125 1.765625l2.328125 3.640625l-2.21875 0l-1.765625 -2.78125q-0.78125 -1.203125 -1.28125 -1.828125q-0.5 -0.640625 -0.90625 -0.890625q-0.390625 -0.265625 -0.796875 -0.359375q-0.296875 -0.078125 -0.984375 -0.078125l-2.046875 0l0 5.9375l-1.765625 0zm1.765625 -7.453125l3.796875 0q1.21875 0 1.890625 -0.25q0.6875 -0.265625 1.046875 -0.8125q0.359375 -0.546875 0.359375 -1.1875q0 -0.953125 -0.6875 -1.5625q-0.6875 -0.609375 -2.1875 -0.609375l-4.21875 0l0 4.421875zm18.097961 4.34375l1.6875 0.203125q-0.40625 1.484375 -1.484375 2.3125q-1.078125 0.8125 -2.765625 0.8125q-2.125 0 -3.375 -1.296875q-1.234375 -1.3125 -1.234375 -3.671875q0 -2.453125 1.25 -3.796875q1.265625 -1.34375 3.265625 -1.34375q1.9375 0 3.15625 1.328125q1.234375 1.3125 1.234375 3.703125q0 0.15625 0 0.4375l-7.21875 0q0.09375 1.59375 0.90625 2.453125q0.8125 0.84375 2.015625 0.84375q0.90625 0 1.546875 -0.46875q0.640625 -0.484375 1.015625 -1.515625zm-5.390625 -2.65625l5.40625 0q-0.109375 -1.21875 -0.625 -1.828125q-0.78125 -0.953125 -2.03125 -0.953125q-1.125 0 -1.90625 0.765625q-0.765625 0.75 -0.84375 2.015625zm15.453796 4.578125q-0.921875 0.765625 -1.765625 1.09375q-0.828125 0.3125 -1.796875 0.3125q-1.59375 0 -2.453125 -0.78125q-0.859375 -0.78125 -0.859375 -1.984375q0 -0.71875 0.328125 -1.296875q0.328125 -0.59375 0.84375 -0.9375q0.53125 -0.359375 1.1875 -0.546875q0.46875 -0.125 1.453125 -0.25q1.984375 -0.234375 2.921875 -0.5625q0.015625 -0.34375 0.015625 -0.421875q0 -1.0 -0.46875 -1.421875q-0.625 -0.546875 -1.875 -0.546875q-1.15625 0 -1.703125 0.40625q-0.546875 0.40625 -0.8125 1.421875l-1.609375 -0.21875q0.21875 -1.015625 0.71875 -1.640625q0.5 -0.640625 1.453125 -0.984375q0.953125 -0.34375 2.1875 -0.34375q1.25 0 2.015625 0.296875q0.78125 0.28125 1.140625 0.734375q0.375 0.4375 0.515625 1.109375q0.078125 0.421875 0.078125 1.515625l0 2.1875q0 2.28125 0.109375 2.890625q0.109375 0.59375 0.40625 1.15625l-1.703125 0q-0.265625 -0.515625 -0.328125 -1.1875zm-0.140625 -3.671875q-0.890625 0.375 -2.671875 0.625q-1.015625 0.140625 -1.4375 0.328125q-0.421875 0.1875 -0.65625 0.53125q-0.21875 0.34375 -0.21875 0.78125q0 0.65625 0.5 1.09375q0.5 0.4375 1.453125 0.4375q0.9375 0 1.671875 -0.40625q0.75 -0.421875 1.09375 -1.140625q0.265625 -0.5625 0.265625 -1.640625l0 -0.609375zm10.469482 4.859375l0 -1.21875q-0.90625 1.4375 -2.703125 1.4375q-1.15625 0 -2.125 -0.640625q-0.96875 -0.640625 -1.5 -1.78125q-0.53125 -1.140625 -0.53125 -2.625q0 -1.453125 0.484375 -2.625q0.484375 -1.1875 1.4375 -1.8125q0.96875 -0.625 2.171875 -0.625q0.875 0 1.546875 0.375q0.6875 0.359375 1.109375 0.953125l0 -4.796875l1.640625 0l0 13.359375l-1.53125 0zm-5.171875 -4.828125q0 1.859375 0.78125 2.78125q0.78125 0.921875 1.84375 0.921875q1.078125 0 1.828125 -0.875q0.75 -0.890625 0.75 -2.6875q0 -1.984375 -0.765625 -2.90625q-0.765625 -0.9375 -1.890625 -0.9375q-1.078125 0 -1.8125 0.890625q-0.734375 0.890625 -0.734375 2.8125zm9.281982 -6.640625l0 -1.890625l1.640625 0l0 1.890625l-1.640625 0zm0 11.46875l0 -9.671875l1.640625 0l0 9.671875l-1.640625 0zm4.1448364 0l0 -9.671875l1.46875 0l0 1.375q1.0625 -1.59375 3.078125 -1.59375q0.875 0 1.609375 0.3125q0.734375 0.3125 1.09375 0.828125q0.375 0.5 0.515625 1.203125q0.09375 0.453125 0.09375 1.59375l0 5.953125l-1.640625 0l0 -5.890625q0 -1.0 -0.203125 -1.484375q-0.1875 -0.5 -0.671875 -0.796875q-0.484375 -0.296875 -1.140625 -0.296875q-1.046875 0 -1.8125 0.671875q-0.75 0.65625 -0.75 2.515625l0 5.28125l-1.640625 0zm10.063171 0.796875l1.59375 0.234375q0.109375 0.75 0.5625 1.078125q0.609375 0.453125 1.671875 0.453125q1.140625 0 1.75 -0.453125q0.625 -0.453125 0.84375 -1.265625q0.125 -0.5 0.109375 -2.109375q-1.0625 1.265625 -2.671875 1.265625q-2.0 0 -3.09375 -1.4375q-1.09375 -1.4375 -1.09375 -3.453125q0 -1.390625 0.5 -2.5625q0.515625 -1.171875 1.453125 -1.796875q0.953125 -0.640625 2.25 -0.640625q1.703125 0 2.8125 1.375l0 -1.15625l1.515625 0l0 8.359375q0 2.265625 -0.46875 3.203125q-0.453125 0.9375 -1.453125 1.484375q-0.984375 0.546875 -2.453125 0.546875q-1.71875 0 -2.796875 -0.78125q-1.0625 -0.765625 -1.03125 -2.34375zm1.359375 -5.8125q0 1.90625 0.75 2.78125q0.765625 0.875 1.90625 0.875q1.125 0 1.890625 -0.859375q0.765625 -0.875 0.765625 -2.734375q0 -1.78125 -0.796875 -2.671875q-0.78125 -0.90625 -1.890625 -0.90625q-1.09375 0 -1.859375 0.890625q-0.765625 0.875 -0.765625 2.625zm12.216614 5.015625l5.125 -13.359375l1.90625 0l5.46875 13.359375l-2.015625 0l-1.546875 -4.046875l-5.59375 0l-1.46875 4.046875l-1.875 0zm3.859375 -5.484375l4.53125 0l-1.40625 -3.703125q-0.625 -1.6875 -0.9375 -2.765625q-0.265625 1.28125 -0.71875 2.546875l-1.46875 3.921875zm10.0529175 5.484375l0 -13.359375l5.046875 0q1.328125 0 2.03125 0.125q0.96875 0.171875 1.640625 0.640625q0.671875 0.453125 1.078125 1.28125q0.40625 0.828125 0.40625 1.828125q0 1.703125 -1.09375 2.890625q-1.078125 1.171875 -3.921875 1.171875l-3.421875 0l0 5.421875l-1.765625 0zm1.765625 -7.0l3.453125 0q1.71875 0 2.4375 -0.640625q0.71875 -0.640625 0.71875 -1.796875q0 -0.84375 -0.421875 -1.4375q-0.421875 -0.59375 -1.125 -0.78125q-0.4375 -0.125 -1.640625 -0.125l-3.421875 0l0 4.78125zm10.9748535 7.0l0 -13.359375l1.765625 0l0 13.359375l-1.765625 0z" fill-rule="nonzero"/><path fill="#000000" d="m536.2144 242.97617l0 -13.359375l4.609375 0q1.546875 0 2.375 0.203125q1.140625 0.25 1.953125 0.953125q1.0625 0.890625 1.578125 2.28125q0.53125 1.390625 0.53125 3.171875q0 1.515625 -0.359375 2.703125q-0.359375 1.171875 -0.921875 1.9375q-0.546875 0.765625 -1.203125 1.21875q-0.65625 0.4375 -1.59375 0.671875q-0.9375 0.21875 -2.140625 0.21875l-4.828125 0zm1.765625 -1.578125l2.859375 0q1.3125 0 2.0625 -0.234375q0.75 -0.25 1.203125 -0.703125q0.625 -0.625 0.96875 -1.6875q0.359375 -1.0625 0.359375 -2.578125q0 -2.09375 -0.6875 -3.21875q-0.6875 -1.125 -1.671875 -1.5q-0.703125 -0.28125 -2.28125 -0.28125l-2.8125 0l0 10.203125zm10.894836 -3.265625q0 -2.6875 1.484375 -3.96875q1.25 -1.078125 3.046875 -1.078125q2.0 0 3.265625 1.3125q1.265625 1.296875 1.265625 3.609375q0 1.859375 -0.5625 2.9375q-0.5625 1.0625 -1.640625 1.65625q-1.0625 0.59375 -2.328125 0.59375q-2.03125 0 -3.28125 -1.296875q-1.25 -1.3125 -1.25 -3.765625zm1.6875 0q0 1.859375 0.796875 2.796875q0.8125 0.921875 2.046875 0.921875q1.21875 0 2.03125 -0.921875q0.8125 -0.9375 0.8125 -2.84375q0 -1.796875 -0.8125 -2.71875q-0.8125 -0.921875 -2.03125 -0.921875q-1.234375 0 -2.046875 0.921875q-0.796875 0.90625 -0.796875 2.765625zm15.610046 1.296875l1.609375 0.21875q-0.265625 1.65625 -1.359375 2.609375q-1.078125 0.9375 -2.671875 0.9375q-1.984375 0 -3.1875 -1.296875q-1.203125 -1.296875 -1.203125 -3.71875q0 -1.578125 0.515625 -2.75q0.515625 -1.171875 1.578125 -1.75q1.0625 -0.59375 2.3125 -0.59375q1.578125 0 2.578125 0.796875q1.0 0.796875 1.28125 2.265625l-1.59375 0.234375q-0.234375 -0.96875 -0.8125 -1.453125q-0.578125 -0.5 -1.390625 -0.5q-1.234375 0 -2.015625 0.890625q-0.78125 0.890625 -0.78125 2.8125q0 1.953125 0.75 2.84375q0.75 0.875 1.953125 0.875q0.96875 0 1.609375 -0.59375q0.65625 -0.59375 0.828125 -1.828125zm9.34375 3.546875l0 -1.421875q-1.125 1.640625 -3.0625 1.640625q-0.859375 0 -1.609375 -0.328125q-0.734375 -0.328125 -1.09375 -0.828125q-0.359375 -0.5 -0.5 -1.21875q-0.109375 -0.46875 -0.109375 -1.53125l0 -5.984375l1.640625 0l0 5.359375q0 1.28125 0.109375 1.734375q0.15625 0.640625 0.65625 1.015625q0.5 0.375 1.234375 0.375q0.734375 0 1.375 -0.375q0.65625 -0.390625 0.921875 -1.03125q0.265625 -0.65625 0.265625 -1.890625l0 -5.1875l1.640625 0l0 9.671875l-1.46875 0zm4.0476074 0l0 -9.671875l1.46875 0l0 1.359375q0.453125 -0.71875 1.203125 -1.140625q0.765625 -0.4375 1.71875 -0.4375q1.078125 0 1.765625 0.453125q0.6875 0.4375 0.96875 1.234375q1.15625 -1.6875 2.984375 -1.6875q1.453125 0 2.21875 0.796875q0.78125 0.796875 0.78125 2.453125l0 6.640625l-1.640625 0l0 -6.09375q0 -0.984375 -0.15625 -1.40625q-0.15625 -0.4375 -0.578125 -0.703125q-0.421875 -0.265625 -0.984375 -0.265625q-1.015625 0 -1.6875 0.6875q-0.671875 0.671875 -0.671875 2.15625l0 5.625l-1.640625 0l0 -6.28125q0 -1.09375 -0.40625 -1.640625q-0.40625 -0.546875 -1.3125 -0.546875q-0.6875 0 -1.28125 0.359375q-0.59375 0.359375 -0.859375 1.0625q-0.25 0.703125 -0.25 2.03125l0 5.015625l-1.640625 0zm22.165833 -3.109375l1.6875 0.203125q-0.40625 1.484375 -1.484375 2.3125q-1.078125 0.8125 -2.765625 0.8125q-2.125 0 -3.375 -1.296875q-1.234375 -1.3125 -1.234375 -3.671875q0 -2.453125 1.25 -3.796875q1.265625 -1.34375 3.265625 -1.34375q1.9375 0 3.15625 1.328125q1.234375 1.3125 1.234375 3.703125q0 0.15625 0 0.4375l-7.21875 0q0.09375 1.59375 0.90625 2.453125q0.8125 0.84375 2.015625 0.84375q0.90625 0 1.546875 -0.46875q0.640625 -0.484375 1.015625 -1.515625zm-5.390625 -2.65625l5.40625 0q-0.109375 -1.21875 -0.625 -1.828125q-0.78125 -0.953125 -2.03125 -0.953125q-1.125 0 -1.90625 0.765625q-0.765625 0.75 -0.84375 2.015625zm9.141296 5.765625l0 -9.671875l1.46875 0l0 1.375q1.0625 -1.59375 3.078125 -1.59375q0.875 0 1.609375 0.3125q0.734375 0.3125 1.09375 0.828125q0.375 0.5 0.515625 1.203125q0.09375 0.453125 0.09375 1.59375l0 5.953125l-1.640625 0l0 -5.890625q0 -1.0 -0.203125 -1.484375q-0.1875 -0.5 -0.671875 -0.796875q-0.484375 -0.296875 -1.140625 -0.296875q-1.046875 0 -1.8125 0.671875q-0.75 0.65625 -0.75 2.515625l0 5.28125l-1.640625 0zm13.953857 -1.46875l0.234375 1.453125q-0.6875 0.140625 -1.234375 0.140625q-0.890625 0 -1.390625 -0.28125q-0.484375 -0.28125 -0.6875 -0.734375q-0.203125 -0.46875 -0.203125 -1.9375l0 -5.578125l-1.203125 0l0 -1.265625l1.203125 0l0 -2.390625l1.625 -0.984375l0 3.375l1.65625 0l0 1.265625l-1.65625 0l0 5.671875q0 0.6875 0.078125 0.890625q0.09375 0.203125 0.28125 0.328125q0.203125 0.109375 0.578125 0.109375q0.265625 0 0.71875 -0.0625zm7.9176636 0.28125q-0.921875 0.765625 -1.765625 1.09375q-0.828125 0.3125 -1.796875 0.3125q-1.59375 0 -2.453125 -0.78125q-0.859375 -0.78125 -0.859375 -1.984375q0 -0.71875 0.328125 -1.296875q0.328125 -0.59375 0.84375 -0.9375q0.53125 -0.359375 1.1875 -0.546875q0.46875 -0.125 1.453125 -0.25q1.984375 -0.234375 2.921875 -0.5625q0.015625 -0.34375 0.015625 -0.421875q0 -1.0 -0.46875 -1.421875q-0.625 -0.546875 -1.875 -0.546875q-1.15625 0 -1.703125 0.40625q-0.546875 0.40625 -0.8125 1.421875l-1.609375 -0.21875q0.21875 -1.015625 0.71875 -1.640625q0.5 -0.640625 1.453125 -0.984375q0.953125 -0.34375 2.1875 -0.34375q1.25 0 2.015625 0.296875q0.78125 0.28125 1.140625 0.734375q0.375 0.4375 0.515625 1.109375q0.078125 0.421875 0.078125 1.515625l0 2.1875q0 2.28125 0.109375 2.890625q0.109375 0.59375 0.40625 1.15625l-1.703125 0q-0.265625 -0.515625 -0.328125 -1.1875zm-0.140625 -3.671875q-0.890625 0.375 -2.671875 0.625q-1.015625 0.140625 -1.4375 0.328125q-0.421875 0.1875 -0.65625 0.53125q-0.21875 0.34375 -0.21875 0.78125q0 0.65625 0.5 1.09375q0.5 0.4375 1.453125 0.4375q0.9375 0 1.671875 -0.40625q0.75 -0.421875 1.09375 -1.140625q0.265625 -0.5625 0.265625 -1.640625l0 -0.609375zm7.7819824 3.390625l0.234375 1.453125q-0.6875 0.140625 -1.234375 0.140625q-0.890625 0 -1.390625 -0.28125q-0.484375 -0.28125 -0.6875 -0.734375q-0.203125 -0.46875 -0.203125 -1.9375l0 -5.578125l-1.203125 0l0 -1.265625l1.203125 0l0 -2.390625l1.625 -0.984375l0 3.375l1.65625 0l0 1.265625l-1.65625 0l0 5.671875q0 0.6875 0.078125 0.890625q0.09375 0.203125 0.28125 0.328125q0.203125 0.109375 0.578125 0.109375q0.265625 0 0.71875 -0.0625zm1.6051636 -10.0l0 -1.890625l1.640625 0l0 1.890625l-1.640625 0zm0 11.46875l0 -9.671875l1.640625 0l0 9.671875l-1.640625 0zm3.5354614 -4.84375q0 -2.6875 1.484375 -3.96875q1.25 -1.078125 3.046875 -1.078125q2.0 0 3.265625 1.3125q1.265625 1.296875 1.265625 3.609375q0 1.859375 -0.5625 2.9375q-0.5625 1.0625 -1.640625 1.65625q-1.0625 0.59375 -2.328125 0.59375q-2.03125 0 -3.28125 -1.296875q-1.25 -1.3125 -1.25 -3.765625zm1.6875 0q0 1.859375 0.796875 2.796875q0.8125 0.921875 2.046875 0.921875q1.21875 0 2.03125 -0.921875q0.8125 -0.9375 0.8125 -2.84375q0 -1.796875 -0.8125 -2.71875q-0.8125 -0.921875 -2.03125 -0.921875q-1.234375 0 -2.046875 0.921875q-0.796875 0.90625 -0.796875 2.765625zm9.297607 4.84375l0 -9.671875l1.46875 0l0 1.375q1.0625 -1.59375 3.078125 -1.59375q0.875 0 1.609375 0.3125q0.734375 0.3125 1.09375 0.828125q0.375 0.5 0.515625 1.203125q0.09375 0.453125 0.09375 1.59375l0 5.953125l-1.640625 0l0 -5.890625q0 -1.0 -0.203125 -1.484375q-0.1875 -0.5 -0.671875 -0.796875q-0.484375 -0.296875 -1.140625 -0.296875q-1.046875 0 -1.8125 0.671875q-0.75 0.65625 -0.75 2.515625l0 5.28125l-1.640625 0z" fill-rule="nonzero"/><path fill="#000000" fill-opacity="0.0" d="m251.77428 24.070866l161.51183 0l0 42.01575l-161.51183 0z" fill-rule="evenodd"/><path fill="#000000" d="m262.13367 50.990864l0 -13.359375l5.015625 0q1.53125 0 2.453125 0.40625q0.921875 0.40625 1.4375 1.25q0.53125 0.84375 0.53125 1.765625q0 0.859375 -0.46875 1.625q-0.453125 0.75 -1.390625 1.203125q1.203125 0.359375 1.859375 1.21875q0.65625 0.859375 0.65625 2.015625q0 0.9375 -0.40625 1.75q-0.390625 0.796875 -0.984375 1.234375q-0.578125 0.4375 -1.453125 0.671875q-0.875 0.21875 -2.15625 0.21875l-5.09375 0zm1.78125 -7.75l2.875 0q1.1875 0 1.6875 -0.140625q0.671875 -0.203125 1.015625 -0.671875q0.34375 -0.46875 0.34375 -1.171875q0 -0.65625 -0.328125 -1.15625q-0.3125 -0.515625 -0.90625 -0.703125q-0.59375 -0.1875 -2.03125 -0.1875l-2.65625 0l0 4.03125zm0 6.171875l3.3125 0q0.859375 0 1.203125 -0.0625q0.609375 -0.109375 1.015625 -0.359375q0.421875 -0.265625 0.6875 -0.75q0.265625 -0.484375 0.265625 -1.125q0 -0.75 -0.390625 -1.296875q-0.375 -0.546875 -1.0625 -0.765625q-0.671875 -0.234375 -1.953125 -0.234375l-3.078125 0l0 4.59375zm16.865448 1.578125l0 -1.421875q-1.125 1.640625 -3.0625 1.640625q-0.859375 0 -1.609375 -0.328125q-0.734375 -0.328125 -1.09375 -0.828125q-0.359375 -0.5 -0.5 -1.21875q-0.109375 -0.46875 -0.109375 -1.53125l0 -5.984375l1.640625 0l0 5.359375q0 1.28125 0.109375 1.734375q0.15625 0.640625 0.65625 1.015625q0.5 0.375 1.234375 0.375q0.734375 0 1.375 -0.375q0.65625 -0.390625 0.921875 -1.03125q0.265625 -0.65625 0.265625 -1.890625l0 -5.1875l1.640625 0l0 9.671875l-1.46875 0zm3.735077 0.796875l1.59375 0.234375q0.109375 0.75 0.5625 1.078125q0.609375 0.453125 1.671875 0.453125q1.140625 0 1.75 -0.453125q0.625 -0.453125 0.84375 -1.265625q0.125 -0.5 0.109375 -2.109375q-1.0625 1.265625 -2.671875 1.265625q-2.0 0 -3.09375 -1.4375q-1.09375 -1.4375 -1.09375 -3.453125q0 -1.390625 0.5 -2.5625q0.515625 -1.171875 1.453125 -1.796875q0.953125 -0.640625 2.25 -0.640625q1.703125 0 2.8125 1.375l0 -1.15625l1.515625 0l0 8.359375q0 2.265625 -0.46875 3.203125q-0.453125 0.9375 -1.453125 1.484375q-0.984375 0.546875 -2.453125 0.546875q-1.71875 0 -2.796875 -0.78125q-1.0625 -0.765625 -1.03125 -2.34375zm1.359375 -5.8125q0 1.90625 0.75 2.78125q0.765625 0.875 1.90625 0.875q1.125 0 1.890625 -0.859375q0.765625 -0.875 0.765625 -2.734375q0 -1.78125 -0.796875 -2.671875q-0.78125 -0.90625 -1.890625 -0.90625q-1.09375 0 -1.859375 0.890625q-0.765625 0.875 -0.765625 2.625zm14.715271 5.015625l0 -13.359375l4.609375 0q1.546875 0 2.375 0.203125q1.140625 0.25 1.953125 0.953125q1.0625 0.890625 1.578125 2.28125q0.53125 1.390625 0.53125 3.171875q0 1.515625 -0.359375 2.703125q-0.359375 1.171875 -0.921875 1.9375q-0.546875 0.765625 -1.203125 1.21875q-0.65625 0.4375 -1.59375 0.671875q-0.9375 0.21875 -2.140625 0.21875l-4.828125 0zm1.765625 -1.578125l2.859375 0q1.3125 0 2.0625 -0.234375q0.75 -0.25 1.203125 -0.703125q0.625 -0.625 0.96875 -1.6875q0.359375 -1.0625 0.359375 -2.578125q0 -2.09375 -0.6875 -3.21875q-0.6875 -1.125 -1.671875 -1.5q-0.703125 -0.28125 -2.28125 -0.28125l-2.8125 0l0 10.203125zm11.504211 -9.890625l0 -1.890625l1.640625 0l0 1.890625l-1.640625 0zm0 11.46875l0 -9.671875l1.640625 0l0 9.671875l-1.640625 0zm10.457306 -1.1875q-0.921875 0.765625 -1.765625 1.09375q-0.828125 0.3125 -1.796875 0.3125q-1.59375 0 -2.453125 -0.78125q-0.859375 -0.78125 -0.859375 -1.984375q0 -0.71875 0.328125 -1.296875q0.328125 -0.59375 0.84375 -0.9375q0.53125 -0.359375 1.1875 -0.546875q0.46875 -0.125 1.453125 -0.25q1.984375 -0.234375 2.921875 -0.5625q0.015625 -0.34375 0.015625 -0.421875q0 -1.0 -0.46875 -1.421875q-0.625 -0.546875 -1.875 -0.546875q-1.15625 0 -1.703125 0.40625q-0.546875 0.40625 -0.8125 1.421875l-1.609375 -0.21875q0.21875 -1.015625 0.71875 -1.640625q0.5 -0.640625 1.453125 -0.984375q0.953125 -0.34375 2.1875 -0.34375q1.25 0 2.015625 0.296875q0.78125 0.28125 1.140625 0.734375q0.375 0.4375 0.515625 1.109375q0.078125 0.421875 0.078125 1.515625l0 2.1875q0 2.28125 0.109375 2.890625q0.109375 0.59375 0.40625 1.15625l-1.703125 0q-0.265625 -0.515625 -0.328125 -1.1875zm-0.140625 -3.671875q-0.890625 0.375 -2.671875 0.625q-1.015625 0.140625 -1.4375 0.328125q-0.421875 0.1875 -0.65625 0.53125q-0.21875 0.34375 -0.21875 0.78125q0 0.65625 0.5 1.09375q0.5 0.4375 1.453125 0.4375q0.9375 0 1.671875 -0.40625q0.75 -0.421875 1.09375 -1.140625q0.265625 -0.5625 0.265625 -1.640625l0 -0.609375zm3.8913574 5.65625l1.59375 0.234375q0.109375 0.75 0.5625 1.078125q0.609375 0.453125 1.671875 0.453125q1.140625 0 1.75 -0.453125q0.625 -0.453125 0.84375 -1.265625q0.125 -0.5 0.109375 -2.109375q-1.0625 1.265625 -2.671875 1.265625q-2.0 0 -3.09375 -1.4375q-1.09375 -1.4375 -1.09375 -3.453125q0 -1.390625 0.5 -2.5625q0.515625 -1.171875 1.453125 -1.796875q0.953125 -0.640625 2.25 -0.640625q1.703125 0 2.8125 1.375l0 -1.15625l1.515625 0l0 8.359375q0 2.265625 -0.46875 3.203125q-0.453125 0.9375 -1.453125 1.484375q-0.984375 0.546875 -2.453125 0.546875q-1.71875 0 -2.796875 -0.78125q-1.0625 -0.765625 -1.03125 -2.34375zm1.359375 -5.8125q0 1.90625 0.75 2.78125q0.765625 0.875 1.90625 0.875q1.125 0 1.890625 -0.859375q0.765625 -0.875 0.765625 -2.734375q0 -1.78125 -0.796875 -2.671875q-0.78125 -0.90625 -1.890625 -0.90625q-1.09375 0 -1.859375 0.890625q-0.765625 0.875 -0.765625 2.625zm9.328827 5.015625l0 -9.671875l1.46875 0l0 1.375q1.0625 -1.59375 3.078125 -1.59375q0.875 0 1.609375 0.3125q0.734375 0.3125 1.09375 0.828125q0.375 0.5 0.515625 1.203125q0.09375 0.453125 0.09375 1.59375l0 5.953125l-1.640625 0l0 -5.890625q0 -1.0 -0.203125 -1.484375q-0.1875 -0.5 -0.671875 -0.796875q-0.484375 -0.296875 -1.140625 -0.296875q-1.046875 0 -1.8125 0.671875q-0.75 0.65625 -0.75 2.515625l0 5.28125l-1.640625 0zm9.766357 -4.84375q0 -2.6875 1.484375 -3.96875q1.25 -1.078125 3.046875 -1.078125q2.0 0 3.265625 1.3125q1.265625 1.296875 1.265625 3.609375q0 1.859375 -0.5625 2.9375q-0.5625 1.0625 -1.640625 1.65625q-1.0625 0.59375 -2.328125 0.59375q-2.03125 0 -3.28125 -1.296875q-1.25 -1.3125 -1.25 -3.765625zm1.6875 0q0 1.859375 0.796875 2.796875q0.8125 0.921875 2.046875 0.921875q1.21875 0 2.03125 -0.921875q0.8125 -0.9375 0.8125 -2.84375q0 -1.796875 -0.8125 -2.71875q-0.8125 -0.921875 -2.03125 -0.921875q-1.234375 0 -2.046875 0.921875q-0.796875 0.90625 -0.796875 2.765625zm8.641327 1.953125l1.625 -0.25q0.125 0.96875 0.75 1.5q0.625 0.515625 1.75 0.515625q1.125 0 1.671875 -0.453125q0.546875 -0.46875 0.546875 -1.09375q0 -0.546875 -0.484375 -0.875q-0.328125 -0.21875 -1.671875 -0.546875q-1.8125 -0.46875 -2.515625 -0.796875q-0.6875 -0.328125 -1.046875 -0.90625q-0.359375 -0.59375 -0.359375 -1.3125q0 -0.640625 0.296875 -1.1875q0.296875 -0.5625 0.8125 -0.921875q0.375 -0.28125 1.03125 -0.46875q0.671875 -0.203125 1.421875 -0.203125q1.140625 0 2.0 0.328125q0.859375 0.328125 1.265625 0.890625q0.421875 0.5625 0.578125 1.5l-1.609375 0.21875q-0.109375 -0.75 -0.640625 -1.171875q-0.515625 -0.421875 -1.46875 -0.421875q-1.140625 0 -1.625 0.375q-0.46875 0.375 -0.46875 0.875q0 0.3125 0.1875 0.578125q0.203125 0.265625 0.640625 0.4375q0.234375 0.09375 1.4375 0.421875q1.75 0.453125 2.4375 0.75q0.6875 0.296875 1.078125 0.859375q0.390625 0.5625 0.390625 1.40625q0 0.828125 -0.484375 1.546875q-0.46875 0.71875 -1.375 1.125q-0.90625 0.390625 -2.046875 0.390625q-1.875 0 -2.875 -0.78125q-0.984375 -0.78125 -1.25 -2.328125zm9.984375 -8.578125l0 -1.890625l1.640625 0l0 1.890625l-1.640625 0zm0 11.46875l0 -9.671875l1.640625 0l0 9.671875l-1.640625 0zm3.4885864 -2.890625l1.625 -0.25q0.125 0.96875 0.75 1.5q0.625 0.515625 1.75 0.515625q1.125 0 1.671875 -0.453125q0.546875 -0.46875 0.546875 -1.09375q0 -0.546875 -0.484375 -0.875q-0.328125 -0.21875 -1.671875 -0.546875q-1.8125 -0.46875 -2.515625 -0.796875q-0.6875 -0.328125 -1.046875 -0.90625q-0.359375 -0.59375 -0.359375 -1.3125q0 -0.640625 0.296875 -1.1875q0.296875 -0.5625 0.8125 -0.921875q0.375 -0.28125 1.03125 -0.46875q0.671875 -0.203125 1.421875 -0.203125q1.140625 0 2.0 0.328125q0.859375 0.328125 1.265625 0.890625q0.421875 0.5625 0.578125 1.5l-1.609375 0.21875q-0.109375 -0.75 -0.640625 -1.171875q-0.515625 -0.421875 -1.46875 -0.421875q-1.140625 0 -1.625 0.375q-0.46875 0.375 -0.46875 0.875q0 0.3125 0.1875 0.578125q0.203125 0.265625 0.640625 0.4375q0.234375 0.09375 1.4375 0.421875q1.75 0.453125 2.4375 0.75q0.6875 0.296875 1.078125 0.859375q0.390625 0.5625 0.390625 1.40625q0 0.828125 -0.484375 1.546875q-0.46875 0.71875 -1.375 1.125q-0.90625 0.390625 -2.046875 0.390625q-1.875 0 -2.875 -0.78125q-0.984375 -0.78125 -1.25 -2.328125z" fill-rule="nonzero"/><path fill="#000000" fill-opacity="0.0" d="m227.77953 239.95538l252.22047 0l0 42.015747l-252.22047 0z" fill-rule="evenodd"/><path fill="#000000" d="m241.62328 266.87537l0 -11.781235l-4.40625 0l0 -1.578125l10.578125 0l0 1.578125l-4.40625 0l0 11.781235l-1.765625 0zm12.03009 -1.1875q-0.921875 0.765625 -1.765625 1.09375q-0.828125 0.3125 -1.796875 0.3125q-1.59375 0 -2.453125 -0.78125q-0.859375 -0.78125 -0.859375 -1.984375q0 -0.71875 0.328125 -1.296875q0.328125 -0.59375 0.84375 -0.9375q0.53125 -0.359375 1.1875 -0.546875q0.46875 -0.125 1.453125 -0.25q1.984375 -0.234375 2.921875 -0.5625q0.015625 -0.34375 0.015625 -0.421875q0 -1.0 -0.46875 -1.421875q-0.625 -0.546875 -1.875 -0.546875q-1.15625 0 -1.703125 0.40625q-0.546875 0.40625 -0.8125 1.421875l-1.609375 -0.21875q0.21875 -1.015625 0.71875 -1.640625q0.5 -0.640625 1.453125 -0.984375q0.953125 -0.34375 2.1875 -0.34375q1.25 0 2.015625 0.296875q0.78125 0.28125 1.140625 0.734375q0.375 0.4375 0.515625 1.109375q0.078125 0.421875 0.078125 1.515625l0 2.1875q0 2.28125 0.109375 2.890625q0.109375 0.59375 0.40625 1.15625l-1.703125 0q-0.265625 -0.515625 -0.328125 -1.1875zm-0.140625 -3.671875q-0.890625 0.375 -2.671875 0.625q-1.015625 0.140625 -1.4375 0.328125q-0.421875 0.1875 -0.65625 0.53125q-0.21875 0.34375 -0.21875 0.78125q0 0.65625 0.5 1.09375q0.5 0.4375 1.453125 0.4375q0.9375 0 1.671875 -0.40625q0.75 -0.421875 1.09375 -1.140625q0.265625 -0.5625 0.265625 -1.640625l0 -0.609375zm3.5475922 1.96875l1.625 -0.25q0.125 0.96875 0.75 1.5q0.625 0.515625 1.75 0.515625q1.125 0 1.671875 -0.453125q0.546875 -0.46875 0.546875 -1.09375q0 -0.546875 -0.484375 -0.875q-0.328125 -0.21875 -1.671875 -0.546875q-1.8125 -0.46875 -2.515625 -0.796875q-0.6875 -0.328125 -1.046875 -0.90625q-0.359375 -0.59375 -0.359375 -1.3125q0 -0.640625 0.296875 -1.1875q0.296875 -0.5625 0.8125 -0.921875q0.375 -0.28125 1.03125 -0.46875q0.671875 -0.203125 1.421875 -0.203125q1.140625 0 2.0 0.328125q0.859375 0.328125 1.265625 0.890625q0.421875 0.5625 0.578125 1.5l-1.609375 0.21875q-0.109375 -0.75 -0.640625 -1.171875q-0.515625 -0.421875 -1.46875 -0.421875q-1.140625 0 -1.625 0.375q-0.46875 0.375 -0.46875 0.875q0 0.3125 0.1875 0.578125q0.203125 0.265625 0.640625 0.4375q0.234375 0.09375 1.4375 0.421875q1.75 0.453125 2.4375 0.75q0.6875 0.296875 1.078125 0.859375q0.390625 0.5625 0.390625 1.40625q0 0.828125 -0.484375 1.546875q-0.46875 0.71875 -1.375 1.125q-0.90625 0.390625 -2.046875 0.390625q-1.875 0 -2.875 -0.78125q-0.984375 -0.78125 -1.25 -2.328125zm9.984375 2.890625l0 -13.35936l1.640625 0l0 7.6249847l3.890625 -3.9375l2.109375 0l-3.6875 3.59375l4.0625 6.078125l-2.015625 0l-3.203125 -4.953125l-1.15625 1.125l0 3.828125l-1.640625 0zm14.714569 0l0 -13.35936l4.609375 0q1.546875 0 2.375 0.203125q1.140625 0.25 1.953125 0.953125q1.0625 0.890625 1.578125 2.2812347q0.53125 1.390625 0.53125 3.171875q0 1.515625 -0.359375 2.703125q-0.359375 1.171875 -0.921875 1.9375q-0.546875 0.765625 -1.203125 1.21875q-0.65625 0.4375 -1.59375 0.671875q-0.9375 0.21875 -2.140625 0.21875l-4.828125 0zm1.765625 -1.578125l2.859375 0q1.3125 0 2.0625 -0.234375q0.75 -0.25 1.203125 -0.703125q0.625 -0.625 0.96875 -1.6875q0.359375 -1.0625 0.359375 -2.578125q0 -2.09375 -0.6875 -3.21875q-0.6875 -1.1249847 -1.671875 -1.4999847q-0.703125 -0.28125 -2.28125 -0.28125l-2.8125 0l0 10.20311zm18.12918 -1.53125l1.6875 0.203125q-0.40625 1.484375 -1.484375 2.3125q-1.078125 0.8125 -2.765625 0.8125q-2.125 0 -3.375 -1.296875q-1.234375 -1.3125 -1.234375 -3.671875q0 -2.453125 1.25 -3.796875q1.265625 -1.34375 3.265625 -1.34375q1.9375 0 3.15625 1.328125q1.234375 1.3125 1.234375 3.703125q0 0.15625 0 0.4375l-7.21875 0q0.09375 1.59375 0.90625 2.453125q0.8125 0.84375 2.015625 0.84375q0.90625 0 1.546875 -0.46875q0.640625 -0.484375 1.015625 -1.515625zm-5.390625 -2.65625l5.40625 0q-0.109375 -1.21875 -0.625 -1.828125q-0.78125 -0.953125 -2.03125 -0.953125q-1.125 0 -1.90625 0.765625q-0.765625 0.75 -0.84375 2.015625zm15.453857 2.21875l1.609375 0.21875q-0.265625 1.65625 -1.359375 2.609375q-1.078125 0.9375 -2.671875 0.9375q-1.984375 0 -3.1875 -1.296875q-1.203125 -1.296875 -1.203125 -3.71875q0 -1.578125 0.515625 -2.75q0.515625 -1.171875 1.578125 -1.75q1.0625 -0.59375 2.3125 -0.59375q1.578125 0 2.578125 0.796875q1.0 0.796875 1.28125 2.265625l-1.59375 0.234375q-0.234375 -0.96875 -0.8125 -1.453125q-0.578125 -0.5 -1.390625 -0.5q-1.234375 0 -2.015625 0.890625q-0.78125 0.890625 -0.78125 2.8125q0 1.953125 0.75 2.84375q0.75 0.875 1.953125 0.875q0.96875 0 1.609375 -0.59375q0.65625 -0.59375 0.828125 -1.828125zm2.40625 -1.296875q0 -2.6875 1.484375 -3.96875q1.25 -1.078125 3.046875 -1.078125q2.0 0 3.265625 1.3125q1.265625 1.296875 1.265625 3.609375q0 1.859375 -0.5625 2.9375q-0.5625 1.0625 -1.640625 1.65625q-1.0625 0.59375 -2.328125 0.59375q-2.03125 0 -3.28125 -1.296875q-1.25 -1.3125 -1.25 -3.765625zm1.6875 0q0 1.859375 0.796875 2.796875q0.8125 0.921875 2.046875 0.921875q1.21875 0 2.03125 -0.921875q0.8125 -0.9375 0.8125 -2.84375q0 -1.796875 -0.8125 -2.71875q-0.8125 -0.921875 -2.03125 -0.921875q-1.234375 0 -2.046875 0.921875q-0.796875 0.90625 -0.796875 2.765625zm9.297577 4.84375l0 -9.671875l1.46875 0l0 1.359375q0.453125 -0.71875 1.203125 -1.140625q0.765625 -0.4375 1.71875 -0.4375q1.078125 0 1.765625 0.453125q0.6875 0.4375 0.96875 1.234375q1.15625 -1.6875 2.984375 -1.6875q1.453125 0 2.21875 0.796875q0.78125 0.796875 0.78125 2.453125l0 6.640625l-1.640625 0l0 -6.09375q0 -0.984375 -0.15625 -1.40625q-0.15625 -0.4375 -0.578125 -0.703125q-0.421875 -0.265625 -0.984375 -0.265625q-1.015625 0 -1.6875 0.6875q-0.671875 0.671875 -0.671875 2.15625l0 5.625l-1.640625 0l0 -6.28125q0 -1.09375 -0.40625 -1.640625q-0.40625 -0.546875 -1.3125 -0.546875q-0.6875 0 -1.28125 0.359375q-0.59375 0.359375 -0.859375 1.0625q-0.25 0.703125 -0.25 2.03125l0 5.015625l-1.640625 0zm15.540802 3.703125l0 -13.375l1.484375 0l0 1.25q0.53125 -0.734375 1.1875 -1.09375q0.671875 -0.375 1.625 -0.375q1.234375 0 2.171875 0.640625q0.953125 0.625 1.4375 1.796875q0.484375 1.15625 0.484375 2.546875q0 1.484375 -0.53125 2.671875q-0.53125 1.1875 -1.546875 1.828125q-1.015625 0.625 -2.140625 0.625q-0.8125 0 -1.46875 -0.34375q-0.65625 -0.34375 -1.0625 -0.875l0 4.703125l-1.640625 0zm1.484375 -8.484375q0 1.859375 0.75 2.765625q0.765625 0.890625 1.828125 0.890625q1.09375 0 1.875 -0.921875q0.78125 -0.9375 0.78125 -2.875q0 -1.84375 -0.765625 -2.765625q-0.75 -0.921875 -1.8125 -0.921875q-1.046875 0 -1.859375 0.984375q-0.796875 0.96875 -0.796875 2.84375zm8.281982 -0.0625q0 -2.6875 1.484375 -3.96875q1.25 -1.078125 3.046875 -1.078125q2.0 0 3.265625 1.3125q1.265625 1.296875 1.265625 3.609375q0 1.859375 -0.5625 2.9375q-0.5625 1.0625 -1.640625 1.65625q-1.0625 0.59375 -2.328125 0.59375q-2.03125 0 -3.28125 -1.296875q-1.25 -1.3125 -1.25 -3.765625zm1.6875 0q0 1.859375 0.796875 2.796875q0.8125 0.921875 2.046875 0.921875q1.21875 0 2.03125 -0.921875q0.8125 -0.9375 0.8125 -2.84375q0 -1.796875 -0.8125 -2.71875q-0.8125 -0.921875 -2.03125 -0.921875q-1.234375 0 -2.046875 0.921875q-0.796875 0.90625 -0.796875 2.765625zm8.641327 1.953125l1.625 -0.25q0.125 0.96875 0.75 1.5q0.625 0.515625 1.75 0.515625q1.125 0 1.671875 -0.453125q0.546875 -0.46875 0.546875 -1.09375q0 -0.546875 -0.484375 -0.875q-0.328125 -0.21875 -1.671875 -0.546875q-1.8125 -0.46875 -2.515625 -0.796875q-0.6875 -0.328125 -1.046875 -0.90625q-0.359375 -0.59375 -0.359375 -1.3125q0 -0.640625 0.296875 -1.1875q0.296875 -0.5625 0.8125 -0.921875q0.375 -0.28125 1.03125 -0.46875q0.671875 -0.203125 1.421875 -0.203125q1.140625 0 2.0 0.328125q0.859375 0.328125 1.265625 0.890625q0.421875 0.5625 0.578125 1.5l-1.609375 0.21875q-0.109375 -0.75 -0.640625 -1.171875q-0.515625 -0.421875 -1.46875 -0.421875q-1.140625 0 -1.625 0.375q-0.46875 0.375 -0.46875 0.875q0 0.3125 0.1875 0.578125q0.203125 0.265625 0.640625 0.4375q0.234375 0.09375 1.4375 0.421875q1.75 0.453125 2.4375 0.75q0.6875 0.296875 1.078125 0.859375q0.390625 0.5625 0.390625 1.40625q0 0.828125 -0.484375 1.546875q-0.46875 0.71875 -1.375 1.125q-0.90625 0.390625 -2.046875 0.390625q-1.875 0 -2.875 -0.78125q-0.984375 -0.78125 -1.25 -2.328125zm9.984375 -8.57811l0 -1.890625l1.640625 0l0 1.890625l-1.640625 0zm0 11.468735l0 -9.671875l1.640625 0l0 9.671875l-1.640625 0zm7.7229614 -1.46875l0.234375 1.453125q-0.6875 0.140625 -1.234375 0.140625q-0.890625 0 -1.390625 -0.28125q-0.484375 -0.28125 -0.6875 -0.734375q-0.203125 -0.46875 -0.203125 -1.9375l0 -5.578125l-1.203125 0l0 -1.265625l1.203125 0l0 -2.3906097l1.625 -0.984375l0 3.3749847l1.65625 0l0 1.265625l-1.65625 0l0 5.671875q0 0.6875 0.078125 0.890625q0.09375 0.203125 0.28125 0.328125q0.203125 0.109375 0.578125 0.109375q0.265625 0 0.71875 -0.0625zm1.6051636 -9.999985l0 -1.890625l1.640625 0l0 1.890625l-1.640625 0zm0 11.468735l0 -9.671875l1.640625 0l0 9.671875l-1.640625 0zm3.5354614 -4.84375q0 -2.6875 1.484375 -3.96875q1.25 -1.078125 3.046875 -1.078125q2.0 0 3.265625 1.3125q1.265625 1.296875 1.265625 3.609375q0 1.859375 -0.5625 2.9375q-0.5625 1.0625 -1.640625 1.65625q-1.0625 0.59375 -2.328125 0.59375q-2.03125 0 -3.28125 -1.296875q-1.25 -1.3125 -1.25 -3.765625zm1.6875 0q0 1.859375 0.796875 2.796875q0.8125 0.921875 2.046875 0.921875q1.21875 0 2.03125 -0.921875q0.8125 -0.9375 0.8125 -2.84375q0 -1.796875 -0.8125 -2.71875q-0.8125 -0.921875 -2.03125 -0.921875q-1.234375 0 -2.046875 0.921875q-0.796875 0.90625 -0.796875 2.765625zm9.297577 4.84375l0 -9.671875l1.46875 0l0 1.375q1.0625 -1.59375 3.078125 -1.59375q0.875 0 1.609375 0.3125q0.734375 0.3125 1.09375 0.828125q0.375 0.5 0.515625 1.203125q0.09375 0.453125 0.09375 1.59375l0 5.953125l-1.640625 0l0 -5.890625q0 -1.0 -0.203125 -1.484375q-0.1875 -0.5 -0.671875 -0.796875q-0.484375 -0.296875 -1.140625 -0.296875q-1.046875 0 -1.8125 0.671875q-0.75 0.65625 -0.75 2.515625l0 5.28125l-1.640625 0z" fill-rule="nonzero"/><path fill="#000000" fill-opacity="0.0" d="m525.7769 54.07349l161.51178 0l0 64.62993l-161.51178 0z" fill-rule="evenodd"/><path fill="#000000" d="m545.74567 76.30599l1.765625 0.453125q-0.5625 2.171875 -2.0 3.328125q-1.4375 1.140625 -3.53125 1.140625q-2.15625 0 -3.515625 -0.875q-1.34375 -0.890625 -2.0625 -2.546875q-0.703125 -1.671875 -0.703125 -3.59375q0 -2.078125 0.796875 -3.625q0.796875 -1.5625 2.265625 -2.359375q1.484375 -0.8125 3.25 -0.8125q2.0 0 3.359375 1.015625q1.375 1.015625 1.90625 2.875l-1.734375 0.40625q-0.46875 -1.453125 -1.359375 -2.109375q-0.875 -0.671875 -2.203125 -0.671875q-1.546875 0 -2.578125 0.734375q-1.03125 0.734375 -1.453125 1.984375q-0.421875 1.234375 -0.421875 2.5625q0 1.703125 0.5 2.96875q0.5 1.265625 1.546875 1.90625q1.046875 0.625 2.265625 0.625q1.484375 0 2.515625 -0.859375q1.03125 -0.859375 1.390625 -2.546875zm3.1292114 -0.15625q0 -2.6875 1.484375 -3.96875q1.25 -1.078125 3.046875 -1.078125q2.0 0 3.265625 1.3125q1.265625 1.296875 1.265625 3.609375q0 1.859375 -0.5625 2.9375q-0.5625 1.0625 -1.640625 1.65625q-1.0625 0.59375 -2.328125 0.59375q-2.03125 0 -3.28125 -1.296875q-1.25 -1.3125 -1.25 -3.765625zm1.6875 0q0 1.859375 0.796875 2.796875q0.8125 0.921875 2.046875 0.921875q1.21875 0 2.03125 -0.921875q0.8125 -0.9375 0.8125 -2.84375q0 -1.796875 -0.8125 -2.71875q-0.8125 -0.921875 -2.03125 -0.921875q-1.234375 0 -2.046875 0.921875q-0.796875 0.90625 -0.796875 2.765625zm9.297546 4.84375l0 -9.671875l1.46875 0l0 1.359375q0.453125 -0.71875 1.203125 -1.140625q0.765625 -0.4375 1.71875 -0.4375q1.078125 0 1.765625 0.453125q0.6875 0.4375 0.96875 1.234375q1.15625 -1.6875 2.984375 -1.6875q1.453125 0 2.21875 0.796875q0.78125 0.796875 0.78125 2.453125l0 6.640625l-1.640625 0l0 -6.09375q0 -0.984375 -0.15625 -1.40625q-0.15625 -0.4375 -0.578125 -0.703125q-0.421875 -0.265625 -0.984375 -0.265625q-1.015625 0 -1.6875 0.6875q-0.671875 0.671875 -0.671875 2.15625l0 5.625l-1.640625 0l0 -6.28125q0 -1.09375 -0.40625 -1.640625q-0.40625 -0.546875 -1.3125 -0.546875q-0.6875 0 -1.28125 0.359375q-0.59375 0.359375 -0.859375 1.0625q-0.25 0.703125 -0.25 2.03125l0 5.015625l-1.640625 0zm15.5408325 3.703125l0 -13.375l1.484375 0l0 1.25q0.53125 -0.734375 1.1875 -1.09375q0.671875 -0.375 1.625 -0.375q1.234375 0 2.171875 0.640625q0.953125 0.625 1.4375 1.796875q0.484375 1.15625 0.484375 2.546875q0 1.484375 -0.53125 2.671875q-0.53125 1.1875 -1.546875 1.828125q-1.015625 0.625 -2.140625 0.625q-0.8125 0 -1.46875 -0.34375q-0.65625 -0.34375 -1.0625 -0.875l0 4.703125l-1.640625 0zm1.484375 -8.484375q0 1.859375 0.75 2.765625q0.765625 0.890625 1.828125 0.890625q1.09375 0 1.875 -0.921875q0.78125 -0.9375 0.78125 -2.875q0 -1.84375 -0.765625 -2.765625q-0.75 -0.921875 -1.8125 -0.921875q-1.046875 0 -1.859375 0.984375q-0.796875 0.96875 -0.796875 2.84375zm8.875732 4.78125l0 -9.671875l1.46875 0l0 1.46875q0.5625 -1.03125 1.03125 -1.359375q0.484375 -0.328125 1.0625 -0.328125q0.828125 0 1.6875 0.53125l-0.5625 1.515625q-0.609375 -0.359375 -1.203125 -0.359375q-0.546875 0 -0.96875 0.328125q-0.421875 0.328125 -0.609375 0.890625q-0.28125 0.875 -0.28125 1.921875l0 5.0625l-1.625 0zm12.8532715 -3.109375l1.6875 0.203125q-0.40625 1.484375 -1.484375 2.3125q-1.078125 0.8125 -2.765625 0.8125q-2.125 0 -3.375 -1.296875q-1.234375 -1.3125 -1.234375 -3.671875q0 -2.453125 1.25 -3.796875q1.265625 -1.34375 3.265625 -1.34375q1.9375 0 3.15625 1.328125q1.234375 1.3125 1.234375 3.703125q0 0.15625 0 0.4375l-7.21875 0q0.09375 1.59375 0.90625 2.453125q0.8125 0.84375 2.015625 0.84375q0.90625 0 1.546875 -0.46875q0.640625 -0.484375 1.015625 -1.515625zm-5.390625 -2.65625l5.40625 0q-0.109375 -1.21875 -0.625 -1.828125q-0.78125 -0.953125 -2.03125 -0.953125q-1.125 0 -1.90625 0.765625q-0.765625 0.75 -0.84375 2.015625zm9.141357 5.765625l0 -13.359375l1.640625 0l0 4.796875q1.140625 -1.328125 2.890625 -1.328125q1.078125 0 1.859375 0.421875q0.796875 0.421875 1.140625 1.171875q0.34375 0.75 0.34375 2.171875l0 6.125l-1.640625 0l0 -6.125q0 -1.234375 -0.53125 -1.796875q-0.53125 -0.5625 -1.515625 -0.5625q-0.71875 0 -1.359375 0.390625q-0.640625 0.375 -0.921875 1.015625q-0.265625 0.640625 -0.265625 1.78125l0 5.296875l-1.640625 0zm17.000732 -3.109375l1.6875 0.203125q-0.40625 1.484375 -1.484375 2.3125q-1.078125 0.8125 -2.765625 0.8125q-2.125 0 -3.375 -1.296875q-1.234375 -1.3125 -1.234375 -3.671875q0 -2.453125 1.25 -3.796875q1.265625 -1.34375 3.265625 -1.34375q1.9375 0 3.15625 1.328125q1.234375 1.3125 1.234375 3.703125q0 0.15625 0 0.4375l-7.21875 0q0.09375 1.59375 0.90625 2.453125q0.8125 0.84375 2.015625 0.84375q0.90625 0 1.546875 -0.46875q0.640625 -0.484375 1.015625 -1.515625zm-5.390625 -2.65625l5.40625 0q-0.109375 -1.21875 -0.625 -1.828125q-0.78125 -0.953125 -2.03125 -0.953125q-1.125 0 -1.90625 0.765625q-0.765625 0.75 -0.84375 2.015625zm9.141296 5.765625l0 -9.671875l1.46875 0l0 1.375q1.0625 -1.59375 3.078125 -1.59375q0.875 0 1.609375 0.3125q0.734375 0.3125 1.09375 0.828125q0.375 0.5 0.515625 1.203125q0.09375 0.453125 0.09375 1.59375l0 5.953125l-1.640625 0l0 -5.890625q0 -1.0 -0.203125 -1.484375q-0.1875 -0.5 -0.671875 -0.796875q-0.484375 -0.296875 -1.140625 -0.296875q-1.046875 0 -1.8125 0.671875q-0.75 0.65625 -0.75 2.515625l0 5.28125l-1.640625 0zm16.641357 0l0 -1.21875q-0.90625 1.4375 -2.703125 1.4375q-1.15625 0 -2.125 -0.640625q-0.96875 -0.640625 -1.5 -1.78125q-0.53125 -1.140625 -0.53125 -2.625q0 -1.453125 0.484375 -2.625q0.484375 -1.1875 1.4375 -1.8125q0.96875 -0.625 2.171875 -0.625q0.875 0 1.546875 0.375q0.6875 0.359375 1.109375 0.953125l0 -4.796875l1.640625 0l0 13.359375l-1.53125 0zm-5.171875 -4.828125q0 1.859375 0.78125 2.78125q0.78125 0.921875 1.84375 0.921875q1.078125 0 1.828125 -0.875q0.75 -0.890625 0.75 -2.6875q0 -1.984375 -0.765625 -2.90625q-0.765625 -0.9375 -1.890625 -0.9375q-1.078125 0 -1.8125 0.890625q-0.734375 0.890625 -0.734375 2.8125zm9.281982 -6.640625l0 -1.890625l1.640625 0l0 1.890625l-1.640625 0zm0 11.46875l0 -9.671875l1.640625 0l0 9.671875l-1.640625 0zm4.1448364 0l0 -9.671875l1.46875 0l0 1.375q1.0625 -1.59375 3.078125 -1.59375q0.875 0 1.609375 0.3125q0.734375 0.3125 1.09375 0.828125q0.375 0.5 0.515625 1.203125q0.09375 0.453125 0.09375 1.59375l0 5.953125l-1.640625 0l0 -5.890625q0 -1.0 -0.203125 -1.484375q-0.1875 -0.5 -0.671875 -0.796875q-0.484375 -0.296875 -1.140625 -0.296875q-1.046875 0 -1.8125 0.671875q-0.75 0.65625 -0.75 2.515625l0 5.28125l-1.640625 0zm10.063171 0.796875l1.59375 0.234375q0.109375 0.75 0.5625 1.078125q0.609375 0.453125 1.671875 0.453125q1.140625 0 1.75 -0.453125q0.625 -0.453125 0.84375 -1.265625q0.125 -0.5 0.109375 -2.109375q-1.0625 1.265625 -2.671875 1.265625q-2.0 0 -3.09375 -1.4375q-1.09375 -1.4375 -1.09375 -3.453125q0 -1.390625 0.5 -2.5625q0.515625 -1.171875 1.453125 -1.796875q0.953125 -0.640625 2.25 -0.640625q1.703125 0 2.8125 1.375l0 -1.15625l1.515625 0l0 8.359375q0 2.265625 -0.46875 3.203125q-0.453125 0.9375 -1.453125 1.484375q-0.984375 0.546875 -2.453125 0.546875q-1.71875 0 -2.796875 -0.78125q-1.0625 -0.765625 -1.03125 -2.34375zm1.359375 -5.8125q0 1.90625 0.75 2.78125q0.765625 0.875 1.90625 0.875q1.125 0 1.890625 -0.859375q0.765625 -0.875 0.765625 -2.734375q0 -1.78125 -0.796875 -2.671875q-0.78125 -0.90625 -1.890625 -0.90625q-1.09375 0 -1.859375 0.890625q-0.765625 0.875 -0.765625 2.625z" fill-rule="nonzero"/><path fill="#000000" d="m535.4019 98.549736q0 -2.6875 1.484375 -3.96875q1.25 -1.078125 3.046875 -1.078125q2.0 0 3.265625 1.3125q1.265625 1.296875 1.265625 3.609375q0 1.859375 -0.5625 2.9375q-0.5625 1.0625 -1.640625 1.65625q-1.0625 0.59375 -2.328125 0.59375q-2.03125 0 -3.28125 -1.296875q-1.25 -1.3125 -1.25 -3.765625zm1.6875 0q0 1.859375 0.796875 2.796875q0.8125 0.921875 2.046875 0.921875q1.21875 0 2.03125 -0.921875q0.8125 -0.9375 0.8125 -2.84375q0 -1.796875 -0.8125 -2.71875q-0.8125 -0.921875 -2.03125 -0.921875q-1.234375 0 -2.046875 0.921875q-0.796875 0.90625 -0.796875 2.765625zm12.875732 3.375l0.234375 1.453125q-0.6875 0.140625 -1.234375 0.140625q-0.890625 0 -1.390625 -0.28125q-0.484375 -0.28125 -0.6875 -0.734375q-0.203125 -0.46875 -0.203125 -1.9375l0 -5.578125l-1.203125 0l0 -1.265625l1.203125 0l0 -2.390625l1.625 -0.984375l0 3.375l1.65625 0l0 1.265625l-1.65625 0l0 5.671875q0 0.6875 0.078125 0.890625q0.09375 0.203125 0.28125 0.328125q0.203125 0.109375 0.578125 0.109375q0.265625 0 0.71875 -0.0625zm1.6051636 1.46875l0 -13.359375l1.640625 0l0 4.796875q1.140625 -1.328125 2.890625 -1.328125q1.078125 0 1.859375 0.421875q0.796875 0.421875 1.140625 1.171875q0.34375 0.75 0.34375 2.171875l0 6.125l-1.640625 0l0 -6.125q0 -1.234375 -0.53125 -1.796875q-0.53125 -0.5625 -1.515625 -0.5625q-0.71875 0 -1.359375 0.390625q-0.640625 0.375 -0.921875 1.015625q-0.265625 0.640625 -0.265625 1.78125l0 5.296875l-1.640625 0zm17.000732 -3.109375l1.6875 0.203125q-0.40625 1.484375 -1.484375 2.3125q-1.078125 0.8125 -2.765625 0.8125q-2.125 0 -3.375 -1.296875q-1.234375 -1.3125 -1.234375 -3.671875q0 -2.453125 1.25 -3.796875q1.265625 -1.34375 3.265625 -1.34375q1.9375 0 3.15625 1.328125q1.234375 1.3125 1.234375 3.703125q0 0.15625 0 0.4375l-7.21875 0q0.09375 1.59375 0.90625 2.453125q0.8125 0.84375 2.015625 0.84375q0.90625 0 1.546875 -0.46875q0.640625 -0.484375 1.015625 -1.515625zm-5.390625 -2.65625l5.40625 0q-0.109375 -1.21875 -0.625 -1.828125q-0.78125 -0.953125 -2.03125 -0.953125q-1.125 0 -1.90625 0.765625q-0.765625 0.75 -0.84375 2.015625zm9.125671 5.765625l0 -9.671875l1.46875 0l0 1.46875q0.5625 -1.03125 1.03125 -1.359375q0.484375 -0.328125 1.0625 -0.328125q0.828125 0 1.6875 0.53125l-0.5625 1.515625q-0.609375 -0.359375 -1.203125 -0.359375q-0.546875 0 -0.96875 0.328125q-0.421875 0.328125 -0.609375 0.890625q-0.28125 0.875 -0.28125 1.921875l0 5.0625l-1.625 0zm5.5720825 -2.890625l1.625 -0.25q0.125 0.96875 0.75 1.5q0.625 0.515625 1.75 0.515625q1.125 0 1.671875 -0.453125q0.546875 -0.46875 0.546875 -1.09375q0 -0.546875 -0.484375 -0.875q-0.328125 -0.21875 -1.671875 -0.546875q-1.8125 -0.46875 -2.515625 -0.796875q-0.6875 -0.328125 -1.046875 -0.90625q-0.359375 -0.59375 -0.359375 -1.3125q0 -0.640625 0.296875 -1.1875q0.296875 -0.5625 0.8125 -0.921875q0.375 -0.28125 1.03125 -0.46875q0.671875 -0.203125 1.421875 -0.203125q1.140625 0 2.0 0.328125q0.859375 0.328125 1.265625 0.890625q0.421875 0.5625 0.578125 1.5l-1.609375 0.21875q-0.109375 -0.75 -0.640625 -1.171875q-0.515625 -0.421875 -1.46875 -0.421875q-1.140625 0 -1.625 0.375q-0.46875 0.375 -0.46875 0.875q0 0.3125 0.1875 0.578125q0.203125 0.265625 0.640625 0.4375q0.234375 0.09375 1.4375 0.421875q1.75 0.453125 2.4375 0.75q0.6875 0.296875 1.078125 0.859375q0.390625 0.5625 0.390625 1.40625q0 0.828125 -0.484375 1.546875q-0.46875 0.71875 -1.375 1.125q-0.90625 0.390625 -2.046875 0.390625q-1.875 0 -2.875 -0.78125q-0.984375 -0.78125 -1.25 -2.328125zm9.875 -8.703125l0 -1.890625l1.765625 0l0 1.5q0 1.21875 -0.28125 1.75q-0.390625 0.75 -1.21875 1.109375l-0.40625 -0.640625q0.484375 -0.203125 0.71875 -0.625q0.25 -0.4375 0.28125 -1.203125l-0.859375 0zm15.057312 8.046875l1.609375 0.21875q-0.265625 1.65625 -1.359375 2.609375q-1.078125 0.9375 -2.671875 0.9375q-1.984375 0 -3.1875 -1.296875q-1.203125 -1.296875 -1.203125 -3.71875q0 -1.578125 0.515625 -2.75q0.515625 -1.171875 1.578125 -1.75q1.0625 -0.59375 2.3125 -0.59375q1.578125 0 2.578125 0.796875q1.0 0.796875 1.28125 2.265625l-1.59375 0.234375q-0.234375 -0.96875 -0.8125 -1.453125q-0.578125 -0.5 -1.390625 -0.5q-1.234375 0 -2.015625 0.890625q-0.78125 0.890625 -0.78125 2.8125q0 1.953125 0.75 2.84375q0.75 0.875 1.953125 0.875q0.96875 0 1.609375 -0.59375q0.65625 -0.59375 0.828125 -1.828125zm2.40625 -1.296875q0 -2.6875 1.484375 -3.96875q1.25 -1.078125 3.046875 -1.078125q2.0 0 3.265625 1.3125q1.265625 1.296875 1.265625 3.609375q0 1.859375 -0.5625 2.9375q-0.5625 1.0625 -1.640625 1.65625q-1.0625 0.59375 -2.328125 0.59375q-2.03125 0 -3.28125 -1.296875q-1.25 -1.3125 -1.25 -3.765625zm1.6875 0q0 1.859375 0.796875 2.796875q0.8125 0.921875 2.046875 0.921875q1.21875 0 2.03125 -0.921875q0.8125 -0.9375 0.8125 -2.84375q0 -1.796875 -0.8125 -2.71875q-0.8125 -0.921875 -2.03125 -0.921875q-1.234375 0 -2.046875 0.921875q-0.796875 0.90625 -0.796875 2.765625zm15.563171 4.84375l0 -1.21875q-0.90625 1.4375 -2.703125 1.4375q-1.15625 0 -2.125 -0.640625q-0.96875 -0.640625 -1.5 -1.78125q-0.53125 -1.140625 -0.53125 -2.625q0 -1.453125 0.484375 -2.625q0.484375 -1.1875 1.4375 -1.8125q0.96875 -0.625 2.171875 -0.625q0.875 0 1.546875 0.375q0.6875 0.359375 1.109375 0.953125l0 -4.796875l1.640625 0l0 13.359375l-1.53125 0zm-5.171875 -4.828125q0 1.859375 0.78125 2.78125q0.78125 0.921875 1.84375 0.921875q1.078125 0 1.828125 -0.875q0.75 -0.890625 0.75 -2.6875q0 -1.984375 -0.765625 -2.90625q-0.765625 -0.9375 -1.890625 -0.9375q-1.078125 0 -1.8125 0.890625q-0.734375 0.890625 -0.734375 2.8125zm15.906982 1.71875l1.6875 0.203125q-0.40625 1.484375 -1.484375 2.3125q-1.078125 0.8125 -2.765625 0.8125q-2.125 0 -3.375 -1.296875q-1.234375 -1.3125 -1.234375 -3.671875q0 -2.453125 1.25 -3.796875q1.265625 -1.34375 3.265625 -1.34375q1.9375 0 3.15625 1.328125q1.234375 1.3125 1.234375 3.703125q0 0.15625 0 0.4375l-7.21875 0q0.09375 1.59375 0.90625 2.453125q0.8125 0.84375 2.015625 0.84375q0.90625 0 1.546875 -0.46875q0.640625 -0.484375 1.015625 -1.515625zm-5.390625 -2.65625l5.40625 0q-0.109375 -1.21875 -0.625 -1.828125q-0.78125 -0.953125 -2.03125 -0.953125q-1.125 0 -1.90625 0.765625q-0.765625 0.75 -0.84375 2.015625z" fill-rule="nonzero"/></g></svg>